<?xml version="1.0" standalone="no"?>
<!DOCTYPE svg PUBLIC "-//W3C//DTD SVG 1.1//EN" "http://www.w3.org/Graphics/SVG/1.1/DTD/svg11.dtd" >
<svg xmlns="http://www.w3.org/2000/svg" xmlns:xlink="http://www.w3.org/1999/xlink" version="1.1">
<metadata>
Created by FontForge 20201107 at Sat Aug  8 01:52:36 2015
 By Jimmy Wärting
(c) 2014 Apple Inc. All rights reserved.
</metadata>
<defs>
<font id="SFCompactDisplay-Regular" horiz-adv-x="1800" >
  <font-face 
    font-family="SF Compact Display"
    font-weight="400"
    font-stretch="normal"
    units-per-em="2048"
    panose-1="2 11 3 4 3 2 2 6 2 4"
    ascent="1638"
    descent="-410"
    x-height="1047"
    cap-height="1364"
    bbox="-407 -494 2055 1950"
    underline-thickness="50"
    underline-position="-100"
    stemh="126"
    stemv="146"
    unicode-range="U+0020-1F189"
  />
<missing-glyph horiz-adv-x="2048" 
d="M100 -494v302h1848v-302h-1848zM100 -66v302h1848v-302h-1848zM100 363v302h1848v-302h-1848zM100 791v302h1848v-302h-1848zM100 1220v302h1848v-302h-1848zM100 1648v302h1848v-302h-1848z" />
    <glyph glyph-name=".notdef" horiz-adv-x="2048" 
d="M100 -494v302h1848v-302h-1848zM100 -66v302h1848v-302h-1848zM100 363v302h1848v-302h-1848zM100 791v302h1848v-302h-1848zM100 1220v302h1848v-302h-1848zM100 1648v302h1848v-302h-1848z" />
    <glyph glyph-name=".null" horiz-adv-x="0" 
 />
    <glyph glyph-name="nonmarkingreturn" horiz-adv-x="0" 
 />
    <glyph glyph-name="space" unicode=" " horiz-adv-x="412" 
 />
    <glyph glyph-name="A" unicode="A" horiz-adv-x="1189" 
d="M188 0h-157l490 1364h147l489 -1364h-156l-145 425h-523zM596 1180h-4l-217 -632h438z" />
    <glyph glyph-name="Agrave" unicode="&#xc0;" horiz-adv-x="1189" 
d="M188 0h-157l490 1364h147l489 -1364h-156l-145 425h-523zM596 1180h-4l-217 -632h438zM662 1514h-117l-226 273h155z" />
    <glyph glyph-name="Aacute" unicode="&#xc1;" horiz-adv-x="1189" 
d="M188 0h-157l490 1364h147l489 -1364h-156l-145 425h-523zM596 1180h-4l-217 -632h438zM643 1514h-117l188 273h155z" />
    <glyph glyph-name="Adieresis" unicode="&#xc4;" horiz-adv-x="1189" 
d="M188 0h-157l490 1364h147l489 -1364h-156l-145 425h-523zM596 1180h-4l-217 -632h438zM444 1500c-46 0 -81 36 -81 84c0 50 35 85 81 85c47 0 82 -35 82 -85c0 -48 -35 -84 -82 -84zM743 1500c-45 0 -81 36 -81 84c0 50 36 85 81 85c48 0 82 -35 82 -85
c0 -48 -34 -84 -82 -84z" />
    <glyph glyph-name="Adieresismacron" unicode="&#x1de;" horiz-adv-x="1189" 
d="M188 0h-157l490 1364h147l489 -1364h-156l-145 425h-523zM596 1180h-4l-217 -632h438zM444 1500c-46 0 -81 36 -81 84c0 50 35 85 81 85c47 0 82 -35 82 -85c0 -48 -35 -84 -82 -84zM743 1500c-45 0 -81 36 -81 84c0 50 36 85 81 85c48 0 82 -35 82 -85
c0 -48 -34 -84 -82 -84zM860 1797h-532v98h532v-98z" />
    <glyph glyph-name="Aring" unicode="&#xc5;" horiz-adv-x="1189" 
d="M188 0h-157l490 1364h147l489 -1364h-156l-145 425h-523zM596 1180h-4l-217 -632h438zM594 1499c-103 0 -185 79 -185 181s82 180 185 180c101 0 184 -78 184 -180s-83 -181 -184 -181zM489 1680c0 -59 46 -107 105 -107s104 48 104 107s-45 106 -104 106
s-105 -47 -105 -106z" />
    <glyph glyph-name="Aringacute" unicode="&#x1fa;" horiz-adv-x="1189" 
d="M188 0h-157l490 1364h147l489 -1364h-156l-145 425h-523zM596 1180h-4l-217 -632h438zM534 1812l113 133h160l-154 -133h-119zM594 1430c-95 0 -170 73 -170 167c0 95 75 168 170 168c94 0 171 -73 171 -168c0 -94 -77 -167 -171 -167zM501 1598c0 -53 41 -96 94 -96
s93 43 93 96s-40 95 -93 95s-94 -42 -94 -95z" />
    <glyph glyph-name="Atilde" unicode="&#xc3;" horiz-adv-x="1189" 
d="M188 0h-157l490 1364h147l489 -1364h-156l-145 425h-523zM596 1180h-4l-217 -632h438zM700 1486c-119 0 -151 114 -218 114c-49 0 -60 -59 -61 -99h-95c0 101 51 189 156 189c119 0 153 -114 218 -114c44 0 63 54 66 99h95c0 -87 -49 -189 -161 -189z" />
    <glyph glyph-name="Abrevegrave" unicode="&#x1eb0;" horiz-adv-x="1189" 
d="M188 0h-157l490 1364h147l489 -1364h-156l-145 425h-523zM596 1180h-4l-217 -632h438zM904 1720c0 -106 -110 -223 -310 -223s-309 117 -309 223h112c0 -59 59 -130 197 -130s199 71 199 130h111zM673 1744h-118l-176 201h146z" />
    <glyph glyph-name="Adotmacron" unicode="&#x1e0;" horiz-adv-x="1189" 
d="M188 0h-157l490 1364h147l489 -1364h-156l-145 425h-523zM596 1180h-4l-217 -632h438zM496 1581c0 54 44 98 98 98s98 -44 98 -98s-44 -98 -98 -98s-98 44 -98 98zM860 1797h-532v98h532v-98z" />
    <glyph glyph-name="Aringbelow" unicode="&#x1e00;" horiz-adv-x="1189" 
d="M188 0h-157l490 1364h147l489 -1364h-156l-145 425h-523zM596 1180h-4l-217 -632h438zM594 -490c-103 0 -185 79 -185 181s82 180 185 180c101 0 184 -78 184 -180s-83 -181 -184 -181zM489 -309c0 -59 46 -107 105 -107s104 48 104 107s-45 106 -104 106
s-105 -47 -105 -106z" />
    <glyph glyph-name="Acircumflex" unicode="&#xc2;" horiz-adv-x="1189" 
d="M188 0h-157l490 1364h147l489 -1364h-156l-145 425h-523zM596 1180h-4l-217 -632h438zM337 1514l215 289h84l215 -289h-128l-128 182h-2l-128 -182h-128z" />
    <glyph glyph-name="Acircumflexdotbelow" unicode="&#x1eac;" horiz-adv-x="1189" 
d="M188 0h-157l490 1364h147l489 -1364h-156l-145 425h-523zM596 1180h-4l-217 -632h438zM510 -275c0 52 38 90 86 90c49 0 86 -38 86 -90c0 -49 -37 -88 -86 -88c-48 0 -86 39 -86 88zM337 1514l215 289h84l215 -289h-128l-128 182h-2l-128 -182h-128z" />
    <glyph glyph-name="Acircumflexacute" unicode="&#x1ea4;" horiz-adv-x="1189" 
d="M188 0h-157l490 1364h147l489 -1364h-156l-145 425h-523zM596 1180h-4l-217 -632h438zM275 1514l281 204h76l281 -204h-155l-162 117h-4l-162 -117h-155zM770 1719l197 224h161l-249 -224h-109z" />
    <glyph glyph-name="Acircumflextilde" unicode="&#x1eaa;" horiz-adv-x="1189" 
d="M188 0h-157l490 1364h147l489 -1364h-156l-145 425h-523zM596 1180h-4l-217 -632h438zM275 1514l281 204h76l281 -204h-155l-162 117h-4l-162 -117h-155zM434 1790h-99c0 88 62 153 152 153c94 0 128 -84 191 -84c38 0 63 27 67 66h99c0 -77 -68 -159 -165 -159
c-89 0 -120 86 -184 86c-35 0 -60 -24 -61 -62z" />
    <glyph glyph-name="Acircumflexgrave" unicode="&#x1ea6;" horiz-adv-x="1189" 
d="M188 0h-157l490 1364h147l489 -1364h-156l-145 425h-523zM596 1180h-4l-217 -632h438zM275 1514l281 204h76l281 -204h-155l-162 117h-4l-162 -117h-155zM1016 1716h-110l-270 227h161z" />
    <glyph glyph-name="Acircumflexhookabove" unicode="&#x1ea8;" horiz-adv-x="1189" 
d="M188 0h-157l490 1364h147l489 -1364h-156l-145 425h-523zM596 1180h-4l-217 -632h438zM275 1514l281 204h76l281 -204h-155l-162 117h-4l-162 -117h-155zM711 1852v75c26 8 50 14 79 14c89 0 155 -52 155 -132c0 -68 -50 -113 -109 -131l-52 71c44 12 68 29 68 58
c0 36 -43 55 -77 55c-25 0 -43 -3 -64 -10z" />
    <glyph glyph-name="Abreve" unicode="&#x102;" horiz-adv-x="1189" 
d="M188 0h-157l490 1364h147l489 -1364h-156l-145 425h-523zM596 1180h-4l-217 -632h438zM312 1761h108c0 -87 54 -165 174 -165s173 78 173 165h108c-1 -116 -80 -262 -281 -262s-283 145 -282 262z" />
    <glyph glyph-name="Abreveacute" unicode="&#x1eae;" horiz-adv-x="1189" 
d="M188 0h-157l490 1364h147l489 -1364h-156l-145 425h-523zM596 1180h-4l-217 -632h438zM903 1720c0 -106 -109 -223 -310 -223c-200 0 -308 117 -308 223h111c0 -59 59 -130 197 -130c139 0 199 71 199 130h111zM509 1744l148 201h146l-176 -201h-118z" />
    <glyph glyph-name="Abrevetilde" unicode="&#x1eb4;" horiz-adv-x="1189" 
d="M188 0h-157l490 1364h147l489 -1364h-156l-145 425h-523zM596 1180h-4l-217 -632h438zM904 1720c0 -106 -110 -223 -310 -223c-201 0 -309 117 -309 223h111c0 -59 59 -130 198 -130c138 0 198 71 198 130h112zM434 1790h-99c0 88 62 153 152 153c94 0 128 -84 191 -84
c38 0 63 27 67 66h99c0 -77 -68 -159 -165 -159c-89 0 -120 86 -184 86c-35 0 -60 -24 -61 -62z" />
    <glyph glyph-name="Abrevehookabove" unicode="&#x1eb2;" horiz-adv-x="1189" 
d="M188 0h-157l490 1364h147l489 -1364h-156l-145 425h-523zM596 1180h-4l-217 -632h438zM904 1720c0 -106 -110 -223 -310 -223c-201 0 -309 117 -309 223h111c0 -59 59 -130 198 -130c138 0 198 71 198 130h112zM478 1852v75c25 8 50 14 78 14c89 0 156 -52 156 -132
c0 -68 -50 -113 -110 -131l-52 71c44 12 68 29 68 58c0 36 -43 55 -76 55c-25 0 -44 -3 -64 -10z" />
    <glyph glyph-name="Abrevedotbelow" unicode="&#x1eb6;" horiz-adv-x="1189" 
d="M188 0h-157l490 1364h147l489 -1364h-156l-145 425h-523zM596 1180h-4l-217 -632h438zM510 -275c0 52 38 90 86 90c49 0 86 -38 86 -90c0 -49 -37 -88 -86 -88c-48 0 -86 39 -86 88zM312 1761h108c0 -87 54 -165 174 -165s173 78 173 165h108c-1 -116 -80 -262 -281 -262
s-283 145 -282 262z" />
    <glyph glyph-name="Ainvertedbreve" unicode="&#x202;" horiz-adv-x="1189" 
d="M188 0h-157l490 1364h147l489 -1364h-156l-145 425h-523zM596 1180h-4l-217 -632h438zM594 1681c-120 0 -174 -79 -174 -166h-108c-1 117 81 264 282 264s280 -148 281 -264h-108c0 87 -53 166 -173 166z" />
    <glyph glyph-name="Acaron" unicode="&#x1cd;" horiz-adv-x="1189" 
d="M188 0h-157l490 1364h147l489 -1364h-156l-145 425h-523zM596 1180h-4l-217 -632h438zM337 1803h128l128 -182h2l128 182h128l-215 -290h-84z" />
    <glyph glyph-name="Adotaccent" unicode="&#x226;" horiz-adv-x="1189" 
d="M188 0h-157l490 1364h147l489 -1364h-156l-145 425h-523zM596 1180h-4l-217 -632h438zM496 1639c0 54 44 98 98 98s98 -44 98 -98s-44 -98 -98 -98s-98 44 -98 98z" />
    <glyph glyph-name="Adotbelow" unicode="&#x1ea0;" horiz-adv-x="1189" 
d="M188 0h-157l490 1364h147l489 -1364h-156l-145 425h-523zM596 1180h-4l-217 -632h438zM510 -275c0 52 38 90 86 90c49 0 86 -38 86 -90c0 -49 -37 -88 -86 -88c-48 0 -86 39 -86 88z" />
    <glyph glyph-name="Ahookabove" unicode="&#x1ea2;" horiz-adv-x="1189" 
d="M188 0h-157l490 1364h147l489 -1364h-156l-145 425h-523zM596 1180h-4l-217 -632h438zM472 1654v84c16 5 54 15 97 15c105 0 190 -49 190 -141c0 -95 -95 -136 -139 -151l-57 73c39 10 90 35 90 73c0 45 -46 59 -90 59c-43 0 -69 -6 -91 -12z" />
    <glyph glyph-name="Adblgrave" unicode="&#x200;" horiz-adv-x="1189" 
d="M188 0h-157l490 1364h147l489 -1364h-156l-145 425h-523zM596 1180h-4l-217 -632h438zM538 1514h-117l-234 268h157zM812 1514h-117l-235 268h157z" />
    <glyph glyph-name="Amacron" unicode="&#x100;" horiz-adv-x="1189" 
d="M188 0h-157l490 1364h147l489 -1364h-156l-145 425h-523zM596 1180h-4l-217 -632h438zM860 1526h-532v98h532v-98z" />
    <glyph glyph-name="Aogonek" unicode="&#x104;" horiz-adv-x="1189" 
d="M188 0h-157l490 1364h147l486 -1354c-115 -28 -190 -97 -190 -180c0 -62 44 -102 115 -102c25 0 47 3 81 10v-102c-25 -12 -68 -20 -120 -20c-129 0 -217 78 -217 197c0 94 61 175 163 230l-130 382h-523zM596 1180h-4l-217 -632h438z" />
    <glyph glyph-name="B" unicode="B" horiz-adv-x="1215" 
d="M170 0v1364h495c232 0 378 -129 378 -335c0 -158 -85 -262 -219 -304v-7c183 -24 297 -146 297 -338c0 -236 -177 -380 -473 -380h-478zM319 1229v-460h230c230 0 342 72 342 235c0 142 -92 225 -248 225h-324zM319 634v-498h258c276 0 392 72 392 241
c0 165 -115 257 -303 257h-347z" />
    <glyph glyph-name="Blinebelow" unicode="&#x1e06;" horiz-adv-x="1215" 
d="M170 0v1364h495c232 0 378 -129 378 -335c0 -158 -85 -262 -219 -304v-7c183 -24 297 -146 297 -338c0 -236 -177 -380 -473 -380h-478zM319 1229v-460h230c230 0 342 72 342 235c0 142 -92 225 -248 225h-324zM319 634v-498h258c276 0 392 72 392 241
c0 165 -115 257 -303 257h-347zM838 -325h-542v104h542v-104z" />
    <glyph glyph-name="Bdotbelow" unicode="&#x1e04;" horiz-adv-x="1215" 
d="M483 -275c0 52 38 90 86 90c49 0 86 -38 86 -90c0 -49 -37 -88 -86 -88c-48 0 -86 39 -86 88zM170 0v1364h495c232 0 378 -129 378 -335c0 -158 -85 -262 -219 -304v-7c183 -24 297 -146 297 -338c0 -236 -177 -380 -473 -380h-478zM319 1229v-460h230
c230 0 342 72 342 235c0 142 -92 225 -248 225h-324zM319 634v-498h258c276 0 392 72 392 241c0 165 -115 257 -303 257h-347z" />
    <glyph glyph-name="Bdotaccent" unicode="&#x1e02;" horiz-adv-x="1215" 
d="M469 1639c0 54 44 98 98 98s98 -44 98 -98s-44 -98 -98 -98s-98 44 -98 98zM170 0v1364h495c232 0 378 -129 378 -335c0 -158 -85 -262 -219 -304v-7c183 -24 297 -146 297 -338c0 -236 -177 -380 -473 -380h-478zM319 1229v-460h230c230 0 342 72 342 235
c0 142 -92 225 -248 225h-324zM319 634v-498h258c276 0 392 72 392 241c0 165 -115 257 -303 257h-347z" />
    <glyph glyph-name="C" unicode="C" horiz-adv-x="1243" 
d="M264 774v-191c0 -298 133 -477 381 -477c202 0 341 121 345 294h148c0 -245 -208 -429 -493 -429c-338 0 -529 232 -529 613v188c0 385 192 622 528 622c289 0 493 -195 493 -452h-148c-4 182 -141 316 -345 316c-246 0 -380 -181 -380 -484z" />
    <glyph glyph-name="Cacute" unicode="&#x106;" horiz-adv-x="1243" 
d="M691 1514h-117l188 273h155zM264 774v-191c0 -298 133 -477 381 -477c202 0 341 121 345 294h148c0 -245 -208 -429 -493 -429c-338 0 -529 232 -529 613v188c0 385 192 622 528 622c289 0 493 -195 493 -452h-148c-4 182 -141 316 -345 316c-246 0 -380 -181 -380 -484z
" />
    <glyph glyph-name="Ccaron" unicode="&#x10c;" horiz-adv-x="1243" 
d="M264 774v-191c0 -298 133 -477 381 -477c202 0 341 121 345 294h148c0 -245 -208 -429 -493 -429c-338 0 -529 232 -529 613v188c0 385 192 622 528 622c289 0 493 -195 493 -452h-148c-4 182 -141 316 -345 316c-246 0 -380 -181 -380 -484zM385 1803h128l128 -182h2
l128 182h128l-215 -290h-84z" />
    <glyph glyph-name="Ccircumflex" unicode="&#x108;" horiz-adv-x="1243" 
d="M264 774v-191c0 -298 133 -477 381 -477c202 0 341 121 345 294h148c0 -245 -208 -429 -493 -429c-338 0 -529 232 -529 613v188c0 385 192 622 528 622c289 0 493 -195 493 -452h-148c-4 182 -141 316 -345 316c-246 0 -380 -181 -380 -484zM385 1514l215 289h84
l215 -289h-128l-128 182h-2l-128 -182h-128z" />
    <glyph glyph-name="Cdotaccent" unicode="&#x10a;" horiz-adv-x="1243" 
d="M544 1639c0 54 44 98 98 98s98 -44 98 -98s-44 -98 -98 -98s-98 44 -98 98zM264 774v-191c0 -298 133 -477 381 -477c202 0 341 121 345 294h148c0 -245 -208 -429 -493 -429c-338 0 -529 232 -529 613v188c0 385 192 622 528 622c289 0 493 -195 493 -452h-148
c-4 182 -141 316 -345 316c-246 0 -380 -181 -380 -484z" />
    <glyph glyph-name="Ccedilla" unicode="&#xc7;" horiz-adv-x="1243" 
d="M616 -485c-47 0 -98 6 -129 15v97c28 -7 83 -14 117 -14c74 0 124 30 124 81c0 55 -42 76 -152 76h-51v71l50 133c-296 31 -459 258 -459 610v188c0 385 192 622 528 622c289 0 493 -195 493 -452h-148c-4 183 -142 316 -345 316c-246 0 -380 -181 -380 -484v-191
c0 -298 133 -477 381 -477c202 0 341 121 345 294h148c0 -233 -189 -413 -456 -428l-42 -113c133 0 214 -56 214 -159c0 -117 -92 -185 -238 -185z" />
    <glyph glyph-name="Ccedillaacute" unicode="&#x1e08;" horiz-adv-x="1243" 
d="M691 1514h-117l188 273h155zM616 -485c-47 0 -98 6 -129 15v97c28 -7 83 -14 117 -14c74 0 124 30 124 81c0 55 -42 76 -152 76h-51v71l50 133c-296 31 -459 258 -459 610v188c0 385 192 622 528 622c289 0 493 -195 493 -452h-148c-4 183 -142 316 -345 316
c-246 0 -380 -181 -380 -484v-191c0 -298 133 -477 381 -477c202 0 341 121 345 294h148c0 -233 -189 -413 -456 -428l-42 -113c133 0 214 -56 214 -159c0 -117 -92 -185 -238 -185z" />
    <glyph glyph-name="D" unicode="D" horiz-adv-x="1286" 
d="M170 1364h420c398 0 599 -235 599 -681s-201 -683 -599 -683h-420v1364zM319 1229v-1093h266c302 0 450 185 450 547c0 360 -147 546 -450 546h-266z" />
    <glyph glyph-name="Ddotaccent" unicode="&#x1e0a;" horiz-adv-x="1286" 
d="M494 1639c0 54 44 98 98 98s98 -44 98 -98s-44 -98 -98 -98s-98 44 -98 98zM170 1364h420c398 0 599 -235 599 -681s-201 -683 -599 -683h-420v1364zM319 1229v-1093h266c302 0 450 185 450 547c0 360 -147 546 -450 546h-266z" />
    <glyph glyph-name="Dcircumflexbelow" unicode="&#x1e12;" horiz-adv-x="1286" 
d="M170 1364h420c398 0 599 -235 599 -681s-201 -683 -599 -683h-420v1364zM319 1229v-1093h266c302 0 450 185 450 547c0 360 -147 546 -450 546h-266zM340 -407l206 292h92l206 -292h-124l-127 198h-2l-127 -198h-124z" />
    <glyph glyph-name="Dcommaaccent" unicode="&#x1e10;" horiz-adv-x="1286" 
d="M564 -488h-119l85 335h148zM170 1364h420c398 0 599 -235 599 -681s-201 -683 -599 -683h-420v1364zM319 1229v-1093h266c302 0 450 185 450 547c0 360 -147 546 -450 546h-266z" />
    <glyph glyph-name="Dlinebelow" unicode="&#x1e0e;" horiz-adv-x="1286" 
d="M863 -325h-542v104h542v-104zM170 1364h420c398 0 599 -235 599 -681s-201 -683 -599 -683h-420v1364zM319 1229v-1093h266c302 0 450 185 450 547c0 360 -147 546 -450 546h-266z" />
    <glyph glyph-name="Dcaron" unicode="&#x10e;" horiz-adv-x="1286" 
d="M335 1803h128l128 -182h2l128 182h128l-215 -290h-84zM170 1364h420c398 0 599 -235 599 -681s-201 -683 -599 -683h-420v1364zM319 1229v-1093h266c302 0 450 185 450 547c0 360 -147 546 -450 546h-266z" />
    <glyph glyph-name="Ddotbelow" unicode="&#x1e0c;" horiz-adv-x="1286" 
d="M508 -275c0 52 38 90 86 90c49 0 86 -38 86 -90c0 -49 -37 -88 -86 -88c-48 0 -86 39 -86 88zM170 1364h420c398 0 599 -235 599 -681s-201 -683 -599 -683h-420v1364zM319 1229v-1093h266c302 0 450 185 450 547c0 360 -147 546 -450 546h-266z" />
    <glyph glyph-name="Dcroat" unicode="&#x110;" horiz-adv-x="1360" 
d="M595 0h-420v633h-91v131h91v600h420c398 0 600 -235 600 -681s-201 -683 -600 -683zM324 136h266c303 0 450 185 450 547c0 360 -147 546 -450 546h-266v-465h391v-131h-391v-497z" />
    <glyph glyph-name="E" unicode="E" horiz-adv-x="1093" 
d="M975 136v-136h-805v1364h805v-135h-656v-464h620v-135h-620v-494h656z" />
    <glyph glyph-name="Egrave" unicode="&#xc8;" horiz-adv-x="1093" 
d="M637 1514h-117l-226 273h155zM975 136v-136h-805v1364h805v-135h-656v-464h620v-135h-620v-494h656z" />
    <glyph glyph-name="Edblgrave" unicode="&#x204;" horiz-adv-x="1093" 
d="M513 1514h-117l-234 268h157zM787 1514h-117l-235 268h157zM975 136v-136h-805v1364h805v-135h-656v-464h620v-135h-620v-494h656z" />
    <glyph glyph-name="Eacute" unicode="&#xc9;" horiz-adv-x="1093" 
d="M618 1514h-117l188 273h155zM975 136v-136h-805v1364h805v-135h-656v-464h620v-135h-620v-494h656z" />
    <glyph glyph-name="Ecircumflex" unicode="&#xca;" horiz-adv-x="1093" 
d="M312 1514l215 289h84l215 -289h-128l-128 182h-2l-128 -182h-128zM975 136v-136h-805v1364h805v-135h-656v-464h620v-135h-620v-494h656z" />
    <glyph glyph-name="Ecircumflexhookabove" unicode="&#x1ec2;" horiz-adv-x="1093" 
d="M975 136v-136h-805v1364h805v-135h-656v-464h620v-135h-620v-494h656zM250 1514l281 204h76l281 -204h-155l-162 117h-4l-162 -117h-155zM686 1852v75c26 8 50 14 79 14c89 0 155 -52 155 -132c0 -68 -50 -113 -109 -131l-52 71c44 12 68 29 68 58c0 36 -43 55 -77 55
c-25 0 -43 -3 -64 -10z" />
    <glyph glyph-name="Ecircumflexgrave" unicode="&#x1ec0;" horiz-adv-x="1093" 
d="M975 136v-136h-805v1364h805v-135h-656v-464h620v-135h-620v-494h656zM250 1514l281 204h76l281 -204h-155l-162 117h-4l-162 -117h-155zM991 1716h-110l-270 227h161z" />
    <glyph glyph-name="Ecircumflextilde" unicode="&#x1ec4;" horiz-adv-x="1093" 
d="M250 1514l281 204h76l281 -204h-155l-162 117h-4l-162 -117h-155zM409 1790h-99c0 88 62 153 152 153c94 0 128 -84 191 -84c38 0 63 27 67 66h99c0 -77 -68 -159 -165 -159c-89 0 -120 86 -184 86c-35 0 -60 -24 -61 -62zM975 136v-136h-805v1364h805v-135h-656v-464
h620v-135h-620v-494h656z" />
    <glyph glyph-name="Ecircumflexdotbelow" unicode="&#x1ec6;" horiz-adv-x="1093" 
d="M485 -275c0 52 38 90 86 90c49 0 86 -38 86 -90c0 -49 -37 -88 -86 -88c-48 0 -86 39 -86 88zM312 1514l215 289h84l215 -289h-128l-128 182h-2l-128 -182h-128zM975 136v-136h-805v1364h805v-135h-656v-464h620v-135h-620v-494h656z" />
    <glyph glyph-name="Ecircumflexacute" unicode="&#x1ebe;" horiz-adv-x="1093" 
d="M975 136v-136h-805v1364h805v-135h-656v-464h620v-135h-620v-494h656zM250 1514l281 204h76l281 -204h-155l-162 117h-4l-162 -117h-155zM745 1719l197 224h161l-249 -224h-109z" />
    <glyph glyph-name="Edieresis" unicode="&#xcb;" horiz-adv-x="1093" 
d="M419 1500c-46 0 -81 36 -81 84c0 50 35 85 81 85c47 0 82 -35 82 -85c0 -48 -35 -84 -82 -84zM718 1500c-45 0 -81 36 -81 84c0 50 36 85 81 85c48 0 82 -35 82 -85c0 -48 -34 -84 -82 -84zM975 136v-136h-805v1364h805v-135h-656v-464h620v-135h-620v-494h656z" />
    <glyph glyph-name="Edotbelow" unicode="&#x1eb8;" horiz-adv-x="1093" 
d="M485 -275c0 52 38 90 86 90c49 0 86 -38 86 -90c0 -49 -37 -88 -86 -88c-48 0 -86 39 -86 88zM975 136v-136h-805v1364h805v-135h-656v-464h620v-135h-620v-494h656z" />
    <glyph glyph-name="Einvertedbreve" unicode="&#x206;" horiz-adv-x="1093" 
d="M975 136v-136h-805v1364h805v-135h-656v-464h620v-135h-620v-494h656zM569 1681c-120 0 -174 -79 -174 -166h-108c-1 117 81 264 282 264s280 -148 281 -264h-108c0 87 -53 166 -173 166z" />
    <glyph glyph-name="Ehookabove" unicode="&#x1eba;" horiz-adv-x="1093" 
d="M975 136v-136h-805v1364h805v-135h-656v-464h620v-135h-620v-494h656zM447 1654v84c16 5 54 15 97 15c105 0 190 -49 190 -141c0 -95 -95 -136 -139 -151l-57 73c39 10 90 35 90 73c0 45 -46 59 -90 59c-43 0 -69 -6 -91 -12z" />
    <glyph glyph-name="Ecaron" unicode="&#x11a;" horiz-adv-x="1093" 
d="M312 1803h128l128 -182h2l128 182h128l-215 -290h-84zM975 136v-136h-805v1364h805v-135h-656v-464h620v-135h-620v-494h656z" />
    <glyph glyph-name="Emacron" unicode="&#x112;" horiz-adv-x="1093" 
d="M975 136v-136h-805v1364h805v-135h-656v-464h620v-135h-620v-494h656zM835 1526h-532v98h532v-98z" />
    <glyph glyph-name="Emacrongrave" unicode="&#x1e14;" horiz-adv-x="1093" 
d="M652 1731h-143l-289 200h178zM835 1526h-532v98h532v-98zM975 136v-136h-805v1364h805v-135h-656v-464h620v-135h-620v-494h656z" />
    <glyph glyph-name="Emacronacute" unicode="&#x1e16;" horiz-adv-x="1093" 
d="M486 1731l254 200h178l-289 -200h-143zM835 1526h-532v98h532v-98zM975 136v-136h-805v1364h805v-135h-656v-464h620v-135h-620v-494h656z" />
    <glyph glyph-name="Etilde" unicode="&#x1ebc;" horiz-adv-x="1093" 
d="M975 136v-136h-805v1364h805v-135h-656v-464h620v-135h-620v-494h656zM675 1486c-119 0 -151 114 -218 114c-49 0 -60 -59 -61 -99h-95c0 101 51 189 156 189c119 0 153 -114 218 -114c44 0 63 54 66 99h95c0 -87 -49 -189 -161 -189z" />
    <glyph glyph-name="Ecircumflexbelow" unicode="&#x1e18;" horiz-adv-x="1093" 
d="M975 136v-136h-805v1364h805v-135h-656v-464h620v-135h-620v-494h656zM317 -407l206 292h92l206 -292h-124l-127 198h-2l-127 -198h-124z" />
    <glyph glyph-name="Ebreve" unicode="&#x114;" horiz-adv-x="1093" 
d="M975 136v-136h-805v1364h805v-135h-656v-464h620v-135h-620v-494h656zM287 1761h108c0 -87 54 -165 174 -165s173 78 173 165h108c-1 -116 -80 -262 -281 -262s-283 145 -282 262z" />
    <glyph glyph-name="Etildebelow" unicode="&#x1e1a;" horiz-adv-x="1093" 
d="M676 -372c-125 0 -160 128 -230 128c-50 0 -63 -67 -64 -111h-99c0 108 53 205 163 205c126 0 161 -128 229 -128c48 0 68 63 71 111h100c0 -92 -53 -205 -170 -205zM975 136v-136h-805v1364h805v-135h-656v-464h620v-135h-620v-494h656z" />
    <glyph glyph-name="Edotaccent" unicode="&#x116;" horiz-adv-x="1093" 
d="M471 1639c0 54 44 98 98 98s98 -44 98 -98s-44 -98 -98 -98s-98 44 -98 98zM975 136v-136h-805v1364h805v-135h-656v-464h620v-135h-620v-494h656z" />
    <glyph glyph-name="Ecedilla" unicode="&#x228;" horiz-adv-x="1093" 
d="M566 -466c-59 -3 -119 7 -147 15v97c26 -8 83 -14 117 -14c57 0 123 19 123 84c0 70 -77 73 -151 73h-52v71l54 140h-340v1364h805v-135h-656v-464h620v-135h-620v-494h656v-136h-358l-45 -122c125 0 214 -50 214 -159c0 -125 -102 -180 -220 -185z" />
    <glyph glyph-name="Ecedillabreve" unicode="&#x1e1c;" horiz-adv-x="1093" 
d="M566 -466c-59 -3 -119 7 -147 15v97c26 -8 83 -14 117 -14c57 0 123 19 123 84c0 70 -77 73 -151 73h-52v71l54 140h-340v1364h805v-135h-656v-464h620v-135h-620v-494h656v-136h-358l-45 -122c125 0 214 -50 214 -159c0 -125 -102 -180 -220 -185zM287 1761h108
c0 -87 54 -165 174 -165s173 78 173 165h108c-1 -116 -80 -262 -281 -262s-283 145 -282 262z" />
    <glyph glyph-name="Eogonek" unicode="&#x118;" horiz-adv-x="1094" 
d="M976 -366c-25 -9 -66 -18 -110 -18c-115 0 -215 57 -215 189c0 87 52 152 126 195h-607v1364h805v-135h-657v-464h621v-135h-620v-494h656v-122c-87 -22 -195 -79 -195 -184c0 -66 45 -102 117 -102c27 0 59 5 79 10v-104z" />
    <glyph glyph-name="F" unicode="F" horiz-adv-x="1025" 
d="M319 0h-149v1364h792v-135h-643v-490h590v-136h-590v-603z" />
    <glyph glyph-name="Fdotaccent" unicode="&#x1e1e;" horiz-adv-x="1025" 
d="M463 1639c0 54 44 98 98 98s98 -44 98 -98s-44 -98 -98 -98s-98 44 -98 98zM319 0h-149v1364h792v-135h-643v-490h590v-136h-590v-603z" />
    <glyph glyph-name="G" unicode="G" horiz-adv-x="1267" 
d="M1146 959h-147c-22 180 -149 299 -351 299c-243 0 -384 -172 -384 -461v-208c0 -307 136 -483 390 -483c207 0 352 126 352 314v146h-370v135h515v-281c0 -261 -212 -449 -497 -449c-350 0 -538 224 -538 618v208c0 371 199 597 532 597c286 0 480 -178 498 -435z" />
    <glyph glyph-name="Gacute" unicode="&#x1f4;" horiz-adv-x="1267" 
d="M700 1514h-117l188 273h155zM1146 959h-147c-22 180 -149 299 -351 299c-243 0 -384 -172 -384 -461v-208c0 -307 136 -483 390 -483c207 0 352 126 352 314v146h-370v135h515v-281c0 -261 -212 -449 -497 -449c-350 0 -538 224 -538 618v208c0 371 199 597 532 597
c286 0 480 -178 498 -435z" />
    <glyph glyph-name="Gcaron" unicode="&#x1e6;" horiz-adv-x="1267" 
d="M394 1803h128l128 -182h2l128 182h128l-215 -290h-84zM1146 959h-147c-22 180 -149 299 -351 299c-243 0 -384 -172 -384 -461v-208c0 -307 136 -483 390 -483c207 0 352 126 352 314v146h-370v135h515v-281c0 -261 -212 -449 -497 -449c-350 0 -538 224 -538 618v208
c0 371 199 597 532 597c286 0 480 -178 498 -435z" />
    <glyph glyph-name="Gcircumflex" unicode="&#x11c;" horiz-adv-x="1267" 
d="M394 1514l215 289h84l215 -289h-128l-128 182h-2l-128 -182h-128zM1146 959h-147c-22 180 -149 299 -351 299c-243 0 -384 -172 -384 -461v-208c0 -307 136 -483 390 -483c207 0 352 126 352 314v146h-370v135h515v-281c0 -261 -212 -449 -497 -449
c-350 0 -538 224 -538 618v208c0 371 199 597 532 597c286 0 480 -178 498 -435z" />
    <glyph glyph-name="Gbreve" unicode="&#x11e;" horiz-adv-x="1267" 
d="M1146 959h-147c-22 180 -149 299 -351 299c-243 0 -384 -172 -384 -461v-208c0 -307 136 -483 390 -483c207 0 352 126 352 314v146h-370v135h515v-281c0 -261 -212 -449 -497 -449c-350 0 -538 224 -538 618v208c0 371 199 597 532 597c286 0 480 -178 498 -435z
M369 1761h108c0 -87 54 -165 174 -165s173 78 173 165h108c-1 -116 -80 -262 -281 -262s-283 145 -282 262z" />
    <glyph glyph-name="Gmacron" unicode="&#x1e20;" horiz-adv-x="1267" 
d="M1146 959h-147c-22 180 -149 299 -351 299c-243 0 -384 -172 -384 -461v-208c0 -307 136 -483 390 -483c207 0 352 126 352 314v146h-370v135h515v-281c0 -261 -212 -449 -497 -449c-350 0 -538 224 -538 618v208c0 371 199 597 532 597c286 0 480 -178 498 -435z
M917 1526h-532v98h532v-98z" />
    <glyph glyph-name="Gdotaccent" unicode="&#x120;" horiz-adv-x="1267" 
d="M553 1639c0 54 44 98 98 98s98 -44 98 -98s-44 -98 -98 -98s-98 44 -98 98zM1146 959h-147c-22 180 -149 299 -351 299c-243 0 -384 -172 -384 -461v-208c0 -307 136 -483 390 -483c207 0 352 126 352 314v146h-370v135h515v-281c0 -261 -212 -449 -497 -449
c-350 0 -538 224 -538 618v208c0 371 199 597 532 597c286 0 480 -178 498 -435z" />
    <glyph glyph-name="Gcommaaccent" unicode="&#x122;" horiz-adv-x="1267" 
d="M623 -488h-119l85 335h148zM1146 959h-147c-22 180 -149 299 -351 299c-243 0 -384 -172 -384 -461v-208c0 -307 136 -483 390 -483c207 0 352 126 352 314v146h-370v135h515v-281c0 -261 -212 -449 -497 -449c-350 0 -538 224 -538 618v208c0 371 199 597 532 597
c286 0 480 -178 498 -435z" />
    <glyph glyph-name="H" unicode="H" horiz-adv-x="1355" 
d="M1185 0h-149v641h-717v-641h-149v1364h149v-588h717v588h149v-1364z" />
    <glyph glyph-name="Hdieresis" unicode="&#x1e26;" horiz-adv-x="1355" 
d="M1185 0h-149v641h-717v-641h-149v1364h149v-588h717v588h149v-1364zM526 1500c-46 0 -81 36 -81 84c0 50 35 85 81 85c47 0 82 -35 82 -85c0 -48 -35 -84 -82 -84zM825 1500c-45 0 -81 36 -81 84c0 50 36 85 81 85c48 0 82 -35 82 -85c0 -48 -34 -84 -82 -84z" />
    <glyph glyph-name="Hcaron" unicode="&#x21e;" horiz-adv-x="1355" 
d="M1185 0h-149v641h-717v-641h-149v1364h149v-588h717v588h149v-1364zM418 1803h128l128 -182h2l128 182h128l-215 -290h-84z" />
    <glyph glyph-name="Hcircumflex" unicode="&#x124;" horiz-adv-x="1355" 
d="M1185 0h-149v641h-717v-641h-149v1364h149v-588h717v588h149v-1364zM419 1514l215 289h84l215 -289h-128l-128 182h-2l-128 -182h-128z" />
    <glyph glyph-name="Hdotbelow" unicode="&#x1e24;" horiz-adv-x="1355" 
d="M1185 0h-149v641h-717v-641h-149v1364h149v-588h717v588h149v-1364zM591 -275c0 52 38 90 86 90c49 0 86 -38 86 -90c0 -49 -37 -88 -86 -88c-48 0 -86 39 -86 88z" />
    <glyph glyph-name="Hdotaccent" unicode="&#x1e22;" horiz-adv-x="1355" 
d="M1185 0h-149v641h-717v-641h-149v1364h149v-588h717v588h149v-1364zM579 1639c0 54 44 98 98 98s98 -44 98 -98s-44 -98 -98 -98s-98 44 -98 98z" />
    <glyph glyph-name="Hbrevebelow" unicode="&#x1e2a;" horiz-adv-x="1355" 
d="M1185 0h-149v641h-717v-641h-149v1364h149v-588h717v588h149v-1364zM858 -145h109c0 -118 -77 -264 -290 -264s-299 142 -299 264h117c0 -87 58 -166 182 -166s181 79 181 166z" />
    <glyph glyph-name="Hcedilla" unicode="&#x1e28;" horiz-adv-x="1355" 
d="M251 -466c-49 0 -96 5 -129 15v97c25 -7 81 -14 117 -14c78 0 124 27 124 81s-42 76 -152 76h-51v71l53 140h-43v1364h149v-588h717v588h149v-1364h-149v641h-717v-641l-44 -122c133 0 214 -56 214 -159c0 -117 -93 -185 -238 -185z" />
    <glyph glyph-name="Hbar" unicode="&#x126;" horiz-adv-x="1357" 
d="M319 749h717v256h-717v-256zM319 614v-614h-149v1005h-116v118h116v241h149v-241h717v241h149v-241h117v-118h-117v-1005h-149v614h-717z" />
    <glyph glyph-name="I" unicode="I" horiz-adv-x="493" 
d="M321 0h-149v1364h149v-1364z" />
    <glyph glyph-name="Idotaccent" unicode="&#x130;" horiz-adv-x="493" 
d="M321 0h-149v1364h149v-1364zM148 1639c0 54 44 98 98 98s98 -44 98 -98s-44 -98 -98 -98s-98 44 -98 98z" />
    <glyph glyph-name="Igrave" unicode="&#xcc;" horiz-adv-x="493" 
d="M321 0h-149v1364h149v-1364zM314 1514h-117l-226 273h155z" />
    <glyph glyph-name="Idblgrave" unicode="&#x208;" horiz-adv-x="493" 
d="M321 0h-149v1364h149v-1364zM190 1514h-117l-234 268h157zM464 1514h-117l-235 268h157z" />
    <glyph glyph-name="Iacute" unicode="&#xcd;" horiz-adv-x="493" 
d="M321 0h-149v1364h149v-1364zM295 1514h-117l188 273h155z" />
    <glyph glyph-name="Icircumflex" unicode="&#xce;" horiz-adv-x="494" 
d="M322 0h-149v1364h149v-1364zM-11 1514l215 289h84l215 -289h-128l-128 182h-2l-128 -182h-128z" />
    <glyph glyph-name="Icaron" unicode="&#x1cf;" horiz-adv-x="493" 
d="M322 0h-149v1364h149v-1364zM-12 1803h128l128 -182h2l128 182h128l-215 -290h-84z" />
    <glyph glyph-name="Idieresis" unicode="&#xcf;" horiz-adv-x="493" 
d="M321 0h-149v1364h149v-1364zM96 1500c-46 0 -81 36 -81 84c0 50 35 85 81 85c47 0 82 -35 82 -85c0 -48 -35 -84 -82 -84zM395 1500c-45 0 -81 36 -81 84c0 50 36 85 81 85c48 0 82 -35 82 -85c0 -48 -34 -84 -82 -84z" />
    <glyph glyph-name="Idieresisacute" unicode="&#x1e2e;" horiz-adv-x="493" 
d="M321 0h-149v1364h149v-1364zM165 1731l254 200h178l-289 -200h-143zM96 1500c-46 0 -81 36 -81 84c0 50 35 85 81 85c47 0 82 -35 82 -85c0 -48 -35 -84 -82 -84zM395 1500c-45 0 -81 36 -81 84c0 50 36 85 81 85c48 0 82 -35 82 -85c0 -48 -34 -84 -82 -84z" />
    <glyph glyph-name="Ibreve" unicode="&#x12c;" horiz-adv-x="493" 
d="M321 0h-149v1364h149v-1364zM-36 1761h108c0 -87 54 -165 174 -165s173 78 173 165h108c-1 -116 -80 -262 -281 -262s-283 145 -282 262z" />
    <glyph glyph-name="Idotbelow" unicode="&#x1eca;" horiz-adv-x="493" 
d="M321 0h-149v1364h149v-1364zM162 -275c0 52 38 90 86 90c49 0 86 -38 86 -90c0 -49 -37 -88 -86 -88c-48 0 -86 39 -86 88z" />
    <glyph glyph-name="Iinvertedbreve" unicode="&#x20a;" horiz-adv-x="493" 
d="M321 0h-149v1364h149v-1364zM246 1681c-120 0 -174 -79 -174 -166h-108c-1 117 81 264 282 264s280 -148 281 -264h-108c0 87 -53 166 -173 166z" />
    <glyph glyph-name="Imacron" unicode="&#x12a;" horiz-adv-x="493" 
d="M321 0h-149v1364h149v-1364zM512 1526h-532v98h532v-98z" />
    <glyph glyph-name="Itildebelow" unicode="&#x1e2c;" horiz-adv-x="493" 
d="M321 0h-149v1364h149v-1364zM353 -372c-125 0 -160 128 -230 128c-50 0 -63 -67 -64 -111h-99c0 108 53 205 163 205c126 0 161 -128 229 -128c48 0 68 63 71 111h100c0 -92 -53 -205 -170 -205z" />
    <glyph glyph-name="Ihookabove" unicode="&#x1ec8;" horiz-adv-x="493" 
d="M321 0h-149v1364h149v-1364zM124 1654v84c16 5 54 15 97 15c105 0 190 -49 190 -141c0 -95 -95 -136 -139 -151l-57 73c39 10 90 35 90 73c0 45 -46 59 -90 59c-43 0 -69 -6 -91 -12z" />
    <glyph glyph-name="Itilde" unicode="&#x128;" horiz-adv-x="493" 
d="M321 0h-149v1364h149v-1364zM353 1486c-119 0 -151 114 -218 114c-49 0 -60 -59 -61 -99h-95c0 101 51 189 156 189c119 0 153 -114 218 -114c44 0 63 54 66 99h95c0 -87 -49 -189 -161 -189z" />
    <glyph glyph-name="Iogonek" unicode="&#x12e;" horiz-adv-x="493" 
d="M348 -364c-16 -9 -59 -20 -113 -20c-123 0 -214 61 -214 190c0 123 83 192 151 228v1330h149v-1364c-78 -26 -169 -76 -169 -170c0 -67 47 -102 115 -102c23 0 57 4 81 10v-102z" />
    <glyph glyph-name="J" unicode="J" horiz-adv-x="946" 
d="M29 300h146c4 -106 76 -192 223 -192c156 0 235 94 235 287v969h149v-969c0 -272 -140 -423 -384 -423c-225 0 -369 140 -369 328z" />
    <glyph glyph-name="Jcircumflex" unicode="&#x134;" horiz-adv-x="946" 
d="M29 300h146c4 -106 76 -192 223 -192c156 0 235 94 235 287v969h149v-969c0 -272 -140 -423 -384 -423c-225 0 -369 140 -369 328zM449 1514l215 289h84l215 -289h-128l-128 182h-2l-128 -182h-128z" />
    <glyph glyph-name="K" unicode="K" horiz-adv-x="1168" 
d="M1121 1364l-518 -583l546 -781h-192l-466 678l-172 -186v-492h-149v1364h149v-676h6l616 676h180z" />
    <glyph glyph-name="Kacute" unicode="&#x1e30;" horiz-adv-x="1168" 
d="M608 1514h-117l188 273h155zM1121 1364l-518 -583l546 -781h-192l-466 678l-172 -186v-492h-149v1364h149v-676h6l616 676h180z" />
    <glyph glyph-name="Kcaron" unicode="&#x1e8;" horiz-adv-x="1168" 
d="M1121 1364l-518 -583l546 -781h-192l-466 678l-172 -186v-492h-149v1364h149v-676h6l616 676h180zM302 1803h128l128 -182h2l128 182h128l-215 -290h-84z" />
    <glyph glyph-name="Kdotbelow" unicode="&#x1e32;" horiz-adv-x="1168" 
d="M497 -275c0 52 38 90 86 90c49 0 86 -38 86 -90c0 -49 -37 -88 -86 -88c-48 0 -86 39 -86 88zM1121 1364l-518 -583l546 -781h-192l-466 678l-172 -186v-492h-149v1364h149v-676h6l616 676h180z" />
    <glyph glyph-name="Klinebelow" unicode="&#x1e34;" horiz-adv-x="1168" 
d="M1121 1364l-518 -583l546 -781h-192l-466 678l-172 -186v-492h-149v1364h149v-676h6l616 676h180zM852 -325h-542v104h542v-104z" />
    <glyph glyph-name="Kcommaaccent" unicode="&#x136;" horiz-adv-x="1168" 
d="M1121 1364l-518 -583l546 -781h-192l-466 678l-172 -186v-492h-149v1364h149v-676h6l616 676h180zM553 -488h-119l85 335h148z" />
    <glyph glyph-name="L" unicode="L" horiz-adv-x="988" 
d="M962 136v-136h-792v1364h149v-1228h643z" />
    <glyph glyph-name="Lacute" unicode="&#x139;" horiz-adv-x="988" 
d="M292 1514h-117l188 273h155zM962 136v-136h-792v1364h149v-1228h643z" />
    <glyph glyph-name="Lcircumflexbelow" unicode="&#x1e3c;" horiz-adv-x="988" 
d="M962 136v-136h-792v1364h149v-1228h643zM251 -407l206 292h92l206 -292h-124l-127 198h-2l-127 -198h-124z" />
    <glyph glyph-name="Ldotbelow" unicode="&#x1e36;" horiz-adv-x="988" 
d="M419 -275c0 52 38 90 86 90c49 0 86 -38 86 -90c0 -49 -37 -88 -86 -88c-48 0 -86 39 -86 88zM962 136v-136h-792v1364h149v-1228h643z" />
    <glyph glyph-name="Ldotbelowmacron" unicode="&#x1e38;" horiz-adv-x="988" 
d="M419 -275c0 52 38 90 86 90c49 0 86 -38 86 -90c0 -49 -37 -88 -86 -88c-48 0 -86 39 -86 88zM962 136v-136h-792v1364h149v-1228h643zM509 1526h-532v98h532v-98z" />
    <glyph glyph-name="Llinebelow" unicode="&#x1e3a;" horiz-adv-x="988" 
d="M774 -325h-542v104h542v-104zM962 136v-136h-792v1364h149v-1228h643z" />
    <glyph glyph-name="Lcommaaccent" unicode="&#x13b;" horiz-adv-x="988" 
d="M475 -488h-119l85 335h148zM962 136v-136h-792v1364h149v-1228h643z" />
    <glyph glyph-name="Lcaron" unicode="&#x13d;" horiz-adv-x="988" 
d="M569 1437h147l-47 -488h-100v488zM962 136v-136h-792v1364h149v-1228h643z" />
    <glyph glyph-name="Lslash" unicode="&#x141;" horiz-adv-x="988" 
d="M962 0h-792v549l-133 -79v149l133 78v667h149v-581l395 233v-152l-395 -230v-498h643v-136z" />
    <glyph glyph-name="M" unicode="M" horiz-adv-x="1577" 
d="M310 0h-135v1364h143l469 -1093h4l468 1093h143v-1364h-135v1030h-5l-406 -925h-135l-407 925h-4v-1030z" />
    <glyph glyph-name="Macute" unicode="&#x1e3e;" horiz-adv-x="1577" 
d="M837 1514h-117l188 273h155zM310 0h-135v1364h143l469 -1093h4l468 1093h143v-1364h-135v1030h-5l-406 -925h-135l-407 925h-4v-1030z" />
    <glyph glyph-name="Mdotaccent" unicode="&#x1e40;" horiz-adv-x="1577" 
d="M690 1639c0 54 44 98 98 98s98 -44 98 -98s-44 -98 -98 -98s-98 44 -98 98zM310 0h-135v1364h143l469 -1093h4l468 1093h143v-1364h-135v1030h-5l-406 -925h-135l-407 925h-4v-1030z" />
    <glyph glyph-name="Mdotbelow" unicode="&#x1e42;" horiz-adv-x="1577" 
d="M702 -275c0 52 38 90 86 90c49 0 86 -38 86 -90c0 -49 -37 -88 -86 -88c-48 0 -86 39 -86 88zM310 0h-135v1364h143l469 -1093h4l468 1093h143v-1364h-135v1030h-5l-406 -925h-135l-407 925h-4v-1030z" />
    <glyph glyph-name="N" unicode="N" horiz-adv-x="1355" 
d="M314 0h-144v1364h149l718 -1108h4v1108h144v-1364h-149l-719 1108h-3v-1108z" />
    <glyph glyph-name="Ngrave" unicode="&#x1f8;" horiz-adv-x="1355" 
d="M745 1514h-117l-226 273h155zM314 0h-144v1364h149l718 -1108h4v1108h144v-1364h-149l-719 1108h-3v-1108z" />
    <glyph glyph-name="Nacute" unicode="&#x143;" horiz-adv-x="1355" 
d="M726 1514h-117l188 273h155zM314 0h-144v1364h149l718 -1108h4v1108h144v-1364h-149l-719 1108h-3v-1108z" />
    <glyph glyph-name="Ntilde" unicode="&#xd1;" horiz-adv-x="1355" 
d="M783 1486c-119 0 -151 114 -218 114c-49 0 -60 -59 -61 -99h-95c0 101 51 189 156 189c119 0 153 -114 218 -114c44 0 63 54 66 99h95c0 -87 -49 -189 -161 -189zM314 0h-144v1364h149l718 -1108h4v1108h144v-1364h-149l-719 1108h-3v-1108z" />
    <glyph glyph-name="Ndotbelow" unicode="&#x1e46;" horiz-adv-x="1355" 
d="M593 -275c0 52 38 90 86 90c49 0 86 -38 86 -90c0 -49 -37 -88 -86 -88c-48 0 -86 39 -86 88zM314 0h-144v1364h149l718 -1108h4v1108h144v-1364h-149l-719 1108h-3v-1108z" />
    <glyph glyph-name="Ndotaccent" unicode="&#x1e44;" horiz-adv-x="1355" 
d="M579 1639c0 54 44 98 98 98s98 -44 98 -98s-44 -98 -98 -98s-98 44 -98 98zM314 0h-144v1364h149l718 -1108h4v1108h144v-1364h-149l-719 1108h-3v-1108z" />
    <glyph glyph-name="Ncaron" unicode="&#x147;" horiz-adv-x="1355" 
d="M420 1803h128l128 -182h2l128 182h128l-215 -290h-84zM314 0h-144v1364h149l718 -1108h4v1108h144v-1364h-149l-719 1108h-3v-1108z" />
    <glyph glyph-name="Ncircumflexbelow" unicode="&#x1e4a;" horiz-adv-x="1355" 
d="M314 0h-144v1364h149l718 -1108h4v1108h144v-1364h-149l-719 1108h-3v-1108zM425 -407l206 292h92l206 -292h-124l-127 198h-2l-127 -198h-124z" />
    <glyph glyph-name="Nlinebelow" unicode="&#x1e48;" horiz-adv-x="1355" 
d="M948 -325h-542v104h542v-104zM314 0h-144v1364h149l718 -1108h4v1108h144v-1364h-149l-719 1108h-3v-1108z" />
    <glyph glyph-name="Ncommaaccent" unicode="&#x145;" horiz-adv-x="1355" 
d="M649 -488h-119l85 335h148zM314 0h-144v1364h149l718 -1108h4v1108h144v-1364h-149l-719 1108h-3v-1108z" />
    <glyph glyph-name="O" unicode="O" horiz-adv-x="1308" 
d="M265 782v-212c0 -312 167 -464 389 -464c224 0 390 152 390 464v212c0 312 -167 476 -390 476c-222 0 -389 -164 -389 -476zM116 571v210c0 384 214 613 540 613s536 -229 536 -613v-210c0 -383 -213 -600 -540 -600c-326 0 -536 217 -536 600z" />
    <glyph glyph-name="Odieresis" unicode="&#xd6;" horiz-adv-x="1308" 
d="M502 1500c-46 0 -81 36 -81 84c0 50 35 85 81 85c47 0 82 -35 82 -85c0 -48 -35 -84 -82 -84zM801 1500c-45 0 -81 36 -81 84c0 50 36 85 81 85c48 0 82 -35 82 -85c0 -48 -34 -84 -82 -84zM265 782v-212c0 -312 167 -464 389 -464c224 0 390 152 390 464v212
c0 312 -167 476 -390 476c-222 0 -389 -164 -389 -476zM116 571v210c0 384 214 613 540 613s536 -229 536 -613v-210c0 -383 -213 -600 -540 -600c-326 0 -536 217 -536 600z" />
    <glyph glyph-name="Oslash" unicode="&#xd8;" horiz-adv-x="1306" 
d="M651 -29c-161 0 -293 52 -385 152l-102 -127l-88 72l120 149c-51 94 -80 212 -80 354v210c0 384 213 613 538 613c155 0 284 -53 376 -148l102 126l92 -66l-124 -152c59 -98 91 -224 91 -373v-210c0 -383 -214 -600 -540 -600zM264 570c0 -87 13 -161 36 -224l637 784
c-70 84 -169 128 -285 128c-222 0 -388 -164 -388 -476v-212zM652 106c224 0 390 152 390 464v212c0 96 -16 177 -44 244l-638 -787c70 -88 173 -133 292 -133z" />
    <glyph glyph-name="Otilde" unicode="&#xd5;" horiz-adv-x="1308" 
d="M265 782v-212c0 -312 167 -464 389 -464c224 0 390 152 390 464v212c0 312 -167 476 -390 476c-222 0 -389 -164 -389 -476zM116 571v210c0 384 214 613 540 613s536 -229 536 -613v-210c0 -383 -213 -600 -540 -600c-326 0 -536 217 -536 600zM758 1486
c-119 0 -151 114 -218 114c-49 0 -60 -59 -61 -99h-95c0 101 51 189 156 189c119 0 153 -114 218 -114c44 0 63 54 66 99h95c0 -87 -49 -189 -161 -189z" />
    <glyph glyph-name="Oacute" unicode="&#xd3;" horiz-adv-x="1308" 
d="M701 1514h-117l188 273h155zM265 782v-212c0 -312 167 -464 389 -464c224 0 390 152 390 464v212c0 312 -167 476 -390 476c-222 0 -389 -164 -389 -476zM116 571v210c0 384 214 613 540 613s536 -229 536 -613v-210c0 -383 -213 -600 -540 -600
c-326 0 -536 217 -536 600z" />
    <glyph glyph-name="Ocircumflex" unicode="&#xd4;" horiz-adv-x="1308" 
d="M395 1514l215 289h84l215 -289h-128l-128 182h-2l-128 -182h-128zM265 782v-212c0 -312 167 -464 389 -464c224 0 390 152 390 464v212c0 312 -167 476 -390 476c-222 0 -389 -164 -389 -476zM116 571v210c0 384 214 613 540 613s536 -229 536 -613v-210
c0 -383 -213 -600 -540 -600c-326 0 -536 217 -536 600z" />
    <glyph glyph-name="Ograve" unicode="&#xd2;" horiz-adv-x="1308" 
d="M720 1514h-117l-226 273h155zM265 782v-212c0 -312 167 -464 389 -464c224 0 390 152 390 464v212c0 312 -167 476 -390 476c-222 0 -389 -164 -389 -476zM116 571v210c0 384 214 613 540 613s536 -229 536 -613v-210c0 -383 -213 -600 -540 -600
c-326 0 -536 217 -536 600z" />
    <glyph glyph-name="Ocircumflexhookabove" unicode="&#x1ed4;" horiz-adv-x="1308" 
d="M333 1514l281 204h76l281 -204h-155l-162 117h-4l-162 -117h-155zM769 1852v75c26 8 50 14 79 14c89 0 155 -52 155 -132c0 -68 -50 -113 -109 -131l-52 71c44 12 68 29 68 58c0 36 -43 55 -77 55c-25 0 -43 -3 -64 -10zM265 782v-212c0 -312 167 -464 389 -464
c224 0 390 152 390 464v212c0 312 -167 476 -390 476c-222 0 -389 -164 -389 -476zM116 571v210c0 384 214 613 540 613s536 -229 536 -613v-210c0 -383 -213 -600 -540 -600c-326 0 -536 217 -536 600z" />
    <glyph glyph-name="Ocircumflexgrave" unicode="&#x1ed2;" horiz-adv-x="1308" 
d="M333 1514l281 204h76l281 -204h-155l-162 117h-4l-162 -117h-155zM1074 1716h-110l-270 227h161zM265 782v-212c0 -312 167 -464 389 -464c224 0 390 152 390 464v212c0 312 -167 476 -390 476c-222 0 -389 -164 -389 -476zM116 571v210c0 384 214 613 540 613
s536 -229 536 -613v-210c0 -383 -213 -600 -540 -600c-326 0 -536 217 -536 600z" />
    <glyph glyph-name="Odotbelow" unicode="&#x1ecc;" horiz-adv-x="1308" 
d="M568 -275c0 52 38 90 86 90c49 0 86 -38 86 -90c0 -49 -37 -88 -86 -88c-48 0 -86 39 -86 88zM265 782v-212c0 -312 167 -464 389 -464c224 0 390 152 390 464v212c0 312 -167 476 -390 476c-222 0 -389 -164 -389 -476zM116 571v210c0 384 214 613 540 613
s536 -229 536 -613v-210c0 -383 -213 -600 -540 -600c-326 0 -536 217 -536 600z" />
    <glyph glyph-name="Odblgrave" unicode="&#x20c;" horiz-adv-x="1308" 
d="M596 1514h-117l-234 268h157zM870 1514h-117l-235 268h157zM265 782v-212c0 -312 167 -464 389 -464c224 0 390 152 390 464v212c0 312 -167 476 -390 476c-222 0 -389 -164 -389 -476zM116 571v210c0 384 214 613 540 613s536 -229 536 -613v-210
c0 -383 -213 -600 -540 -600c-326 0 -536 217 -536 600z" />
    <glyph glyph-name="Otildeacute" unicode="&#x1e4c;" horiz-adv-x="1308" 
d="M265 782v-212c0 -312 167 -464 389 -464c224 0 390 152 390 464v212c0 312 -167 476 -390 476c-222 0 -389 -164 -389 -476zM116 571v210c0 384 214 613 540 613s536 -229 536 -613v-210c0 -383 -213 -600 -540 -600c-326 0 -536 217 -536 600zM558 1731l254 200h178
l-289 -200h-143zM758 1486c-119 0 -151 114 -218 114c-49 0 -60 -59 -61 -99h-95c0 101 51 189 156 189c119 0 153 -114 218 -114c44 0 63 54 66 99h95c0 -87 -49 -189 -161 -189z" />
    <glyph glyph-name="Omacronacute" unicode="&#x1e52;" horiz-adv-x="1308" 
d="M569 1731l254 200h178l-289 -200h-143zM918 1526h-532v98h532v-98zM265 782v-212c0 -312 167 -464 389 -464c224 0 390 152 390 464v212c0 312 -167 476 -390 476c-222 0 -389 -164 -389 -476zM116 571v210c0 384 214 613 540 613s536 -229 536 -613v-210
c0 -383 -213 -600 -540 -600c-326 0 -536 217 -536 600z" />
    <glyph glyph-name="Ocircumflextilde" unicode="&#x1ed6;" horiz-adv-x="1308" 
d="M333 1514l281 204h76l281 -204h-155l-162 117h-4l-162 -117h-155zM492 1790h-99c0 88 62 153 152 153c94 0 128 -84 191 -84c38 0 63 27 67 66h99c0 -77 -68 -159 -165 -159c-89 0 -120 86 -184 86c-35 0 -60 -24 -61 -62zM265 782v-212c0 -312 167 -464 389 -464
c224 0 390 152 390 464v212c0 312 -167 476 -390 476c-222 0 -389 -164 -389 -476zM116 571v210c0 384 214 613 540 613s536 -229 536 -613v-210c0 -383 -213 -600 -540 -600c-326 0 -536 217 -536 600z" />
    <glyph glyph-name="Odotaccentmacron" unicode="&#x230;" horiz-adv-x="1308" 
d="M554 1581c0 54 44 98 98 98s98 -44 98 -98s-44 -98 -98 -98s-98 44 -98 98zM918 1797h-532v98h532v-98zM265 782v-212c0 -312 167 -464 389 -464c224 0 390 152 390 464v212c0 312 -167 476 -390 476c-222 0 -389 -164 -389 -476zM116 571v210c0 384 214 613 540 613
s536 -229 536 -613v-210c0 -383 -213 -600 -540 -600c-326 0 -536 217 -536 600z" />
    <glyph glyph-name="Omacrongrave" unicode="&#x1e50;" horiz-adv-x="1308" 
d="M735 1731h-143l-289 200h178zM918 1526h-532v98h532v-98zM265 782v-212c0 -312 167 -464 389 -464c224 0 390 152 390 464v212c0 312 -167 476 -390 476c-222 0 -389 -164 -389 -476zM116 571v210c0 384 214 613 540 613s536 -229 536 -613v-210
c0 -383 -213 -600 -540 -600c-326 0 -536 217 -536 600z" />
    <glyph glyph-name="Ocaron" unicode="&#x1d1;" horiz-adv-x="1308" 
d="M395 1803h128l128 -182h2l128 182h128l-215 -290h-84zM265 782v-212c0 -312 167 -464 389 -464c224 0 390 152 390 464v212c0 312 -167 476 -390 476c-222 0 -389 -164 -389 -476zM116 571v210c0 384 214 613 540 613s536 -229 536 -613v-210c0 -383 -213 -600 -540 -600
c-326 0 -536 217 -536 600z" />
    <glyph glyph-name="Oslashacute" unicode="&#x1fe;" horiz-adv-x="1306" 
d="M651 -29c-161 0 -293 52 -385 152l-102 -127l-88 72l120 149c-51 94 -80 212 -80 354v210c0 384 213 613 538 613c155 0 284 -53 376 -148l102 126l92 -66l-124 -152c59 -98 91 -224 91 -373v-210c0 -383 -214 -600 -540 -600zM264 570c0 -87 13 -161 36 -224l637 784
c-70 84 -169 128 -285 128c-222 0 -388 -164 -388 -476v-212zM652 106c224 0 390 152 390 464v212c0 96 -16 177 -44 244l-638 -787c70 -88 173 -133 292 -133zM701 1514h-117l188 273h155z" />
    <glyph glyph-name="Ohungarumlaut" unicode="&#x150;" horiz-adv-x="1308" 
d="M434 1514l194 268h157l-233 -268h-118zM708 1514l194 268h157l-234 -268h-117zM265 782v-212c0 -312 167 -464 389 -464c224 0 390 152 390 464v212c0 312 -167 476 -390 476c-222 0 -389 -164 -389 -476zM116 571v210c0 384 214 613 540 613s536 -229 536 -613v-210
c0 -383 -213 -600 -540 -600c-326 0 -536 217 -536 600z" />
    <glyph glyph-name="Obreve" unicode="&#x14e;" horiz-adv-x="1308" 
d="M265 782v-212c0 -312 167 -464 389 -464c224 0 390 152 390 464v212c0 312 -167 476 -390 476c-222 0 -389 -164 -389 -476zM116 571v210c0 384 214 613 540 613s536 -229 536 -613v-210c0 -383 -213 -600 -540 -600c-326 0 -536 217 -536 600zM370 1761h108
c0 -87 54 -165 174 -165s173 78 173 165h108c-1 -116 -80 -262 -281 -262s-283 145 -282 262z" />
    <glyph glyph-name="Oinvertedbreve" unicode="&#x20e;" horiz-adv-x="1308" 
d="M652 1681c-120 0 -174 -79 -174 -166h-108c-1 117 81 264 282 264s280 -148 281 -264h-108c0 87 -53 166 -173 166zM265 782v-212c0 -312 167 -464 389 -464c224 0 390 152 390 464v212c0 312 -167 476 -390 476c-222 0 -389 -164 -389 -476zM116 571v210
c0 384 214 613 540 613s536 -229 536 -613v-210c0 -383 -213 -600 -540 -600c-326 0 -536 217 -536 600z" />
    <glyph glyph-name="Ohookabove" unicode="&#x1ece;" horiz-adv-x="1308" 
d="M530 1654v84c16 5 54 15 97 15c105 0 190 -49 190 -141c0 -95 -95 -136 -139 -151l-57 73c39 10 90 35 90 73c0 45 -46 59 -90 59c-43 0 -69 -6 -91 -12zM265 782v-212c0 -312 167 -464 389 -464c224 0 390 152 390 464v212c0 312 -167 476 -390 476
c-222 0 -389 -164 -389 -476zM116 571v210c0 384 214 613 540 613s536 -229 536 -613v-210c0 -383 -213 -600 -540 -600c-326 0 -536 217 -536 600z" />
    <glyph glyph-name="Odieresismacron" unicode="&#x22a;" horiz-adv-x="1308" 
d="M265 782v-212c0 -312 167 -464 389 -464c224 0 390 152 390 464v212c0 312 -167 476 -390 476c-222 0 -389 -164 -389 -476zM116 571v210c0 384 214 613 540 613s536 -229 536 -613v-210c0 -383 -213 -600 -540 -600c-326 0 -536 217 -536 600zM502 1500
c-46 0 -81 36 -81 84c0 50 35 85 81 85c47 0 82 -35 82 -85c0 -48 -35 -84 -82 -84zM801 1500c-45 0 -81 36 -81 84c0 50 36 85 81 85c48 0 82 -35 82 -85c0 -48 -34 -84 -82 -84zM918 1797h-532v98h532v-98z" />
    <glyph glyph-name="Otildemacron" unicode="&#x22c;" horiz-adv-x="1308" 
d="M758 1486c-119 0 -151 114 -218 114c-49 0 -60 -59 -61 -99h-95c0 101 51 189 156 189c119 0 153 -114 218 -114c44 0 63 54 66 99h95c0 -87 -49 -189 -161 -189zM918 1797h-532v98h532v-98zM265 782v-212c0 -312 167 -464 389 -464c224 0 390 152 390 464v212
c0 312 -167 476 -390 476c-222 0 -389 -164 -389 -476zM116 571v210c0 384 214 613 540 613s536 -229 536 -613v-210c0 -383 -213 -600 -540 -600c-326 0 -536 217 -536 600z" />
    <glyph glyph-name="Odotaccent" unicode="&#x22e;" horiz-adv-x="1308" 
d="M554 1639c0 54 44 98 98 98s98 -44 98 -98s-44 -98 -98 -98s-98 44 -98 98zM265 782v-212c0 -312 167 -464 389 -464c224 0 390 152 390 464v212c0 312 -167 476 -390 476c-222 0 -389 -164 -389 -476zM116 571v210c0 384 214 613 540 613s536 -229 536 -613v-210
c0 -383 -213 -600 -540 -600c-326 0 -536 217 -536 600z" />
    <glyph glyph-name="Ocircumflexdotbelow" unicode="&#x1ed8;" horiz-adv-x="1308" 
d="M568 -275c0 52 38 90 86 90c49 0 86 -38 86 -90c0 -49 -37 -88 -86 -88c-48 0 -86 39 -86 88zM395 1514l215 289h84l215 -289h-128l-128 182h-2l-128 -182h-128zM265 782v-212c0 -312 167 -464 389 -464c224 0 390 152 390 464v212c0 312 -167 476 -390 476
c-222 0 -389 -164 -389 -476zM116 571v210c0 384 214 613 540 613s536 -229 536 -613v-210c0 -383 -213 -600 -540 -600c-326 0 -536 217 -536 600z" />
    <glyph glyph-name="Ocircumflexacute" unicode="&#x1ed0;" horiz-adv-x="1308" 
d="M333 1514l281 204h76l281 -204h-155l-162 117h-4l-162 -117h-155zM828 1719l197 224h161l-249 -224h-109zM265 782v-212c0 -312 167 -464 389 -464c224 0 390 152 390 464v212c0 312 -167 476 -390 476c-222 0 -389 -164 -389 -476zM116 571v210c0 384 214 613 540 613
s536 -229 536 -613v-210c0 -383 -213 -600 -540 -600c-326 0 -536 217 -536 600z" />
    <glyph glyph-name="Otildedieresis" unicode="&#x1e4e;" horiz-adv-x="1308" 
d="M502 1742c-46 0 -81 36 -81 84c0 50 35 85 81 85c47 0 82 -35 82 -85c0 -48 -35 -84 -82 -84zM801 1742c-45 0 -81 36 -81 84c0 50 36 85 81 85c48 0 82 -35 82 -85c0 -48 -34 -84 -82 -84zM758 1486c-119 0 -151 114 -218 114c-49 0 -60 -59 -61 -99h-95
c0 101 51 189 156 189c119 0 153 -114 218 -114c44 0 63 54 66 99h95c0 -87 -49 -189 -161 -189zM265 782v-212c0 -312 167 -464 389 -464c224 0 390 152 390 464v212c0 312 -167 476 -390 476c-222 0 -389 -164 -389 -476zM116 571v210c0 384 214 613 540 613
s536 -229 536 -613v-210c0 -383 -213 -600 -540 -600c-326 0 -536 217 -536 600z" />
    <glyph glyph-name="Omacron" unicode="&#x14c;" horiz-adv-x="1308" 
d="M265 782v-212c0 -312 167 -464 389 -464c224 0 390 152 390 464v212c0 312 -167 476 -390 476c-222 0 -389 -164 -389 -476zM116 571v210c0 384 214 613 540 613s536 -229 536 -613v-210c0 -383 -213 -600 -540 -600c-326 0 -536 217 -536 600zM920 1526h-532v98h532v-98
z" />
    <glyph glyph-name="Oogonek" unicode="&#x1ea;" horiz-adv-x="1308" 
d="M265 782v-212c0 -312 166 -464 388 -464c224 0 391 152 391 464v212c0 312 -168 476 -391 476c-222 0 -388 -164 -388 -476zM640 -29c-310 0 -524 218 -524 600v210c0 384 214 613 539 613c326 0 537 -229 537 -613v-210c0 -250 -83 -389 -171 -488
c-83 -93 -165 -153 -165 -245c0 -72 49 -104 119 -104c23 0 52 3 76 10l-1 -109c-12 -5 -45 -19 -108 -19c-109 0 -216 60 -216 192c0 77 37 150 108 203l-5 8c-63 -36 -118 -48 -189 -48z" />
    <glyph glyph-name="Oogonekmacron" unicode="&#x1ec;" horiz-adv-x="1306" 
d="M265 782v-212c0 -312 166 -464 388 -464c224 0 391 152 391 464v212c0 312 -168 476 -391 476c-222 0 -388 -164 -388 -476zM640 -29c-310 0 -524 218 -524 600v210c0 384 214 613 539 613c326 0 537 -229 537 -613v-210c0 -250 -83 -389 -171 -488
c-83 -93 -165 -153 -165 -245c0 -72 49 -104 119 -104c23 0 52 3 76 10l-1 -109c-12 -5 -45 -19 -108 -19c-109 0 -216 60 -216 192c0 77 37 150 108 203l-5 8c-63 -36 -118 -48 -189 -48zM918 1526h-532v98h532v-98z" />
    <glyph glyph-name="Ohorn" unicode="&#x1a0;" horiz-adv-x="1306" 
d="M1191 571c0 -383 -214 -600 -540 -600c-327 0 -535 217 -535 600v210c0 384 213 613 538 613c195 0 280 -92 402 -92c108 0 138 65 138 159v88h134v-86c0 -183 -92 -271 -254 -267l-4 -7c60 -76 121 -237 121 -408v-210zM264 782v-212c0 -312 166 -464 388 -464
c224 0 390 152 390 464v212c0 312 -167 476 -390 476c-222 0 -388 -164 -388 -476z" />
    <glyph glyph-name="Ohorndotbelow" unicode="&#x1ee2;" horiz-adv-x="1306" 
d="M568 -275c0 52 38 90 86 90c49 0 86 -38 86 -90c0 -49 -37 -88 -86 -88c-48 0 -86 39 -86 88zM1191 571c0 -383 -214 -600 -540 -600c-327 0 -535 217 -535 600v210c0 384 213 613 538 613c195 0 280 -92 402 -92c108 0 138 65 138 159v88h134v-86
c0 -183 -92 -271 -254 -267l-4 -7c60 -76 121 -237 121 -408v-210zM264 782v-212c0 -312 166 -464 388 -464c224 0 390 152 390 464v212c0 312 -167 476 -390 476c-222 0 -388 -164 -388 -476z" />
    <glyph glyph-name="Ohornhookabove" unicode="&#x1ede;" horiz-adv-x="1306" 
d="M530 1654v84c16 5 54 15 97 15c105 0 190 -49 190 -141c0 -95 -95 -136 -139 -151l-57 73c39 10 90 35 90 73c0 45 -46 59 -90 59c-43 0 -69 -6 -91 -12zM1191 571c0 -383 -214 -600 -540 -600c-327 0 -535 217 -535 600v210c0 384 213 613 538 613
c195 0 280 -92 402 -92c108 0 138 65 138 159v88h134v-86c0 -183 -92 -271 -254 -267l-4 -7c60 -76 121 -237 121 -408v-210zM264 782v-212c0 -312 166 -464 388 -464c224 0 390 152 390 464v212c0 312 -167 476 -390 476c-222 0 -388 -164 -388 -476z" />
    <glyph glyph-name="Ohorntilde" unicode="&#x1ee0;" horiz-adv-x="1306" 
d="M1191 571c0 -383 -214 -600 -540 -600c-327 0 -535 217 -535 600v210c0 384 213 613 538 613c195 0 280 -92 402 -92c108 0 138 65 138 159v88h134v-86c0 -183 -92 -271 -254 -267l-4 -7c60 -76 121 -237 121 -408v-210zM264 782v-212c0 -312 166 -464 388 -464
c224 0 390 152 390 464v212c0 312 -167 476 -390 476c-222 0 -388 -164 -388 -476zM758 1486c-119 0 -151 114 -218 114c-49 0 -60 -59 -61 -99h-95c0 101 51 189 156 189c119 0 153 -114 218 -114c44 0 63 54 66 99h95c0 -87 -49 -189 -161 -189z" />
    <glyph glyph-name="Ohorngrave" unicode="&#x1edc;" horiz-adv-x="1306" 
d="M720 1514h-117l-226 273h155zM1191 571c0 -383 -214 -600 -540 -600c-327 0 -535 217 -535 600v210c0 384 213 613 538 613c195 0 280 -92 402 -92c108 0 138 65 138 159v88h134v-86c0 -183 -92 -271 -254 -267l-4 -7c60 -76 121 -237 121 -408v-210zM264 782v-212
c0 -312 166 -464 388 -464c224 0 390 152 390 464v212c0 312 -167 476 -390 476c-222 0 -388 -164 -388 -476z" />
    <glyph glyph-name="Ohornacute" unicode="&#x1eda;" horiz-adv-x="1306" 
d="M701 1514h-117l188 273h155zM1191 571c0 -383 -214 -600 -540 -600c-327 0 -535 217 -535 600v210c0 384 213 613 538 613c195 0 280 -92 402 -92c108 0 138 65 138 159v88h134v-86c0 -183 -92 -271 -254 -267l-4 -7c60 -76 121 -237 121 -408v-210zM264 782v-212
c0 -312 166 -464 388 -464c224 0 390 152 390 464v212c0 312 -167 476 -390 476c-222 0 -388 -164 -388 -476z" />
    <glyph glyph-name="P" unicode="P" horiz-adv-x="1141" 
d="M170 1364h482c257 0 430 -165 430 -417c0 -254 -173 -417 -430 -417h-333v-530h-149v1364zM319 1229v-564h229c241 0 380 53 380 282c0 178 -102 282 -281 282h-328z" />
    <glyph glyph-name="Pdotaccent" unicode="&#x1e56;" horiz-adv-x="1141" 
d="M170 1364h482c257 0 430 -165 430 -417c0 -254 -173 -417 -430 -417h-333v-530h-149v1364zM319 1229v-564h229c241 0 380 53 380 282c0 178 -102 282 -281 282h-328zM444 1639c0 54 44 98 98 98s98 -44 98 -98s-44 -98 -98 -98s-98 44 -98 98z" />
    <glyph glyph-name="Pacute" unicode="&#x1e54;" horiz-adv-x="1141" 
d="M591 1514h-117l188 273h155zM170 1364h482c257 0 430 -165 430 -417c0 -254 -173 -417 -430 -417h-333v-530h-149v1364zM319 1229v-564h229c241 0 380 53 380 282c0 178 -102 282 -281 282h-328z" />
    <glyph glyph-name="Q" unicode="Q" horiz-adv-x="1308" 
d="M116 578v209c0 383 210 607 536 607c327 0 539 -224 539 -607v-209c0 -211 -65 -374 -178 -476l189 -261h-172l-133 182c-70 -33 -153 -51 -245 -51c-326 0 -536 222 -536 606zM264 786v-207c0 -313 166 -471 388 -471c60 0 111 11 159 31l-190 258h176l129 -175
c72 79 116 198 116 357v207c0 312 -166 472 -390 472c-222 0 -388 -160 -388 -472z" />
    <glyph glyph-name="R" unicode="R" horiz-adv-x="1203" 
d="M650 1364c295 0 429 -188 429 -400c0 -222 -131 -335 -259 -378l283 -586h-171l-261 555h-352v-555h-149v1364h480zM319 691h305c199 0 302 96 302 263c0 180 -115 275 -295 275h-312v-538z" />
    <glyph glyph-name="Rcaron" unicode="&#x158;" horiz-adv-x="1203" 
d="M650 1364c295 0 429 -188 429 -400c0 -222 -131 -335 -259 -378l283 -586h-171l-261 555h-352v-555h-149v1364h480zM319 691h305c199 0 302 96 302 263c0 180 -115 275 -295 275h-312v-538zM308 1803h128l128 -182h2l128 182h128l-215 -290h-84z" />
    <glyph glyph-name="Rlinebelow" unicode="&#x1e5e;" horiz-adv-x="1203" 
d="M650 1364c295 0 429 -188 429 -400c0 -222 -131 -335 -259 -378l283 -586h-171l-261 555h-352v-555h-149v1364h480zM319 691h305c199 0 302 96 302 263c0 180 -115 275 -295 275h-312v-538zM836 -325h-542v104h542v-104z" />
    <glyph glyph-name="Rdotbelowmacron" unicode="&#x1e5c;" horiz-adv-x="1203" 
d="M481 -275c0 52 38 90 86 90c49 0 86 -38 86 -90c0 -49 -37 -88 -86 -88c-48 0 -86 39 -86 88zM650 1364c295 0 429 -188 429 -400c0 -222 -131 -335 -259 -378l283 -586h-171l-261 555h-352v-555h-149v1364h480zM319 691h305c199 0 302 96 302 263
c0 180 -115 275 -295 275h-312v-538zM831 1526h-532v98h532v-98z" />
    <glyph glyph-name="Rdblgrave" unicode="&#x210;" horiz-adv-x="1203" 
d="M509 1514h-117l-234 268h157zM783 1514h-117l-235 268h157zM650 1364c295 0 429 -188 429 -400c0 -222 -131 -335 -259 -378l283 -586h-171l-261 555h-352v-555h-149v1364h480zM319 691h305c199 0 302 96 302 263c0 180 -115 275 -295 275h-312v-538z" />
    <glyph glyph-name="Rinvertedbreve" unicode="&#x212;" horiz-adv-x="1203" 
d="M650 1364c295 0 429 -188 429 -400c0 -222 -131 -335 -259 -378l283 -586h-171l-261 555h-352v-555h-149v1364h480zM319 691h305c199 0 302 96 302 263c0 180 -115 275 -295 275h-312v-538zM565 1681c-120 0 -174 -79 -174 -166h-108c-1 117 81 264 282 264
s280 -148 281 -264h-108c0 87 -53 166 -173 166z" />
    <glyph glyph-name="Racute" unicode="&#x154;" horiz-adv-x="1203" 
d="M614 1514h-117l188 273h155zM650 1364c295 0 429 -188 429 -400c0 -222 -131 -335 -259 -378l283 -586h-171l-261 555h-352v-555h-149v1364h480zM319 691h305c199 0 302 96 302 263c0 180 -115 275 -295 275h-312v-538z" />
    <glyph glyph-name="Rdotbelow" unicode="&#x1e5a;" horiz-adv-x="1203" 
d="M481 -275c0 52 38 90 86 90c49 0 86 -38 86 -90c0 -49 -37 -88 -86 -88c-48 0 -86 39 -86 88zM650 1364c295 0 429 -188 429 -400c0 -222 -131 -335 -259 -378l283 -586h-171l-261 555h-352v-555h-149v1364h480zM319 691h305c199 0 302 96 302 263
c0 180 -115 275 -295 275h-312v-538z" />
    <glyph glyph-name="Rdotaccent" unicode="&#x1e58;" horiz-adv-x="1203" 
d="M467 1639c0 54 44 98 98 98s98 -44 98 -98s-44 -98 -98 -98s-98 44 -98 98zM650 1364c295 0 429 -188 429 -400c0 -222 -131 -335 -259 -378l283 -586h-171l-261 555h-352v-555h-149v1364h480zM319 691h305c199 0 302 96 302 263c0 180 -115 275 -295 275h-312v-538z" />
    <glyph glyph-name="Rcommaaccent" unicode="&#x156;" horiz-adv-x="1203" 
d="M650 1364c295 0 429 -188 429 -400c0 -222 -131 -335 -259 -378l283 -586h-171l-261 555h-352v-555h-149v1364h480zM319 691h305c199 0 302 96 302 263c0 180 -115 275 -295 275h-312v-538zM537 -488h-119l85 335h148z" />
    <glyph glyph-name="S" unicode="S" horiz-adv-x="1147" 
d="M67 362h151c13 -135 126 -255 351 -255c198 0 328 98 328 255c0 123 -76 190 -237 232l-236 63c-162 43 -315 145 -315 353c0 250 222 387 463 387c229 0 457 -121 462 -380h-150c-12 134 -113 244 -315 244c-179 0 -308 -87 -308 -241c0 -107 65 -181 202 -217l231 -63
c215 -58 356 -153 356 -368c0 -264 -223 -401 -500 -401c-354 0 -478 219 -483 391z" />
    <glyph glyph-name="Scaron" unicode="&#x160;" horiz-adv-x="1147" 
d="M67 362h151c13 -135 126 -255 351 -255c198 0 328 98 328 255c0 123 -76 190 -237 232l-236 63c-162 43 -315 145 -315 353c0 250 222 387 463 387c229 0 457 -121 462 -380h-150c-12 134 -113 244 -315 244c-179 0 -308 -87 -308 -241c0 -107 65 -181 202 -217l231 -63
c215 -58 356 -153 356 -368c0 -264 -223 -401 -500 -401c-354 0 -478 219 -483 391zM312 1803h128l128 -182h2l128 182h128l-215 -290h-84z" />
    <glyph glyph-name="Scedilla" unicode="&#x15e;" horiz-adv-x="1147" 
d="M569 -465c-59 -3 -119 7 -147 15v97c27 -8 84 -14 117 -14c58 0 124 19 124 84c0 70 -69 73 -143 73h-52v71l46 111c-327 13 -442 225 -447 390h151c13 -135 126 -255 351 -255c198 0 328 98 328 255c0 123 -76 190 -237 232l-236 63c-162 43 -315 145 -315 353
c0 250 222 387 463 387c229 0 457 -121 462 -380h-150c-12 134 -113 244 -315 244c-179 0 -308 -87 -308 -241c0 -107 65 -181 202 -217l231 -63c215 -58 356 -153 356 -368c0 -241 -185 -375 -427 -398l-40 -95c125 0 206 -50 206 -159c0 -125 -102 -180 -220 -185z" />
    <glyph glyph-name="Sdotaccent" unicode="&#x1e60;" horiz-adv-x="1147" 
d="M472 1639c0 54 44 98 98 98s98 -44 98 -98s-44 -98 -98 -98s-98 44 -98 98zM67 362h151c13 -135 126 -255 351 -255c198 0 328 98 328 255c0 123 -76 190 -237 232l-236 63c-162 43 -315 145 -315 353c0 250 222 387 463 387c229 0 457 -121 462 -380h-150
c-12 134 -113 244 -315 244c-179 0 -308 -87 -308 -241c0 -107 65 -181 202 -217l231 -63c215 -58 356 -153 356 -368c0 -264 -223 -401 -500 -401c-354 0 -478 219 -483 391z" />
    <glyph glyph-name="Sdotbelow" unicode="&#x1e62;" horiz-adv-x="1147" 
d="M464 -275c0 52 38 90 86 90c49 0 86 -38 86 -90c0 -49 -37 -88 -86 -88c-48 0 -86 39 -86 88zM67 362h151c13 -135 126 -255 351 -255c198 0 328 98 328 255c0 123 -76 190 -237 232l-236 63c-162 43 -315 145 -315 353c0 250 222 387 463 387c229 0 457 -121 462 -380
h-150c-12 134 -113 244 -315 244c-179 0 -308 -87 -308 -241c0 -107 65 -181 202 -217l231 -63c215 -58 356 -153 356 -368c0 -264 -223 -401 -500 -401c-354 0 -478 219 -483 391z" />
    <glyph glyph-name="Scommaaccent" unicode="&#x218;" horiz-adv-x="1147" 
d="M67 362h151c13 -135 126 -255 351 -255c198 0 328 98 328 255c0 123 -76 190 -237 232l-236 63c-162 43 -315 145 -315 353c0 250 222 387 463 387c229 0 457 -121 462 -380h-150c-12 134 -113 244 -315 244c-179 0 -308 -87 -308 -241c0 -107 65 -181 202 -217l231 -63
c215 -58 356 -153 356 -368c0 -264 -223 -401 -500 -401c-354 0 -478 219 -483 391zM520 -488h-119l85 335h148z" />
    <glyph glyph-name="Sdotbelowdotaccent" unicode="&#x1e68;" horiz-adv-x="1147" 
d="M465 -275c0 52 38 90 86 90c49 0 86 -38 86 -90c0 -49 -37 -88 -86 -88c-48 0 -86 39 -86 88zM67 362h151c13 -135 126 -255 351 -255c198 0 328 98 328 255c0 123 -76 190 -237 232l-236 63c-162 43 -315 145 -315 353c0 250 222 387 463 387c229 0 457 -121 462 -380
h-150c-12 134 -113 244 -315 244c-179 0 -308 -87 -308 -241c0 -107 65 -181 202 -217l231 -63c215 -58 356 -153 356 -368c0 -264 -223 -401 -500 -401c-354 0 -478 219 -483 391zM472 1639c0 54 44 98 98 98s98 -44 98 -98s-44 -98 -98 -98s-98 44 -98 98z" />
    <glyph glyph-name="Scarondotaccent" unicode="&#x1e66;" horiz-adv-x="1147" 
d="M251 1718h155l162 -118h4l162 118h155l-281 -205h-76zM481 1838c0 48 40 89 89 89s89 -41 89 -89s-40 -89 -89 -89s-89 41 -89 89zM67 362h151c13 -135 126 -255 351 -255c198 0 328 98 328 255c0 123 -76 190 -237 232l-236 63c-162 43 -315 145 -315 353
c0 250 222 387 463 387c229 0 457 -121 462 -380h-150c-12 134 -113 244 -315 244c-179 0 -308 -87 -308 -241c0 -107 65 -181 202 -217l231 -63c215 -58 356 -153 356 -368c0 -264 -223 -401 -500 -401c-354 0 -478 219 -483 391z" />
    <glyph glyph-name="Scircumflex" unicode="&#x15c;" horiz-adv-x="1147" 
d="M67 362h151c13 -135 126 -255 351 -255c198 0 328 98 328 255c0 123 -76 190 -237 232l-236 63c-162 43 -315 145 -315 353c0 250 222 387 463 387c229 0 457 -121 462 -380h-150c-12 134 -113 244 -315 244c-179 0 -308 -87 -308 -241c0 -107 65 -181 202 -217l231 -63
c215 -58 356 -153 356 -368c0 -264 -223 -401 -500 -401c-354 0 -478 219 -483 391zM312 1514l215 289h84l215 -289h-128l-128 182h-2l-128 -182h-128z" />
    <glyph glyph-name="Sacutedotaccent" unicode="&#x1e64;" horiz-adv-x="1147" 
d="M693 1514h-117l188 273h155zM291 1698c0 54 44 98 98 98s98 -44 98 -98s-44 -98 -98 -98s-98 44 -98 98zM67 362h151c13 -135 126 -255 351 -255c198 0 328 98 328 255c0 123 -76 190 -237 232l-236 63c-162 43 -315 145 -315 353c0 250 222 387 463 387
c229 0 457 -121 462 -380h-150c-12 134 -113 244 -315 244c-179 0 -308 -87 -308 -241c0 -107 65 -181 202 -217l231 -63c215 -58 356 -153 356 -368c0 -264 -223 -401 -500 -401c-354 0 -478 219 -483 391z" />
    <glyph glyph-name="Sacute" unicode="&#x15a;" horiz-adv-x="1147" 
d="M618 1514h-117l188 273h155zM67 362h151c13 -135 126 -255 351 -255c198 0 328 98 328 255c0 123 -76 190 -237 232l-236 63c-162 43 -315 145 -315 353c0 250 222 387 463 387c229 0 457 -121 462 -380h-150c-12 134 -113 244 -315 244c-179 0 -308 -87 -308 -241
c0 -107 65 -181 202 -217l231 -63c215 -58 356 -153 356 -368c0 -264 -223 -401 -500 -401c-354 0 -478 219 -483 391z" />
    <glyph glyph-name="T" unicode="T" horiz-adv-x="1042" 
d="M594 0h-147v1229h-422v135h992v-135h-423v-1229z" />
    <glyph glyph-name="Tcircumflexbelow" unicode="&#x1e70;" horiz-adv-x="1042" 
d="M594 0h-147v1229h-422v135h992v-135h-423v-1229zM268 -407l206 292h92l206 -292h-124l-127 198h-2l-127 -198h-124z" />
    <glyph glyph-name="Tdotbelow" unicode="&#x1e6c;" horiz-adv-x="1042" 
d="M435 -275c0 52 38 90 86 90c49 0 86 -38 86 -90c0 -49 -37 -88 -86 -88c-48 0 -86 39 -86 88zM594 0h-147v1229h-422v135h992v-135h-423v-1229z" />
    <glyph glyph-name="Tcommaaccent" unicode="&#x21a;" horiz-adv-x="1042" 
d="M492 -488h-119l85 335h148zM594 0h-147v1229h-422v135h992v-135h-423v-1229z" />
    <glyph glyph-name="Tdotaccent" unicode="&#x1e6a;" horiz-adv-x="1042" 
d="M422 1639c0 54 44 98 98 98s98 -44 98 -98s-44 -98 -98 -98s-98 44 -98 98zM594 0h-147v1229h-422v135h992v-135h-423v-1229z" />
    <glyph glyph-name="Tcedilla" unicode="&#x162;" horiz-adv-x="1042" 
d="M536 -484c-59 -3 -119 7 -147 15v97c27 -8 84 -14 117 -14c58 0 124 19 124 84c0 70 -77 73 -152 73h-51v71l59 158h-39v1229h-422v135h992v-135h-423v-1229l-52 -140c125 0 214 -50 214 -159c0 -125 -102 -180 -220 -185z" />
    <glyph glyph-name="Tlinebelow" unicode="&#x1e6e;" horiz-adv-x="1042" 
d="M795 -325h-542v104h542v-104zM594 0h-147v1229h-422v135h992v-135h-423v-1229z" />
    <glyph glyph-name="Tcaron" unicode="&#x164;" horiz-adv-x="1042" 
d="M262 1803h128l128 -182h2l128 182h128l-215 -290h-84zM594 0h-147v1229h-422v135h992v-135h-423v-1229z" />
    <glyph glyph-name="Tbar" unicode="&#x166;" horiz-adv-x="1042" 
d="M832 659h-238v-659h-147v659h-237v118h237v452h-422v135h992v-135h-423v-452h238v-118z" />
    <glyph glyph-name="U" unicode="U" horiz-adv-x="1326" 
d="M301 1364v-891c0 -222 140 -366 362 -366s362 144 362 366v891h147v-910c0 -283 -189 -483 -509 -483c-319 0 -509 200 -509 483v910h147z" />
    <glyph glyph-name="Ugrave" unicode="&#xd9;" horiz-adv-x="1326" 
d="M730 1514h-117l-226 273h155zM301 1364v-891c0 -222 140 -366 362 -366s362 144 362 366v891h147v-910c0 -283 -189 -483 -509 -483c-319 0 -509 200 -509 483v910h147z" />
    <glyph glyph-name="Udblgrave" unicode="&#x214;" horiz-adv-x="1326" 
d="M606 1514h-117l-234 268h157zM880 1514h-117l-235 268h157zM301 1364v-891c0 -222 140 -366 362 -366s362 144 362 366v891h147v-910c0 -283 -189 -483 -509 -483c-319 0 -509 200 -509 483v910h147z" />
    <glyph glyph-name="Uacute" unicode="&#xda;" horiz-adv-x="1326" 
d="M711 1514h-117l188 273h155zM301 1364v-891c0 -222 140 -366 362 -366s362 144 362 366v891h147v-910c0 -283 -189 -483 -509 -483c-319 0 -509 200 -509 483v910h147z" />
    <glyph glyph-name="Uhungarumlaut" unicode="&#x170;" horiz-adv-x="1326" 
d="M301 1364v-891c0 -222 140 -366 362 -366s362 144 362 366v891h147v-910c0 -283 -189 -483 -509 -483c-319 0 -509 200 -509 483v910h147zM444 1514l194 268h157l-233 -268h-118zM718 1514l194 268h157l-234 -268h-117z" />
    <glyph glyph-name="Ucircumflex" unicode="&#xdb;" horiz-adv-x="1326" 
d="M405 1514l215 289h84l215 -289h-128l-128 182h-2l-128 -182h-128zM301 1364v-891c0 -222 140 -366 362 -366s362 144 362 366v891h147v-910c0 -283 -189 -483 -509 -483c-319 0 -509 200 -509 483v910h147z" />
    <glyph glyph-name="Ucaron" unicode="&#x1d3;" horiz-adv-x="1326" 
d="M405 1803h128l128 -182h2l128 182h128l-215 -290h-84zM301 1364v-891c0 -222 140 -366 362 -366s362 144 362 366v891h147v-910c0 -283 -189 -483 -509 -483c-319 0 -509 200 -509 483v910h147z" />
    <glyph glyph-name="Ucircumflexbelow" unicode="&#x1e76;" horiz-adv-x="1326" 
d="M301 1364v-891c0 -222 140 -366 362 -366s362 144 362 366v891h147v-910c0 -283 -189 -483 -509 -483c-319 0 -509 200 -509 483v910h147zM411 -407l206 292h92l206 -292h-124l-127 198h-2l-127 -198h-124z" />
    <glyph glyph-name="Udieresis" unicode="&#xdc;" horiz-adv-x="1326" 
d="M512 1500c-46 0 -81 36 -81 84c0 50 35 85 81 85c47 0 82 -35 82 -85c0 -48 -35 -84 -82 -84zM811 1500c-45 0 -81 36 -81 84c0 50 36 85 81 85c48 0 82 -35 82 -85c0 -48 -34 -84 -82 -84zM301 1364v-891c0 -222 140 -366 362 -366s362 144 362 366v891h147v-910
c0 -283 -189 -483 -509 -483c-319 0 -509 200 -509 483v910h147z" />
    <glyph glyph-name="Udieresisgrave" unicode="&#x1db;" horiz-adv-x="1326" 
d="M743 1731h-143l-289 200h178zM512 1500c-46 0 -81 36 -81 84c0 50 35 85 81 85c47 0 82 -35 82 -85c0 -48 -35 -84 -82 -84zM811 1500c-45 0 -81 36 -81 84c0 50 36 85 81 85c48 0 82 -35 82 -85c0 -48 -34 -84 -82 -84zM301 1364v-891c0 -222 140 -366 362 -366
s362 144 362 366v891h147v-910c0 -283 -189 -483 -509 -483c-319 0 -509 200 -509 483v910h147z" />
    <glyph glyph-name="Udieresisacute" unicode="&#x1d7;" horiz-adv-x="1326" 
d="M581 1731l254 200h178l-289 -200h-143zM512 1500c-46 0 -81 36 -81 84c0 50 35 85 81 85c47 0 82 -35 82 -85c0 -48 -35 -84 -82 -84zM811 1500c-45 0 -81 36 -81 84c0 50 36 85 81 85c48 0 82 -35 82 -85c0 -48 -34 -84 -82 -84zM301 1364v-891
c0 -222 140 -366 362 -366s362 144 362 366v891h147v-910c0 -283 -189 -483 -509 -483c-319 0 -509 200 -509 483v910h147z" />
    <glyph glyph-name="Udieresismacron" unicode="&#x1d5;" horiz-adv-x="1326" 
d="M301 1364v-891c0 -222 140 -366 362 -366s362 144 362 366v891h147v-910c0 -283 -189 -483 -509 -483c-319 0 -509 200 -509 483v910h147zM512 1500c-46 0 -81 36 -81 84c0 50 35 85 81 85c47 0 82 -35 82 -85c0 -48 -35 -84 -82 -84zM811 1500c-45 0 -81 36 -81 84
c0 50 36 85 81 85c48 0 82 -35 82 -85c0 -48 -34 -84 -82 -84zM928 1797h-532v98h532v-98z" />
    <glyph glyph-name="Udieresiscaron" unicode="&#x1d9;" horiz-adv-x="1326" 
d="M433 1583c0 50 36 86 81 86c48 0 83 -36 83 -86c0 -47 -35 -84 -83 -84c-45 0 -81 37 -81 84zM731 1583c0 50 36 86 82 86c47 0 83 -36 83 -86c0 -47 -36 -84 -83 -84c-46 0 -82 37 -82 84zM343 1922h155l162 -117h4l162 117h155l-281 -204h-76zM301 1364v-891
c0 -222 140 -366 362 -366s362 144 362 366v891h147v-910c0 -283 -189 -483 -509 -483c-319 0 -509 200 -509 483v910h147z" />
    <glyph glyph-name="Udieresisbelow" unicode="&#x1e72;" horiz-adv-x="1326" 
d="M301 1364v-891c0 -222 140 -366 362 -366s362 144 362 366v891h147v-910c0 -283 -189 -483 -509 -483c-319 0 -509 200 -509 483v910h147zM496 -376c-48 0 -85 38 -85 87c0 52 37 89 85 89c49 0 85 -37 85 -89c0 -49 -36 -87 -85 -87zM828 -376c-47 0 -84 38 -84 87
c0 52 37 89 84 89c50 0 87 -37 87 -89c0 -49 -37 -87 -87 -87z" />
    <glyph glyph-name="Utildebelow" unicode="&#x1e74;" horiz-adv-x="1326" 
d="M770 -372c-125 0 -160 128 -230 128c-50 0 -63 -67 -64 -111h-99c0 108 53 205 163 205c126 0 161 -128 229 -128c48 0 68 63 71 111h100c0 -92 -53 -205 -170 -205zM301 1364v-891c0 -222 140 -366 362 -366s362 144 362 366v891h147v-910c0 -283 -189 -483 -509 -483
c-319 0 -509 200 -509 483v910h147z" />
    <glyph glyph-name="Uhookabove" unicode="&#x1ee6;" horiz-adv-x="1326" 
d="M301 1364v-891c0 -222 140 -366 362 -366s362 144 362 366v891h147v-910c0 -283 -189 -483 -509 -483c-319 0 -509 200 -509 483v910h147zM540 1654v84c16 5 54 15 97 15c105 0 190 -49 190 -141c0 -95 -95 -136 -139 -151l-57 73c39 10 90 35 90 73c0 45 -46 59 -90 59
c-43 0 -69 -6 -91 -12z" />
    <glyph glyph-name="Ubreve" unicode="&#x16c;" horiz-adv-x="1326" 
d="M301 1364v-891c0 -222 140 -366 362 -366s362 144 362 366v891h147v-910c0 -283 -189 -483 -509 -483c-319 0 -509 200 -509 483v910h147zM380 1761h108c0 -87 54 -165 174 -165s173 78 173 165h108c-1 -116 -80 -262 -281 -262s-283 145 -282 262z" />
    <glyph glyph-name="Uinvertedbreve" unicode="&#x216;" horiz-adv-x="1326" 
d="M301 1364v-891c0 -222 140 -366 362 -366s362 144 362 366v891h147v-910c0 -283 -189 -483 -509 -483c-319 0 -509 200 -509 483v910h147zM662 1681c-120 0 -174 -79 -174 -166h-108c-1 117 81 264 282 264s280 -148 281 -264h-108c0 87 -53 166 -173 166z" />
    <glyph glyph-name="Utildeacute" unicode="&#x1e78;" horiz-adv-x="1326" 
d="M301 1364v-891c0 -222 140 -366 362 -366s362 144 362 366v891h147v-910c0 -283 -189 -483 -509 -483c-319 0 -509 200 -509 483v910h147zM568 1731l254 200h178l-289 -200h-143zM768 1486c-119 0 -151 114 -218 114c-49 0 -60 -59 -61 -99h-95c0 101 51 189 156 189
c119 0 153 -114 218 -114c44 0 63 54 66 99h95c0 -87 -49 -189 -161 -189z" />
    <glyph glyph-name="Udotbelow" unicode="&#x1ee4;" horiz-adv-x="1326" 
d="M579 -275c0 52 38 90 86 90c49 0 86 -38 86 -90c0 -49 -37 -88 -86 -88c-48 0 -86 39 -86 88zM301 1364v-891c0 -222 140 -366 362 -366s362 144 362 366v891h147v-910c0 -283 -189 -483 -509 -483c-319 0 -509 200 -509 483v910h147z" />
    <glyph glyph-name="Utilde" unicode="&#x168;" horiz-adv-x="1326" 
d="M301 1364v-891c0 -222 140 -366 362 -366s362 144 362 366v891h147v-910c0 -283 -189 -483 -509 -483c-319 0 -509 200 -509 483v910h147zM768 1486c-119 0 -151 114 -218 114c-49 0 -60 -59 -61 -99h-95c0 101 51 189 156 189c119 0 153 -114 218 -114c44 0 63 54 66 99
h95c0 -87 -49 -189 -161 -189z" />
    <glyph glyph-name="Umacron" unicode="&#x16a;" horiz-adv-x="1326" 
d="M301 1364v-891c0 -222 140 -366 362 -366s362 144 362 366v891h147v-910c0 -283 -189 -483 -509 -483c-319 0 -509 200 -509 483v910h147zM928 1526h-532v98h532v-98z" />
    <glyph glyph-name="Umacrondieresis" unicode="&#x1e7a;" horiz-adv-x="1326" 
d="M512 1742c-46 0 -81 36 -81 84c0 50 35 85 81 85c47 0 82 -35 82 -85c0 -48 -35 -84 -82 -84zM811 1742c-45 0 -81 36 -81 84c0 50 36 85 81 85c48 0 82 -35 82 -85c0 -48 -34 -84 -82 -84zM928 1526h-532v98h532v-98zM301 1364v-891c0 -222 140 -366 362 -366
s362 144 362 366v891h147v-910c0 -283 -189 -483 -509 -483c-319 0 -509 200 -509 483v910h147z" />
    <glyph glyph-name="Uring" unicode="&#x16e;" horiz-adv-x="1326" 
d="M662 1499c-103 0 -185 79 -185 181s82 180 185 180c101 0 184 -78 184 -180s-83 -181 -184 -181zM557 1680c0 -59 46 -107 105 -107s104 48 104 107s-45 106 -104 106s-105 -47 -105 -106zM301 1364v-891c0 -222 140 -366 362 -366s362 144 362 366v891h147v-910
c0 -283 -189 -483 -509 -483c-319 0 -509 200 -509 483v910h147z" />
    <glyph glyph-name="Uogonek" unicode="&#x172;" horiz-adv-x="1326" 
d="M953 -384c-105 0 -217 56 -217 192c0 64 26 142 108 203l-5 8c-41 -22 -90 -48 -189 -48c-285 0 -496 204 -496 506v887h149v-891c0 -222 137 -366 360 -366c222 0 361 144 361 366v891h148v-891c0 -200 -75 -315 -154 -401c-78 -85 -152 -144 -152 -234
c0 -74 51 -104 118 -104c20 0 50 2 77 10v-109c-14 -6 -57 -19 -108 -19z" />
    <glyph glyph-name="Uhorn" unicode="&#x1af;" horiz-adv-x="1375" 
d="M663 -29c-304 0 -509 204 -509 506v887h149v-891c0 -222 137 -366 360 -366c222 0 361 144 361 366v891h149c108 0 140 66 140 160v97h132v-95c0 -156 -74 -270 -240 -270h-33v-783c0 -302 -205 -502 -509 -502z" />
    <glyph glyph-name="Uhorngrave" unicode="&#x1eea;" horiz-adv-x="1375" 
d="M730 1514h-117l-226 273h155zM663 -29c-304 0 -509 204 -509 506v887h149v-891c0 -222 137 -366 360 -366c222 0 361 144 361 366v891h149c108 0 140 66 140 160v97h132v-95c0 -156 -74 -270 -240 -270h-33v-783c0 -302 -205 -502 -509 -502z" />
    <glyph glyph-name="Uhornacute" unicode="&#x1ee8;" horiz-adv-x="1375" 
d="M711 1514h-117l188 273h155zM663 -29c-304 0 -509 204 -509 506v887h149v-891c0 -222 137 -366 360 -366c222 0 361 144 361 366v891h149c108 0 140 66 140 160v97h132v-95c0 -156 -74 -270 -240 -270h-33v-783c0 -302 -205 -502 -509 -502z" />
    <glyph glyph-name="Uhorndotbelow" unicode="&#x1ef0;" horiz-adv-x="1375" 
d="M578 -275c0 52 38 90 86 90c49 0 86 -38 86 -90c0 -49 -37 -88 -86 -88c-48 0 -86 39 -86 88zM663 -29c-304 0 -509 204 -509 506v887h149v-891c0 -222 137 -366 360 -366c222 0 361 144 361 366v891h149c108 0 140 66 140 160v97h132v-95c0 -156 -74 -270 -240 -270h-33
v-783c0 -302 -205 -502 -509 -502z" />
    <glyph glyph-name="Uhornhookabove" unicode="&#x1eec;" horiz-adv-x="1375" 
d="M540 1654v84c16 5 54 15 97 15c105 0 190 -49 190 -141c0 -95 -95 -136 -139 -151l-57 73c39 10 90 35 90 73c0 45 -46 59 -90 59c-43 0 -69 -6 -91 -12zM663 -29c-304 0 -509 204 -509 506v887h149v-891c0 -222 137 -366 360 -366c222 0 361 144 361 366v891h149
c108 0 140 66 140 160v97h132v-95c0 -156 -74 -270 -240 -270h-33v-783c0 -302 -205 -502 -509 -502z" />
    <glyph glyph-name="Uhorntilde" unicode="&#x1eee;" horiz-adv-x="1375" 
d="M768 1486c-119 0 -151 114 -218 114c-49 0 -60 -59 -61 -99h-95c0 101 51 189 156 189c119 0 153 -114 218 -114c44 0 63 54 66 99h95c0 -87 -49 -189 -161 -189zM663 -29c-304 0 -509 204 -509 506v887h149v-891c0 -222 137 -366 360 -366c222 0 361 144 361 366v891
h149c108 0 140 66 140 160v97h132v-95c0 -156 -74 -270 -240 -270h-33v-783c0 -302 -205 -502 -509 -502z" />
    <glyph glyph-name="V" unicode="V" horiz-adv-x="1190" 
d="M667 0h-147l-497 1364h169l401 -1166h4l400 1166h169z" />
    <glyph glyph-name="Vtilde" unicode="&#x1e7c;" horiz-adv-x="1190" 
d="M697 1486c-119 0 -151 114 -218 114c-49 0 -60 -59 -61 -99h-95c0 101 51 189 156 189c119 0 153 -114 218 -114c44 0 63 54 66 99h95c0 -87 -49 -189 -161 -189zM667 0h-147l-497 1364h169l401 -1166h4l400 1166h169z" />
    <glyph glyph-name="Vdotbelow" unicode="&#x1e7e;" horiz-adv-x="1190" 
d="M508 -275c0 52 38 90 86 90c49 0 86 -38 86 -90c0 -49 -37 -88 -86 -88c-48 0 -86 39 -86 88zM667 0h-147l-497 1364h169l401 -1166h4l400 1166h169z" />
    <glyph glyph-name="W" unicode="W" horiz-adv-x="1666" 
d="M530 0h-134l-375 1364h166l278 -1102h4l285 1102h158l284 -1102h5l279 1102h166l-377 -1364h-133l-300 1109h-5z" />
    <glyph glyph-name="Wgrave" unicode="&#x1e80;" horiz-adv-x="1666" 
d="M899 1514h-117l-226 273h155zM530 0h-134l-375 1364h166l278 -1102h4l285 1102h158l284 -1102h5l279 1102h166l-377 -1364h-133l-300 1109h-5z" />
    <glyph glyph-name="Wacute" unicode="&#x1e82;" horiz-adv-x="1666" 
d="M880 1514h-117l188 273h155zM530 0h-134l-375 1364h166l278 -1102h4l285 1102h158l284 -1102h5l279 1102h166l-377 -1364h-133l-300 1109h-5z" />
    <glyph glyph-name="Wdotaccent" unicode="&#x1e86;" horiz-adv-x="1666" 
d="M736 1639c0 54 44 98 98 98s98 -44 98 -98s-44 -98 -98 -98s-98 44 -98 98zM530 0h-134l-375 1364h166l278 -1102h4l285 1102h158l284 -1102h5l279 1102h166l-377 -1364h-133l-300 1109h-5z" />
    <glyph glyph-name="Wdotbelow" unicode="&#x1e88;" horiz-adv-x="1666" 
d="M747 -275c0 52 38 90 86 90c49 0 86 -38 86 -90c0 -49 -37 -88 -86 -88c-48 0 -86 39 -86 88zM530 0h-134l-375 1364h166l278 -1102h4l285 1102h158l284 -1102h5l279 1102h166l-377 -1364h-133l-300 1109h-5z" />
    <glyph glyph-name="Wdieresis" unicode="&#x1e84;" horiz-adv-x="1666" 
d="M681 1500c-46 0 -81 36 -81 84c0 50 35 85 81 85c47 0 82 -35 82 -85c0 -48 -35 -84 -82 -84zM980 1500c-45 0 -81 36 -81 84c0 50 36 85 81 85c48 0 82 -35 82 -85c0 -48 -34 -84 -82 -84zM530 0h-134l-375 1364h166l278 -1102h4l285 1102h158l284 -1102h5l279 1102h166
l-377 -1364h-133l-300 1109h-5z" />
    <glyph glyph-name="Wcircumflex" unicode="&#x174;" horiz-adv-x="1666" 
d="M576 1514l215 289h84l215 -289h-128l-128 182h-2l-128 -182h-128zM530 0h-134l-375 1364h166l278 -1102h4l285 1102h158l284 -1102h5l279 1102h166l-377 -1364h-133l-300 1109h-5z" />
    <glyph glyph-name="X" unicode="X" horiz-adv-x="1118" 
d="M1103 1364l-458 -689l449 -675h-182l-357 557h-9l-360 -557h-171l452 687l-446 677h180l362 -557h9l359 557h172z" />
    <glyph glyph-name="Xdotaccent" unicode="&#x1e8a;" horiz-adv-x="1118" 
d="M1103 1364l-458 -689l449 -675h-182l-357 557h-9l-360 -557h-171l452 687l-446 677h180l362 -557h9l359 557h172zM460 1639c0 54 44 98 98 98s98 -44 98 -98s-44 -98 -98 -98s-98 44 -98 98z" />
    <glyph glyph-name="Xdieresis" unicode="&#x1e8c;" horiz-adv-x="1118" 
d="M1103 1364l-458 -689l449 -675h-182l-357 557h-9l-360 -557h-171l452 687l-446 677h180l362 -557h9l359 557h172zM407 1500c-46 0 -81 36 -81 84c0 50 35 85 81 85c47 0 82 -35 82 -85c0 -48 -35 -84 -82 -84zM706 1500c-45 0 -81 36 -81 84c0 50 36 85 81 85
c48 0 82 -35 82 -85c0 -48 -34 -84 -82 -84z" />
    <glyph glyph-name="Y" unicode="Y" horiz-adv-x="1080" 
d="M613 0h-146v600l-459 764h171l358 -617h6l358 617h171l-459 -764v-600z" />
    <glyph glyph-name="Ygrave" unicode="&#x1ef2;" horiz-adv-x="1080" 
d="M613 0h-146v600l-459 764h171l358 -617h6l358 617h171l-459 -764v-600zM605 1514h-117l-226 273h155z" />
    <glyph glyph-name="Yacute" unicode="&#xdd;" horiz-adv-x="1080" 
d="M613 0h-146v600l-459 764h171l358 -617h6l358 617h171l-459 -764v-600zM586 1514h-117l188 273h155z" />
    <glyph glyph-name="Ydotaccent" unicode="&#x1e8e;" horiz-adv-x="1080" 
d="M613 0h-146v600l-459 764h171l358 -617h6l358 617h171l-459 -764v-600zM441 1639c0 54 44 98 98 98s98 -44 98 -98s-44 -98 -98 -98s-98 44 -98 98z" />
    <glyph glyph-name="Ydotbelow" unicode="&#x1ef4;" horiz-adv-x="1080" 
d="M613 0h-146v600l-459 764h171l358 -617h6l358 617h171l-459 -764v-600zM453 -275c0 52 38 90 86 90c49 0 86 -38 86 -90c0 -49 -37 -88 -86 -88c-48 0 -86 39 -86 88z" />
    <glyph glyph-name="Ydieresis" unicode="&#x178;" horiz-adv-x="1080" 
d="M613 0h-146v600l-459 764h171l358 -617h6l358 617h171l-459 -764v-600zM388 1500c-46 0 -81 36 -81 84c0 50 35 85 81 85c47 0 82 -35 82 -85c0 -48 -35 -84 -82 -84zM687 1500c-45 0 -81 36 -81 84c0 50 36 85 81 85c48 0 82 -35 82 -85c0 -48 -34 -84 -82 -84z" />
    <glyph glyph-name="Ytilde" unicode="&#x1ef8;" horiz-adv-x="1080" 
d="M613 0h-146v600l-459 764h171l358 -617h6l358 617h171l-459 -764v-600zM643 1486c-119 0 -151 114 -218 114c-49 0 -60 -59 -61 -99h-95c0 101 51 189 156 189c119 0 153 -114 218 -114c44 0 63 54 66 99h95c0 -87 -49 -189 -161 -189z" />
    <glyph glyph-name="Ycircumflex" unicode="&#x176;" horiz-adv-x="1080" 
d="M613 0h-146v600l-459 764h171l358 -617h6l358 617h171l-459 -764v-600zM280 1514l215 289h84l215 -289h-128l-128 182h-2l-128 -182h-128z" />
    <glyph glyph-name="Ymacron" unicode="&#x232;" horiz-adv-x="1080" 
d="M613 0h-146v600l-459 764h171l358 -617h6l358 617h171l-459 -764v-600zM805 1526h-532v98h532v-98z" />
    <glyph glyph-name="Yhookabove" unicode="&#x1ef6;" horiz-adv-x="1080" 
d="M613 0h-146v600l-459 764h171l358 -617h6l358 617h171l-459 -764v-600zM415 1654v84c16 5 54 15 97 15c105 0 190 -49 190 -141c0 -95 -95 -136 -139 -151l-57 73c39 10 90 35 90 73c0 45 -46 59 -90 59c-43 0 -69 -6 -91 -12z" />
    <glyph glyph-name="Z" unicode="Z" horiz-adv-x="1142" 
d="M85 0v108l756 1118v4h-729v134h914v-105l-752 -1120v-4h768v-135h-957z" />
    <glyph glyph-name="Zacute" unicode="&#x179;" horiz-adv-x="1142" 
d="M620 1514h-117l188 273h155zM85 0v108l756 1118v4h-729v134h914v-105l-752 -1120v-4h768v-135h-957z" />
    <glyph glyph-name="Zcaron" unicode="&#x17d;" horiz-adv-x="1142" 
d="M85 0v108l756 1118v4h-729v134h914v-105l-752 -1120v-4h768v-135h-957zM314 1803h128l128 -182h2l128 182h128l-215 -290h-84z" />
    <glyph glyph-name="Zcircumflex" unicode="&#x1e90;" horiz-adv-x="1142" 
d="M85 0v108l756 1118v4h-729v134h914v-105l-752 -1120v-4h768v-135h-957zM314 1514l215 289h84l215 -289h-128l-128 182h-2l-128 -182h-128z" />
    <glyph glyph-name="Zlinebelow" unicode="&#x1e94;" horiz-adv-x="1142" 
d="M85 0v108l756 1118v4h-729v134h914v-105l-752 -1120v-4h768v-135h-957zM841 -325h-542v104h542v-104z" />
    <glyph glyph-name="Zdotbelow" unicode="&#x1e92;" horiz-adv-x="1142" 
d="M486 -275c0 52 38 90 86 90c49 0 86 -38 86 -90c0 -49 -37 -88 -86 -88c-48 0 -86 39 -86 88zM85 0v108l756 1118v4h-729v134h914v-105l-752 -1120v-4h768v-135h-957z" />
    <glyph glyph-name="Zdotaccent" unicode="&#x17b;" horiz-adv-x="1142" 
d="M473 1639c0 54 44 98 98 98s98 -44 98 -98s-44 -98 -98 -98s-98 44 -98 98zM85 0v108l756 1118v4h-729v134h914v-105l-752 -1120v-4h768v-135h-957z" />
    <glyph glyph-name="AE" unicode="&#xc6;" horiz-adv-x="1840" 
d="M857 1229l-359 -656h431v656h-72zM929 448h-500l-244 -448h-169l761 1364h948v-135h-647v-464h611v-135h-611v-494h647v-136h-796v448z" />
    <glyph glyph-name="AEmacron" unicode="&#x1e2;" horiz-adv-x="1840" 
d="M857 1229l-359 -656h431v656h-72zM929 448h-500l-244 -448h-169l761 1364h948v-135h-647v-464h611v-135h-611v-494h647v-136h-796v448zM1601 1526h-532v98h532v-98z" />
    <glyph glyph-name="AEacute" unicode="&#x1fc;" horiz-adv-x="1840" 
d="M1384 1514h-117l188 273h155zM857 1229l-359 -656h431v656h-72zM929 448h-500l-244 -448h-169l761 1364h948v-135h-647v-464h611v-135h-611v-494h647v-136h-796v448z" />
    <glyph glyph-name="OE" unicode="&#x152;" horiz-adv-x="1956" 
d="M264 782v-212c0 -312 165 -464 387 -464c223 0 392 139 392 447v254c0 306 -168 451 -392 451c-222 0 -387 -164 -387 -476zM650 -29c-327 0 -534 217 -534 600v210c0 384 212 613 537 613c157 0 305 -59 378 -178h12v148h795v-135h-647v-464h611v-135h-611v-494h647
v-136h-795v154h-12c-77 -119 -223 -183 -381 -183z" />
    <glyph glyph-name="Eth" unicode="&#xd0;" horiz-adv-x="1360" 
d="M595 0h-420v633h-91v131h91v600h420c398 0 600 -235 600 -681s-201 -683 -600 -683zM324 136h266c303 0 450 185 450 547c0 360 -147 546 -450 546h-266v-465h391v-131h-391v-497z" />
    <glyph glyph-name="Thorn" unicode="&#xde;" horiz-adv-x="1136" 
d="M170 1364h148v-267h314c255 0 430 -126 430 -378c0 -253 -175 -378 -430 -378h-313v-341h-149v1364zM319 962v-486h268c182 0 321 26 321 243c0 171 -103 243 -281 243h-308z" />
    <glyph glyph-name="Alphagreek" unicode="&#x391;" horiz-adv-x="1189" 
d="M188 0h-157l490 1364h147l489 -1364h-156l-145 425h-523zM596 1180h-4l-217 -632h438z" />
    <glyph glyph-name="Betagreek" unicode="&#x392;" horiz-adv-x="1215" 
d="M170 0v1364h495c232 0 378 -129 378 -335c0 -158 -85 -262 -219 -304v-7c183 -24 297 -146 297 -338c0 -236 -177 -380 -473 -380h-478zM319 1229v-460h230c230 0 342 72 342 235c0 142 -92 225 -248 225h-324zM319 634v-498h258c276 0 392 72 392 241
c0 165 -115 257 -303 257h-347z" />
    <glyph glyph-name="Gammagreek" unicode="&#x393;" horiz-adv-x="1005" 
d="M319 0h-149v1364h772v-135h-623v-1229z" />
    <glyph glyph-name="Deltagreek" unicode="&#x394;" horiz-adv-x="1197" 
d="M51 0v100l476 1264h146l473 -1264v-100h-1095zM598 1171l-385 -1048h770l-380 1048h-5z" />
    <glyph glyph-name="Epsilongreek" unicode="&#x395;" horiz-adv-x="1093" 
d="M975 134v-136h-805v1364h805v-135h-656v-464h620v-135h-620v-494h656z" />
    <glyph glyph-name="Zetagreek" unicode="&#x396;" horiz-adv-x="1142" 
d="M85 0v108l756 1118v4h-729v134h914v-105l-752 -1120v-4h768v-135h-957z" />
    <glyph glyph-name="Etagreek" unicode="&#x397;" horiz-adv-x="1355" 
d="M1185 0h-149v641h-717v-641h-149v1364h149v-588h717v588h149v-1364z" />
    <glyph glyph-name="Thetagreek" unicode="&#x398;" horiz-adv-x="1326" 
d="M925 619h-525v135h525v-135zM265 782v-212c0 -303 156 -464 396 -464c242 0 401 157 401 464v212c0 312 -160 476 -401 476c-240 0 -396 -173 -396 -476zM116 571v210c0 375 204 613 547 613c345 0 547 -232 547 -613v-210c0 -377 -206 -600 -550 -600
c-345 0 -544 226 -544 600z" />
    <glyph glyph-name="Iotagreek" unicode="&#x399;" horiz-adv-x="493" 
d="M321 0h-149v1364h149v-1364z" />
    <glyph glyph-name="Kappagreek" unicode="&#x39a;" horiz-adv-x="1168" 
d="M1121 1364l-518 -583l546 -781h-192l-466 678l-172 -186v-492h-149v1364h149v-676h6l616 676h180z" />
    <glyph glyph-name="Lambdagreek" unicode="&#x39b;" horiz-adv-x="1149" 
d="M572 1171l-384 -1171h-157l470 1364h147l469 -1364h-156l-385 1171h-4z" />
    <glyph glyph-name="Mugreek" unicode="&#x39c;" horiz-adv-x="1577" 
d="M310 0h-135v1364h143l469 -1093h4l468 1093h143v-1364h-135v1030h-5l-406 -925h-135l-407 925h-4v-1030z" />
    <glyph glyph-name="Nugreek" unicode="&#x39d;" horiz-adv-x="1355" 
d="M314 0h-144v1364h149l718 -1108h4v1108h144v-1364h-149l-719 1108h-3v-1108z" />
    <glyph glyph-name="Xigreek" unicode="&#x39e;" horiz-adv-x="1141" 
d="M118 1225v139h905v-139h-905zM203 626v139h735v-139h-735zM118 0v140h905v-140h-905z" />
    <glyph glyph-name="Omicrongreek" unicode="&#x39f;" horiz-adv-x="1308" 
d="M265 782v-212c0 -312 167 -464 389 -464c224 0 390 152 390 464v212c0 312 -167 476 -390 476c-222 0 -389 -164 -389 -476zM116 571v210c0 384 214 613 540 613s536 -229 536 -613v-210c0 -383 -213 -600 -540 -600c-326 0 -536 217 -536 600z" />
    <glyph glyph-name="Pigreek" unicode="&#x3a0;" horiz-adv-x="1335" 
d="M1165 0h-149v1230h-697v-1230h-149v1364h995v-1364z" />
    <glyph glyph-name="Rhogreek" unicode="&#x3a1;" horiz-adv-x="1141" 
d="M170 1364h482c257 0 430 -165 430 -417c0 -254 -173 -417 -430 -417h-333v-530h-149v1364zM319 1229v-564h229c241 0 380 53 380 282c0 178 -102 282 -281 282h-328z" />
    <glyph glyph-name="Sigmagreek" unicode="&#x3a3;" horiz-adv-x="1104" 
d="M85 107l410 578l-400 573v106h902v-134h-712v-4l370 -522v-23l-384 -542v-4h732v-135h-918v107z" />
    <glyph glyph-name="Taugreek" unicode="&#x3a4;" horiz-adv-x="1042" 
d="M594 0h-147v1229h-422v135h992v-135h-423v-1229z" />
    <glyph glyph-name="Upsilongreek" unicode="&#x3a5;" horiz-adv-x="1080" 
d="M613 0h-146v600l-459 764h171l358 -617h6l358 617h171l-459 -764v-600z" />
    <glyph glyph-name="Phigreek" unicode="&#x3a6;" horiz-adv-x="1524" 
d="M834 -47h-144v107c-361 6 -574 239 -574 573v90c0 329 208 565 574 572v110h144v-110c366 -7 574 -242 574 -572v-90c0 -335 -214 -567 -574 -573v-107zM690 191v973c-268 -8 -430 -171 -430 -457v-59c0 -293 169 -448 430 -457zM834 191c261 9 430 164 430 457v59
c0 286 -163 449 -430 457v-973z" />
    <glyph glyph-name="Chigreek" unicode="&#x3a7;" horiz-adv-x="1118" 
d="M1103 1364l-458 -689l449 -675h-182l-357 557h-9l-360 -557h-171l452 687l-446 677h180l362 -557h9l359 557h172z" />
    <glyph glyph-name="Psigreek" unicode="&#x3a8;" horiz-adv-x="1431" 
d="M641 0v321c-309 10 -497 151 -497 478v565h149v-560c0 -253 114 -343 348 -348v908h149v-908c233 5 347 93 347 348v560h149v-565c0 -329 -188 -467 -496 -478v-321h-149z" />
    <glyph glyph-name="Omegagreek" unicode="&#x3a9;" horiz-adv-x="1340" 
d="M774 0v148c158 48 289 268 289 519v115c0 325 -172 476 -392 476c-227 0 -394 -156 -394 -476v-115c0 -244 127 -468 289 -519v-148h-450v136h251v9c-132 78 -239 274 -239 523v113c0 403 227 613 543 613c317 0 541 -210 541 -613v-113c0 -249 -107 -448 -239 -523v-9
h252v-136h-451z" />
    <glyph glyph-name="Alphatonosgreek" unicode="&#x386;" horiz-adv-x="1194" 
d="M193 0h-157l490 1364h147l489 -1364h-156l-145 425h-523zM601 1180h-4l-217 -632h438zM93 1073l70 291h156l-111 -291h-115z" />
    <glyph glyph-name="Epsilontonosgreek" unicode="&#x388;" horiz-adv-x="1353" 
d="M55 1073l70 291h156l-111 -291h-115zM1235 134v-136h-805v1364h805v-135h-656v-464h620v-135h-620v-494h656z" />
    <glyph glyph-name="Etatonosgreek" unicode="&#x389;" horiz-adv-x="1615" 
d="M55 1073l70 291h156l-111 -291h-115zM1445 0h-149v641h-717v-641h-149v1364h149v-588h717v588h149v-1364z" />
    <glyph glyph-name="Iotatonosgreek" unicode="&#x38a;" horiz-adv-x="753" 
d="M581 0h-149v1364h149v-1364zM55 1073l70 291h156l-111 -291h-115z" />
    <glyph glyph-name="Iotadieresisgreek" unicode="&#x3aa;" horiz-adv-x="493" 
d="M321 0h-149v1364h149v-1364zM96 1500c-46 0 -81 36 -81 84c0 50 35 85 81 85c47 0 82 -35 82 -85c0 -48 -35 -84 -82 -84zM395 1500c-45 0 -81 36 -81 84c0 50 36 85 81 85c48 0 82 -35 82 -85c0 -48 -34 -84 -82 -84z" />
    <glyph glyph-name="Omicrontonosgreek" unicode="&#x38c;" horiz-adv-x="1471" 
d="M428 782v-212c0 -312 167 -464 389 -464c224 0 390 152 390 464v212c0 312 -167 476 -390 476c-222 0 -389 -164 -389 -476zM279 571v210c0 384 214 613 540 613s536 -229 536 -613v-210c0 -383 -213 -600 -540 -600c-326 0 -536 217 -536 600zM55 1073l70 291h156
l-111 -291h-115z" />
    <glyph glyph-name="Upsilontonosgreek" unicode="&#x38e;" horiz-adv-x="1446" 
d="M55 1073l70 291h156l-111 -291h-115zM979 0h-146v600l-459 764h171l358 -617h6l358 617h171l-459 -764v-600z" />
    <glyph glyph-name="Upsilondieresisgreek" unicode="&#x3ab;" horiz-adv-x="1080" 
d="M613 0h-146v600l-459 764h171l358 -617h6l358 617h171l-459 -764v-600zM388 1500c-46 0 -81 36 -81 84c0 50 35 85 81 85c47 0 82 -35 82 -85c0 -48 -35 -84 -82 -84zM687 1500c-45 0 -81 36 -81 84c0 50 36 85 81 85c48 0 82 -35 82 -85c0 -48 -34 -84 -82 -84z" />
    <glyph glyph-name="Omegatonosgreek" unicode="&#x38f;" horiz-adv-x="1473" 
d="M907 0v148c158 48 289 268 289 519v115c0 325 -172 476 -392 476c-227 0 -394 -156 -394 -476v-115c0 -244 127 -468 289 -519v-148h-450v136h251v9c-132 78 -239 274 -239 523v113c0 403 227 613 543 613c317 0 541 -210 541 -613v-113c0 -249 -107 -448 -239 -523v-9
h252v-136h-451zM55 1073l70 291h156l-111 -291h-115z" />
    <glyph glyph-name="Acyrillic" unicode="&#x410;" horiz-adv-x="1209" 
d="M198 0h-157l490 1364h147l489 -1364h-156l-145 425h-523zM606 1180h-4l-217 -632h438z" />
    <glyph glyph-name="Becyrillic" unicode="&#x411;" horiz-adv-x="1177" 
d="M329 1229v-415h324c257 0 430 -161 430 -405c0 -247 -173 -409 -430 -409h-473v1364h800v-135h-651zM329 136h319c179 0 281 100 281 271c0 172 -102 271 -281 271h-319v-542z" />
    <glyph glyph-name="Vecyrillic" unicode="&#x412;" horiz-adv-x="1235" 
d="M180 0v1364h495c232 0 378 -129 378 -335c0 -158 -85 -262 -219 -304v-7c183 -24 297 -146 297 -338c0 -236 -177 -380 -473 -380h-478zM329 1229v-460h230c230 0 342 72 342 235c0 142 -92 225 -248 225h-324zM329 634v-498h258c276 0 392 72 392 241
c0 165 -115 257 -303 257h-347z" />
    <glyph glyph-name="Gecyrillic" unicode="&#x413;" horiz-adv-x="1051" 
d="M329 0h-149v1364h791v-135h-642v-1229z" />
    <glyph glyph-name="Decyrillic" unicode="&#x414;" horiz-adv-x="1383" 
d="M1001 135v1095h-549l-10 -316c-14 -410 -23 -658 -117 -775v-4h676zM163 -286h-135v421h112c132 88 141 274 154 791l10 438h845v-1229h180v-421h-135v286h-1031v-286z" />
    <glyph glyph-name="Iecyrillic" unicode="&#x415;" horiz-adv-x="1113" 
d="M985 136v-136h-805v1364h805v-135h-656v-464h620v-135h-620v-494h656z" />
    <glyph glyph-name="Iocyrillic" unicode="&#x401;" horiz-adv-x="1113" 
d="M429 1500c-46 0 -81 36 -81 84c0 50 35 85 81 85c47 0 82 -35 82 -85c0 -48 -35 -84 -82 -84zM728 1500c-45 0 -81 36 -81 84c0 50 36 85 81 85c48 0 82 -35 82 -85c0 -48 -34 -84 -82 -84zM985 136v-136h-805v1364h805v-135h-656v-464h620v-135h-620v-494h656z" />
    <glyph glyph-name="Zhecyrillic" unicode="&#x416;" horiz-adv-x="1773" 
d="M1092 713l653 -713h-193l-587 640h-5v-640h-149v640h-5l-587 -640h-190l649 709l-630 655h191l567 -590h5v590h149v-590h5l567 590h187z" />
    <glyph glyph-name="Zecyrillic" unicode="&#x417;" horiz-adv-x="1169" 
d="M404 638v131h175c171 0 288 96 288 254c0 142 -117 239 -281 239c-184 0 -294 -104 -303 -219h-143c4 170 150 351 446 351c279 0 432 -163 432 -361c0 -177 -113 -290 -264 -315v-9c178 -19 312 -148 312 -334c0 -243 -193 -405 -482 -405c-290 0 -465 157 -476 356h142
c13 -124 142 -225 337 -225c203 0 327 104 327 272c0 177 -127 265 -337 265h-173z" />
    <glyph glyph-name="Iicyrillic" unicode="&#x418;" horiz-adv-x="1376" 
d="M1047 0v1116h-4l-723 -1116h-140v1364h149v-1115h5l722 1115h140v-1364h-149z" />
    <glyph glyph-name="Iishortcyrillic" unicode="&#x419;" horiz-adv-x="1376" 
d="M398 1777h110c0 -101 68 -172 204 -172s203 71 203 172h110c0 -139 -100 -262 -313 -262s-314 123 -314 262zM1047 0v1116h-4l-723 -1116h-140v1364h149v-1115h5l722 1115h140v-1364h-149z" />
    <glyph glyph-name="Kacyrillic" unicode="&#x41a;" horiz-adv-x="1184" 
d="M961 0l-627 640h-5v-640h-149v1364h149v-590h5l607 590h189l-673 -652l698 -712h-194z" />
    <glyph glyph-name="Elcyrillic" unicode="&#x41b;" horiz-adv-x="1304" 
d="M300 927l10 437h814v-1364h-149v1230h-520l-10 -315c-18 -645 -42 -924 -341 -924c-32 0 -58 9 -58 9v139s21 -8 51 -8c169 0 191 243 203 796z" />
    <glyph glyph-name="Emcyrillic" unicode="&#x41c;" horiz-adv-x="1588" 
d="M316 0h-135v1364h143l469 -1093h4l468 1093h143v-1364h-135v1030h-5l-406 -925h-135l-407 925h-4v-1030z" />
    <glyph glyph-name="Encyrillic" unicode="&#x41d;" horiz-adv-x="1375" 
d="M1195 0h-149v641h-717v-641h-149v1364h149v-588h717v588h149v-1364z" />
    <glyph glyph-name="Ocyrillic" unicode="&#x41e;" horiz-adv-x="1328" 
d="M275 782v-212c0 -312 167 -464 389 -464c224 0 390 152 390 464v212c0 312 -167 476 -390 476c-222 0 -389 -164 -389 -476zM126 571v210c0 384 214 613 540 613s536 -229 536 -613v-210c0 -383 -213 -600 -540 -600c-326 0 -536 217 -536 600z" />
    <glyph glyph-name="Pecyrillic" unicode="&#x41f;" horiz-adv-x="1356" 
d="M1176 0h-149v1230h-698v-1230h-149v1364h996v-1364z" />
    <glyph glyph-name="Ercyrillic" unicode="&#x420;" horiz-adv-x="1170" 
d="M180 1364h482c257 0 430 -165 430 -417c0 -254 -173 -417 -430 -417h-333v-530h-149v1364zM329 1229v-564h229c241 0 380 53 380 282c0 178 -102 282 -281 282h-328z" />
    <glyph glyph-name="Escyrillic" unicode="&#x421;" horiz-adv-x="1263" 
d="M274 774v-191c0 -298 133 -477 381 -477c202 0 341 121 345 294h148c0 -245 -208 -429 -493 -429c-338 0 -529 232 -529 613v188c0 385 192 622 528 622c289 0 493 -195 493 -452h-148c-4 182 -141 316 -345 316c-246 0 -380 -181 -380 -484z" />
    <glyph glyph-name="Tecyrillic" unicode="&#x422;" horiz-adv-x="1062" 
d="M604 0h-147v1229h-422v135h992v-135h-423v-1229z" />
    <glyph glyph-name="Ucyrillic" unicode="&#x423;" horiz-adv-x="1091" 
d="M918 1364h156l-442 -1023c-106 -247 -214 -350 -392 -350c-33 0 -67 4 -81 9v143c17 -4 51 -9 82 -9c103 0 170 61 242 209l-465 1021h160l378 -847h4z" />
    <glyph glyph-name="Efcyrillic" unicode="&#x424;" horiz-adv-x="1568" 
d="M854 -10h-149v161c-378 7 -590 196 -590 522v24c0 331 215 525 590 535v142h149v-143c384 -4 599 -192 599 -523v-24c0 -333 -217 -527 -599 -535v-159zM264 673c0 -244 155 -380 441 -387v810c-283 -9 -441 -152 -441 -398v-25zM1304 709c0 245 -160 382 -450 386v-810
c288 7 450 151 450 398v26z" />
    <glyph glyph-name="Xacyrillic" unicode="&#x425;" horiz-adv-x="1138" 
d="M1113 1364l-458 -689l449 -675h-182l-357 557h-9l-360 -557h-171l452 687l-446 677h180l362 -557h9l359 557h172z" />
    <glyph glyph-name="Tsecyrillic" unicode="&#x426;" horiz-adv-x="1419" 
d="M1185 135h180v-421h-136v286h-44h-149h-856v1364h149v-1229h707v1229h149v-1229z" />
    <glyph glyph-name="Checyrillic" unicode="&#x427;" horiz-adv-x="1280" 
d="M1099 0h-148v650h-4c-3 -2 -122 -106 -343 -106c-288 0 -456 155 -456 436v384h149v-384c0 -202 110 -306 308 -306c214 0 343 118 346 121v569h148v-1364z" />
    <glyph glyph-name="Shacyrillic" unicode="&#x428;" horiz-adv-x="1857" 
d="M180 0v1364h149v-1229h525v1229h149v-1229h525v1229h149v-1364h-1497z" />
    <glyph glyph-name="Shchacyrillic" unicode="&#x429;" horiz-adv-x="1911" 
d="M1857 -286h-136v286h-1541v1364h149v-1229h525v1229h149v-1229h525v1229h149v-1229h180v-421z" />
    <glyph glyph-name="Hardsigncyrillic" unicode="&#x42a;" horiz-adv-x="1351" 
d="M843 0h-482v1229h-329v135h478v-512h333c257 0 429 -168 429 -424c0 -258 -172 -428 -429 -428zM837 136c179 0 282 107 282 290c0 184 -103 290 -282 290h-327v-580h327z" />
    <glyph glyph-name="Yericyrillic" unicode="&#x42b;" horiz-adv-x="1592" 
d="M1092 428c0 -259 -173 -428 -430 -428h-482v1364h149v-512h333c257 0 430 -167 430 -424zM657 716h-328v-580h328c179 0 281 107 281 290c0 184 -102 290 -281 290zM1412 0h-149v1364h149v-1364z" />
    <glyph glyph-name="Softsigncyrillic" unicode="&#x42c;" horiz-adv-x="1170" 
d="M662 0h-482v1364h149v-512h333c257 0 430 -168 430 -424c0 -258 -173 -428 -430 -428zM657 136c179 0 281 107 281 290c0 184 -102 290 -281 290h-328v-580h328z" />
    <glyph glyph-name="Ereversedcyrillic" unicode="&#x42d;" horiz-adv-x="1271" 
d="M614 -29c-347 0 -500 240 -500 429h148c0 -156 121 -294 346 -294c239 0 388 156 388 469v58h-582v131h582v18c0 308 -152 476 -383 476c-228 0 -350 -166 -350 -316h-148c0 213 165 452 498 452c326 0 532 -228 532 -611v-209c0 -390 -202 -603 -531 -603z" />
    <glyph glyph-name="IUcyrillic" unicode="&#x42e;" horiz-adv-x="1751" 
d="M1477 570v212c0 312 -163 476 -380 476c-216 0 -377 -164 -377 -476v-212c0 -312 161 -464 377 -464c218 0 380 152 380 464zM571 776v5c0 384 209 613 528 613c321 0 527 -229 527 -613v-210c0 -383 -210 -600 -530 -600c-321 0 -525 217 -525 600v70h-242v-641h-149
v1364h149v-588h242z" />
    <glyph glyph-name="IAcyrillic" unicode="&#x42f;" horiz-adv-x="1224" 
d="M576 686h319v543h-319c-188 0 -290 -95 -290 -271c0 -178 102 -272 290 -272zM895 551h-291h-4l-342 -551h-169l352 567c-191 34 -309 182 -309 388c0 252 172 409 442 409h470v-1364h-149v551z" />
    <glyph glyph-name="Djecyrillic" unicode="&#x402;" horiz-adv-x="1491" 
d="M611 714c71 62 207 106 325 106c280 0 439 -154 439 -426c0 -241 -168 -404 -416 -404c-39 0 -81 4 -100 10v131c19 -5 60 -8 98 -8c158 0 269 112 269 272c0 192 -102 295 -291 295c-119 0 -258 -50 -328 -121v-569h-149v1229h-423v135h995v-135h-423v-515h4z" />
    <glyph glyph-name="Gjecyrillic" unicode="&#x403;" horiz-adv-x="1051" 
d="M641 1514h-117l188 273h155zM329 0h-149v1364h791v-135h-642v-1229z" />
    <glyph glyph-name="Ecyrillic" unicode="&#x404;" horiz-adv-x="1272" 
d="M1009 400h148c0 -189 -153 -429 -500 -429c-329 0 -531 213 -531 603v209c0 383 206 611 532 611c333 0 498 -239 498 -452h-148c0 150 -122 316 -350 316c-231 0 -383 -168 -383 -476v-18h582v-131h-582v-58c0 -313 149 -469 388 -469c226 0 346 138 346 294z" />
    <glyph glyph-name="Dzecyrillic" unicode="&#x405;" horiz-adv-x="1167" 
d="M77 362h151c13 -135 126 -255 351 -255c198 0 328 98 328 255c0 123 -76 190 -237 232l-236 63c-162 43 -315 145 -315 353c0 250 222 387 463 387c229 0 457 -121 462 -380h-150c-12 134 -113 244 -315 244c-179 0 -308 -87 -308 -241c0 -107 65 -181 202 -217l231 -63
c215 -58 356 -153 356 -368c0 -264 -223 -401 -500 -401c-354 0 -478 219 -483 391z" />
    <glyph glyph-name="Icyrillic" unicode="&#x406;" horiz-adv-x="509" 
d="M329 0h-149v1364h149v-1364z" />
    <glyph glyph-name="Yicyrillic" unicode="&#x407;" horiz-adv-x="495" 
d="M322 0h-149v1364h149v-1364zM97 1500c-46 0 -81 36 -81 84c0 50 35 85 81 85c47 0 82 -35 82 -85c0 -48 -35 -84 -82 -84zM396 1500c-45 0 -81 36 -81 84c0 50 36 85 81 85c48 0 82 -35 82 -85c0 -48 -34 -84 -82 -84z" />
    <glyph glyph-name="Jecyrillic" unicode="&#x408;" horiz-adv-x="966" 
d="M39 300h146c4 -106 76 -192 223 -192c156 0 235 94 235 287v969h149v-969c0 -272 -140 -423 -384 -423c-225 0 -369 140 -369 328z" />
    <glyph glyph-name="Ljecyrillic" unicode="&#x409;" horiz-adv-x="1947" 
d="M445 915c-21 -645 -45 -924 -341 -924c-35 0 -61 9 -58 9v139c3 -2 22 -8 51 -8c166 0 195 242 203 796l7 437h799v-512h334c257 0 429 -168 429 -424c0 -258 -172 -428 -429 -428h-483v1230h-502zM1434 716h-328v-580h328c179 0 281 107 281 290
c0 184 -102 290 -281 290z" />
    <glyph glyph-name="Njecyrillic" unicode="&#x40a;" horiz-adv-x="2036" 
d="M1046 814v550h149v-550h333c257 0 429 -149 429 -404c0 -258 -172 -410 -429 -410h-482v679h-717v-679h-149v1364h149v-550h717zM1523 679h-328v-543h328c179 0 281 89 281 271c0 184 -102 272 -281 272z" />
    <glyph glyph-name="Tshecyrillic" unicode="&#x40b;" horiz-adv-x="1538" 
d="M611 714c71 62 207 106 325 106c273 0 429 -157 429 -436v-384h-149v385c0 199 -98 305 -281 305c-119 0 -258 -50 -328 -121v-569h-149v1229h-423v135h995v-135h-423v-515h4z" />
    <glyph glyph-name="Kjecyrillic" unicode="&#x40c;" horiz-adv-x="1184" 
d="M678 1514h-117l188 273h155zM961 0l-627 640h-5v-640h-149v1364h149v-590h5l607 590h189l-673 -652l698 -712h-194z" />
    <glyph glyph-name="Ushortcyrillic" unicode="&#x40e;" horiz-adv-x="1091" 
d="M757 1760h110c0 -139 -100 -262 -313 -262s-314 123 -314 262h110c0 -101 68 -172 204 -172s203 71 203 172zM918 1364h156l-442 -1023c-106 -247 -214 -350 -392 -350c-33 0 -67 4 -81 9v143c17 -4 51 -9 82 -9c103 0 170 61 242 209l-465 1021h160l378 -847h4z" />
    <glyph glyph-name="Dzhecyrillic" unicode="&#x40f;" horiz-adv-x="1365" 
d="M1036 1364h149v-1364h-434v-286h-136v286h-435v1364h149v-1229h707v1229z" />
    <glyph glyph-name="Geupturncyrillic" unicode="&#x490;" horiz-adv-x="1051" 
d="M836 1650h135v-286v-135h-642v-1229h-149v1364h656v286z" />
    <glyph glyph-name="A.sc" horiz-adv-x="1056" 
d="M195 0h-151l407 1071h155l406 -1071h-159l-114 321h-429zM528 913h-6l-173 -482h352z" />
    <glyph glyph-name="Agrave.sc" horiz-adv-x="1056" 
d="M597 1213h-116l-227 273h156zM195 0h-151l407 1071h155l406 -1071h-159l-114 321h-429zM528 913h-6l-173 -482h352z" />
    <glyph glyph-name="Aacute.sc" horiz-adv-x="1056" 
d="M575 1213h-116l187 273h155zM195 0h-151l407 1071h155l406 -1071h-159l-114 321h-429zM528 913h-6l-173 -482h352z" />
    <glyph glyph-name="Adieresis.sc" horiz-adv-x="1056" 
d="M195 0h-151l407 1071h155l406 -1071h-159l-114 321h-429zM528 913h-6l-173 -482h352zM374 1230c-48 0 -85 38 -85 87c0 52 37 89 85 89c49 0 85 -37 85 -89c0 -49 -36 -87 -85 -87zM706 1230c-47 0 -84 38 -84 87c0 52 37 89 84 89c50 0 87 -37 87 -89
c0 -49 -37 -87 -87 -87z" />
    <glyph glyph-name="Adieresismacron.sc" horiz-adv-x="1056" 
d="M195 0h-151l407 1071h155l406 -1071h-159l-114 321h-429zM528 913h-6l-173 -482h352zM373 1230c-48 0 -85 38 -85 87c0 52 37 89 85 89c49 0 85 -37 85 -89c0 -49 -36 -87 -85 -87zM705 1230c-47 0 -84 38 -84 87c0 52 37 89 84 89c50 0 87 -37 87 -89
c0 -49 -37 -87 -87 -87zM799 1568h-542v104h542v-104z" />
    <glyph glyph-name="Aring.sc" horiz-adv-x="1056" 
d="M195 0h-151l407 1071h155l406 -1071h-159l-114 321h-429zM528 913h-6l-173 -482h352zM528 1208c-103 0 -185 79 -185 181s82 180 185 180c101 0 184 -78 184 -180s-83 -181 -184 -181zM423 1389c0 -59 46 -107 105 -107s104 48 104 107s-45 106 -104 106
s-105 -47 -105 -106z" />
    <glyph glyph-name="Aringacute.sc" horiz-adv-x="1056" 
d="M583 1618h-112l140 191h152zM528 1208c-103 0 -185 79 -185 181s82 180 185 180c101 0 184 -78 184 -180s-83 -181 -184 -181zM423 1389c0 -59 46 -107 105 -107s104 48 104 107s-45 106 -104 106s-105 -47 -105 -106zM195 0h-151l407 1071h155l406 -1071h-159l-114 321
h-429zM528 913h-6l-173 -482h352z" />
    <glyph glyph-name="Atilde.sc" horiz-adv-x="1056" 
d="M195 0h-151l407 1071h155l406 -1071h-159l-114 321h-429zM528 913h-6l-173 -482h352zM634 1212c-131 0 -166 135 -242 135c-57 0 -70 -73 -70 -117h-106c0 114 60 218 176 218c132 0 168 -135 242 -135c53 0 74 69 77 118h106c0 -99 -59 -219 -183 -219z" />
    <glyph glyph-name="Abrevegrave.sc" horiz-adv-x="1056" 
d="M195 0h-151l407 1071h155l406 -1071h-159l-114 321h-429zM528 913h-6l-173 -482h352zM606 1480h-116l-227 273h156zM247 1476h107c0 -86 54 -166 174 -166c121 0 175 80 175 166h107c-1 -116 -81 -263 -282 -263c-200 0 -282 147 -281 263z" />
    <glyph glyph-name="Adotmacron.sc" horiz-adv-x="1056" 
d="M195 0h-151l407 1071h155l406 -1071h-159l-114 321h-429zM528 913h-6l-173 -482h352zM429 1320c0 57 44 99 97 99c57 0 100 -42 100 -99c0 -55 -43 -97 -100 -97c-53 0 -97 42 -97 97zM799 1568h-542v104h542v-104z" />
    <glyph glyph-name="Aringbelow.sc" horiz-adv-x="1056" 
d="M195 0h-151l407 1071h155l406 -1071h-159l-114 321h-429zM528 913h-6l-173 -482h352zM527 -490c-103 0 -185 79 -185 181s82 180 185 180c101 0 184 -78 184 -180s-83 -181 -184 -181zM422 -309c0 -59 46 -107 105 -107s104 48 104 107s-45 106 -104 106
s-105 -47 -105 -106z" />
    <glyph glyph-name="Acircumflex.sc" horiz-adv-x="1056" 
d="M274 1213l211 303h86l211 -303h-125l-128 196h-2l-128 -196h-125zM195 0h-151l407 1071h155l406 -1071h-159l-114 321h-429zM528 913h-6l-173 -482h352z" />
    <glyph glyph-name="Acircumflexdotbelow.sc" horiz-adv-x="1056" 
d="M274 1213l211 303h86l211 -303h-125l-128 196h-2l-128 -196h-125zM195 0h-151l407 1071h155l406 -1071h-159l-114 321h-429zM528 913h-6l-173 -482h352zM443 -275c0 52 38 90 86 90c49 0 86 -38 86 -90c0 -49 -37 -88 -86 -88c-48 0 -86 39 -86 88z" />
    <glyph glyph-name="Acircumflexacute.sc" horiz-adv-x="1056" 
d="M844 1438h-116l187 273h155zM274 1213l211 303h86l211 -303h-125l-128 196h-2l-128 -196h-125zM195 0h-151l407 1071h155l406 -1071h-159l-114 321h-429zM528 913h-6l-173 -482h352z" />
    <glyph glyph-name="Acircumflextilde.sc" horiz-adv-x="1056" 
d="M195 0h-151l407 1071h155l406 -1071h-159l-114 321h-429zM528 913h-6l-173 -482h352zM361 1623h-98c0 104 52 199 159 199c123 0 132 -124 197 -124c46 0 65 60 69 107h97c0 -89 -50 -200 -165 -200c-123 0 -129 125 -198 125c-48 0 -60 -65 -61 -107zM274 1213l211 303
h86l211 -303h-125l-128 196h-2l-128 -196h-125z" />
    <glyph glyph-name="Acircumflexgrave.sc" horiz-adv-x="1056" 
d="M951 1438h-116l-226 273h155zM274 1213l211 303h86l211 -303h-125l-128 196h-2l-128 -196h-125zM195 0h-151l407 1071h155l406 -1071h-159l-114 321h-429zM528 913h-6l-173 -482h352z" />
    <glyph glyph-name="Acircumflexhookabove.sc" horiz-adv-x="1056" 
d="M660 1645v89c16 10 55 19 99 19c115 0 192 -71 192 -173c0 -84 -58 -143 -139 -175l-52 73c66 28 92 56 92 100c0 50 -46 88 -106 88c-37 0 -71 -12 -86 -21zM274 1213l211 303h86l211 -303h-125l-128 196h-2l-128 -196h-125zM195 0h-151l407 1071h155l406 -1071h-159
l-114 321h-429zM528 913h-6l-173 -482h352z" />
    <glyph glyph-name="Abreve.sc" horiz-adv-x="1056" 
d="M195 0h-151l407 1071h155l406 -1071h-159l-114 321h-429zM528 913h-6l-173 -482h352zM247 1476h107c0 -86 54 -166 174 -166c121 0 175 80 175 166h107c-1 -116 -81 -263 -282 -263c-200 0 -282 147 -281 263z" />
    <glyph glyph-name="Abreveacute.sc" horiz-adv-x="1056" 
d="M195 0h-151l407 1071h155l406 -1071h-159l-114 321h-429zM528 913h-6l-173 -482h352zM563 1480h-117l188 273h155zM247 1476h107c0 -86 54 -166 174 -166c121 0 175 80 175 166h107c-1 -116 -81 -263 -282 -263c-200 0 -282 147 -281 263z" />
    <glyph glyph-name="Abrevetilde.sc" horiz-adv-x="1056" 
d="M195 0h-151l407 1071h155l406 -1071h-159l-114 321h-429zM528 913h-6l-173 -482h352zM362 1610h-97c0 104 51 199 159 199c123 0 132 -125 197 -125c45 0 65 61 68 108h98c0 -89 -50 -200 -165 -200c-123 0 -130 125 -198 125c-49 0 -61 -65 -62 -107zM247 1476h107
c0 -86 54 -166 174 -166c121 0 175 80 175 166h107c-1 -116 -81 -263 -282 -263c-200 0 -282 147 -281 263z" />
    <glyph glyph-name="Abrevehookabove.sc" horiz-adv-x="1056" 
d="M195 0h-151l407 1071h155l406 -1071h-159l-114 321h-429zM528 913h-6l-173 -482h352zM355 1701v88c17 11 56 19 99 19c116 0 193 -70 193 -172c0 -84 -58 -143 -139 -175l-53 73c66 28 92 55 92 100c0 49 -46 88 -106 88c-37 0 -71 -13 -86 -21zM247 1476h107
c0 -86 54 -166 174 -166c121 0 175 80 175 166h107c-1 -116 -81 -263 -282 -263c-200 0 -282 147 -281 263z" />
    <glyph glyph-name="Abrevedotbelow.sc" horiz-adv-x="1056" 
d="M443 -275c0 52 38 90 86 90c49 0 86 -38 86 -90c0 -49 -37 -88 -86 -88c-48 0 -86 39 -86 88zM195 0h-151l407 1071h155l406 -1071h-159l-114 321h-429zM528 913h-6l-173 -482h352zM247 1476h107c0 -86 54 -166 174 -166c121 0 175 80 175 166h107
c-1 -116 -81 -263 -282 -263c-200 0 -282 147 -281 263z" />
    <glyph glyph-name="Ainvertedbreve.sc" horiz-adv-x="1056" 
d="M195 0h-151l407 1071h155l406 -1071h-159l-114 321h-429zM528 913h-6l-173 -482h352zM246 1231c-1 117 81 264 282 264s280 -148 281 -264h-108c0 87 -53 166 -173 166s-174 -79 -174 -166h-108z" />
    <glyph glyph-name="Acaron.sc" horiz-adv-x="1056" 
d="M275 1516h125l128 -196h3l127 196h126l-212 -303h-86zM195 0h-151l407 1071h155l406 -1071h-159l-114 321h-429zM528 913h-6l-173 -482h352z" />
    <glyph glyph-name="Adotaccent.sc" horiz-adv-x="1056" 
d="M429 1320c0 57 44 99 97 99c57 0 100 -42 100 -99c0 -55 -43 -97 -100 -97c-53 0 -97 42 -97 97zM195 0h-151l407 1071h155l406 -1071h-159l-114 321h-429zM528 913h-6l-173 -482h352z" />
    <glyph glyph-name="Adotbelow.sc" horiz-adv-x="1056" 
d="M442 -275c0 52 38 90 86 90c49 0 86 -38 86 -90c0 -49 -37 -88 -86 -88c-48 0 -86 39 -86 88zM195 0h-151l407 1071h155l406 -1071h-159l-114 321h-429zM528 913h-6l-173 -482h352z" />
    <glyph glyph-name="Ahookabove.sc" horiz-adv-x="1056" 
d="M195 0h-151l407 1071h155l406 -1071h-159l-114 321h-429zM528 913h-6l-173 -482h352zM392 1451v91c19 11 58 19 104 19c118 0 197 -73 197 -178c0 -86 -60 -144 -143 -180l-55 76c68 28 94 58 94 103c0 49 -46 91 -109 91c-37 0 -71 -13 -88 -22z" />
    <glyph glyph-name="Adblgrave.sc" horiz-adv-x="1056" 
d="M195 0h-151l407 1071h155l406 -1071h-159l-114 321h-429zM528 913h-6l-173 -482h352zM355 1213l-223 274h137l189 -274h-103zM613 1213l-224 274h137l189 -274h-102z" />
    <glyph glyph-name="Amacron.sc" horiz-adv-x="1056" 
d="M195 0h-151l407 1071h155l406 -1071h-159l-114 321h-429zM528 913h-6l-173 -482h352zM800 1272h-542v104h542v-104z" />
    <glyph glyph-name="Aogonek.sc" horiz-adv-x="1056" 
d="M1021 -374c-16 -7 -55 -18 -118 -18c-105 0 -218 57 -218 188c0 121 86 189 157 235l-103 290h-429l-115 -321h-151l407 1071h155l406 -1071c-67 -18 -181 -73 -186 -169c-5 -76 47 -111 113 -111c23 0 57 3 82 9v-103zM528 913h-6l-173 -482h352z" />
    <glyph glyph-name="B.sc" horiz-adv-x="1077" 
d="M161 0v1071h430c194 0 325 -98 325 -264c0 -134 -83 -209 -188 -238v-5c155 -19 252 -117 252 -264c0 -195 -164 -300 -399 -300h-420zM309 951v-340h185c176 0 272 49 272 173c0 117 -85 167 -201 167h-256zM309 491v-371h207c181 0 312 33 312 180
c0 130 -100 191 -244 191h-275z" />
    <glyph glyph-name="Blinebelow.sc" horiz-adv-x="1077" 
d="M771 -325h-542v104h542v-104zM161 0v1071h430c194 0 325 -98 325 -264c0 -134 -83 -209 -188 -238v-5c155 -19 252 -117 252 -264c0 -195 -164 -300 -399 -300h-420zM309 951v-340h185c176 0 272 49 272 173c0 117 -85 167 -201 167h-256zM309 491v-371h207
c181 0 312 33 312 180c0 130 -100 191 -244 191h-275z" />
    <glyph glyph-name="Bdotbelow.sc" horiz-adv-x="1077" 
d="M416 -275c0 52 38 90 86 90c49 0 86 -38 86 -90c0 -49 -37 -88 -86 -88c-48 0 -86 39 -86 88zM161 0v1071h430c194 0 325 -98 325 -264c0 -134 -83 -209 -188 -238v-5c155 -19 252 -117 252 -264c0 -195 -164 -300 -399 -300h-420zM309 951v-340h185
c176 0 272 49 272 173c0 117 -85 167 -201 167h-256zM309 491v-371h207c181 0 312 33 312 180c0 130 -100 191 -244 191h-275z" />
    <glyph glyph-name="Bdotaccent.sc" horiz-adv-x="1077" 
d="M401 1320c0 57 44 99 97 99c57 0 100 -42 100 -99c0 -55 -43 -97 -100 -97c-53 0 -97 42 -97 97zM161 0v1071h430c194 0 325 -98 325 -264c0 -134 -83 -209 -188 -238v-5c155 -19 252 -117 252 -264c0 -195 -164 -300 -399 -300h-420zM309 951v-340h185
c176 0 272 49 272 173c0 117 -85 167 -201 167h-256zM309 491v-371h207c181 0 312 33 312 180c0 130 -100 191 -244 191h-275z" />
    <glyph glyph-name="C.sc" horiz-adv-x="1100" 
d="M264 610v-156c0 -236 118 -354 308 -354c180 0 275 105 275 226h146v-5c0 -158 -136 -343 -427 -343c-281 0 -451 170 -451 476v157c0 302 174 482 453 482s424 -184 424 -359v-5h-146c0 116 -96 242 -278 242c-183 0 -304 -127 -304 -361z" />
    <glyph glyph-name="Cacute.sc" horiz-adv-x="1100" 
d="M614 1213h-116l187 273h155zM264 610v-156c0 -236 118 -354 308 -354c180 0 275 105 275 226h146v-5c0 -158 -136 -343 -427 -343c-281 0 -451 170 -451 476v157c0 302 174 482 453 482s424 -184 424 -359v-5h-146c0 116 -96 242 -278 242c-183 0 -304 -127 -304 -361z
" />
    <glyph glyph-name="Ccaron.sc" horiz-adv-x="1100" 
d="M313 1516h125l128 -196h3l127 196h126l-212 -303h-86zM264 610v-156c0 -236 118 -354 308 -354c180 0 275 105 275 226h146v-5c0 -158 -136 -343 -427 -343c-281 0 -451 170 -451 476v157c0 302 174 482 453 482s424 -184 424 -359v-5h-146c0 116 -96 242 -278 242
c-183 0 -304 -127 -304 -361z" />
    <glyph glyph-name="Ccircumflex.sc" horiz-adv-x="1100" 
d="M313 1213l211 303h86l211 -303h-125l-128 196h-2l-128 -196h-125zM264 610v-156c0 -236 118 -354 308 -354c180 0 275 105 275 226h146v-5c0 -158 -136 -343 -427 -343c-281 0 -451 170 -451 476v157c0 302 174 482 453 482s424 -184 424 -359v-5h-146
c0 116 -96 242 -278 242c-183 0 -304 -127 -304 -361z" />
    <glyph glyph-name="Cdotaccent.sc" horiz-adv-x="1100" 
d="M468 1320c0 57 44 99 97 99c57 0 100 -42 100 -99c0 -55 -43 -97 -100 -97c-53 0 -97 42 -97 97zM264 610v-156c0 -236 118 -354 308 -354c180 0 275 105 275 226h146v-5c0 -158 -136 -343 -427 -343c-281 0 -451 170 -451 476v157c0 302 174 482 453 482
s424 -184 424 -359v-5h-146c0 116 -96 242 -278 242c-183 0 -304 -127 -304 -361z" />
    <glyph glyph-name="Ccedilla.sc" horiz-adv-x="1100" 
d="M569 -465c-59 -3 -120 7 -148 15v97c27 -8 84 -14 118 -14c57 0 123 19 123 84c0 70 -68 73 -142 73h-52v71l46 118c-251 21 -399 189 -399 475v157c0 302 174 482 453 482s424 -184 424 -359v-5h-146c0 116 -96 242 -278 242c-183 0 -304 -127 -304 -361v-156
c0 -236 118 -354 308 -354c180 0 275 105 275 226h146v-5c0 -147 -119 -319 -371 -341l-38 -101c125 0 204 -50 204 -159c0 -125 -101 -180 -219 -185z" />
    <glyph glyph-name="Ccedillaacute.sc" horiz-adv-x="1100" 
d="M569 -465c-59 -3 -120 7 -148 15v97c27 -8 84 -14 118 -14c57 0 123 19 123 84c0 70 -68 73 -142 73h-52v71l46 118c-251 21 -399 189 -399 475v157c0 302 174 482 453 482s424 -184 424 -359v-5h-146c0 116 -96 242 -278 242c-183 0 -304 -127 -304 -361v-156
c0 -236 118 -354 308 -354c180 0 275 105 275 226h146v-5c0 -147 -119 -319 -371 -341l-38 -101c125 0 204 -50 204 -159c0 -125 -101 -180 -219 -185zM614 1213h-116l187 273h155z" />
    <glyph glyph-name="D.sc" horiz-adv-x="1137" 
d="M161 1071h368c370 0 508 -222 508 -535c0 -309 -132 -536 -508 -536h-368v1071zM310 951v-831h209c251 0 365 144 365 415c0 252 -101 416 -365 416h-209z" />
    <glyph glyph-name="Ddotaccent.sc" horiz-adv-x="1137" 
d="M161 1071h368c370 0 508 -222 508 -535c0 -309 -132 -536 -508 -536h-368v1071zM310 951v-831h209c251 0 365 144 365 415c0 252 -101 416 -365 416h-209zM399 1320c0 57 44 99 97 99c57 0 100 -42 100 -99c0 -55 -43 -97 -100 -97c-53 0 -97 42 -97 97z" />
    <glyph glyph-name="Dcircumflexbelow.sc" horiz-adv-x="1137" 
d="M161 1071h368c370 0 508 -222 508 -535c0 -309 -132 -536 -508 -536h-368v1071zM310 951v-831h209c251 0 365 144 365 415c0 252 -101 416 -365 416h-209zM246 -407l206 292h92l206 -292h-124l-127 198h-2l-127 -198h-124z" />
    <glyph glyph-name="Dcommaaccent.sc" horiz-adv-x="1137" 
d="M161 1071h368c370 0 508 -222 508 -535c0 -309 -132 -536 -508 -536h-368v1071zM310 951v-831h209c251 0 365 144 365 415c0 252 -101 416 -365 416h-209zM470 -488h-119l85 335h148z" />
    <glyph glyph-name="Dlinebelow.sc" horiz-adv-x="1137" 
d="M161 1071h368c370 0 508 -222 508 -535c0 -309 -132 -536 -508 -536h-368v1071zM310 951v-831h209c251 0 365 144 365 415c0 252 -101 416 -365 416h-209zM769 -325h-542v104h542v-104z" />
    <glyph glyph-name="Dcaron.sc" horiz-adv-x="1137" 
d="M161 1071h368c370 0 508 -222 508 -535c0 -309 -132 -536 -508 -536h-368v1071zM310 951v-831h209c251 0 365 144 365 415c0 252 -101 416 -365 416h-209zM244 1516h125l128 -196h3l127 196h126l-212 -303h-86z" />
    <glyph glyph-name="Ddotbelow.sc" horiz-adv-x="1137" 
d="M161 1071h368c370 0 508 -222 508 -535c0 -309 -132 -536 -508 -536h-368v1071zM310 951v-831h209c251 0 365 144 365 415c0 252 -101 416 -365 416h-209zM414 -275c0 52 38 90 86 90c49 0 86 -38 86 -90c0 -49 -37 -88 -86 -88c-48 0 -86 39 -86 88z" />
    <glyph glyph-name="Dcroat.sc" horiz-adv-x="1201" 
d="M594 0h-368v487h-137v120h137v464h368c370 0 508 -222 508 -535c0 -309 -132 -536 -508 -536zM374 120h210c250 0 364 145 364 416c0 252 -100 415 -364 415h-210v-344h258v-120h-258v-367z" />
    <glyph glyph-name="E.sc" horiz-adv-x="970" 
d="M854 120v-120h-693v1071h693v-121h-545v-343h514v-120h-514v-367h545z" />
    <glyph glyph-name="Egrave.sc" horiz-adv-x="970" 
d="M575 1213h-116l-227 273h156zM854 120v-120h-693v1071h693v-121h-545v-343h514v-120h-514v-367h545z" />
    <glyph glyph-name="Edblgrave.sc" horiz-adv-x="970" 
d="M333 1213l-223 274h137l189 -274h-103zM591 1213l-224 274h137l189 -274h-102zM854 120v-120h-693v1071h693v-121h-545v-343h514v-120h-514v-367h545z" />
    <glyph glyph-name="Eacute.sc" horiz-adv-x="970" 
d="M553 1213h-116l187 273h155zM854 120v-120h-693v1071h693v-121h-545v-343h514v-120h-514v-367h545z" />
    <glyph glyph-name="Ecircumflex.sc" horiz-adv-x="970" 
d="M252 1213l211 303h86l211 -303h-125l-128 196h-2l-128 -196h-125zM854 120v-120h-693v1071h693v-121h-545v-343h514v-120h-514v-367h545z" />
    <glyph glyph-name="Ecircumflexhookabove.sc" horiz-adv-x="970" 
d="M638 1645v89c16 10 55 19 99 19c115 0 192 -71 192 -173c0 -84 -58 -143 -139 -175l-52 73c66 28 92 56 92 100c0 50 -46 88 -106 88c-37 0 -71 -12 -86 -21zM252 1213l211 303h86l211 -303h-125l-128 196h-2l-128 -196h-125zM854 120v-120h-693v1071h693v-121h-545v-343
h514v-120h-514v-367h545z" />
    <glyph glyph-name="Ecircumflexgrave.sc" horiz-adv-x="970" 
d="M929 1438h-116l-226 273h155zM252 1213l211 303h86l211 -303h-125l-128 196h-2l-128 -196h-125zM854 120v-120h-693v1071h693v-121h-545v-343h514v-120h-514v-367h545z" />
    <glyph glyph-name="Ecircumflextilde.sc" horiz-adv-x="970" 
d="M339 1623h-98c0 104 52 199 159 199c123 0 132 -124 197 -124c46 0 65 60 69 107h97c0 -89 -50 -200 -165 -200c-123 0 -129 125 -198 125c-48 0 -60 -65 -61 -107zM252 1213l211 303h86l211 -303h-125l-128 196h-2l-128 -196h-125zM854 120v-120h-693v1071h693v-121
h-545v-343h514v-120h-514v-367h545z" />
    <glyph glyph-name="Ecircumflexdotbelow.sc" horiz-adv-x="970" 
d="M252 1213l211 303h86l211 -303h-125l-128 196h-2l-128 -196h-125zM854 120v-120h-693v1071h693v-121h-545v-343h514v-120h-514v-367h545zM422 -275c0 52 38 90 86 90c49 0 86 -38 86 -90c0 -49 -37 -88 -86 -88c-48 0 -86 39 -86 88z" />
    <glyph glyph-name="Ecircumflexacute.sc" horiz-adv-x="970" 
d="M822 1438h-116l187 273h155zM252 1213l211 303h86l211 -303h-125l-128 196h-2l-128 -196h-125zM854 120v-120h-693v1071h693v-121h-545v-343h514v-120h-514v-367h545z" />
    <glyph glyph-name="Edieresis.sc" horiz-adv-x="970" 
d="M351 1230c-48 0 -85 38 -85 87c0 52 37 89 85 89c49 0 85 -37 85 -89c0 -49 -36 -87 -85 -87zM683 1230c-47 0 -84 38 -84 87c0 52 37 89 84 89c50 0 87 -37 87 -89c0 -49 -37 -87 -87 -87zM854 120v-120h-693v1071h693v-121h-545v-343h514v-120h-514v-367h545z" />
    <glyph glyph-name="Edotbelow.sc" horiz-adv-x="970" 
d="M422 -275c0 52 38 90 86 90c49 0 86 -38 86 -90c0 -49 -37 -88 -86 -88c-48 0 -86 39 -86 88zM854 120v-120h-693v1071h693v-121h-545v-343h514v-120h-514v-367h545z" />
    <glyph glyph-name="Einvertedbreve.sc" horiz-adv-x="970" 
d="M854 120v-120h-693v1071h693v-121h-545v-343h514v-120h-514v-367h545zM224 1231c-1 117 81 264 282 264s280 -148 281 -264h-108c0 87 -53 166 -173 166s-174 -79 -174 -166h-108z" />
    <glyph glyph-name="Ehookabove.sc" horiz-adv-x="970" 
d="M370 1451v91c19 11 58 19 104 19c118 0 197 -73 197 -178c0 -86 -60 -144 -143 -180l-55 76c68 28 94 58 94 103c0 49 -46 91 -109 91c-37 0 -71 -13 -88 -22zM854 120v-120h-693v1071h693v-121h-545v-343h514v-120h-514v-367h545z" />
    <glyph glyph-name="Ecaron.sc" horiz-adv-x="970" 
d="M252 1516h125l128 -196h3l127 196h126l-212 -303h-86zM854 120v-120h-693v1071h693v-121h-545v-343h514v-120h-514v-367h545z" />
    <glyph glyph-name="Emacron.sc" horiz-adv-x="970" 
d="M777 1272h-542v104h542v-104zM854 120v-120h-693v1071h693v-121h-545v-343h514v-120h-514v-367h545z" />
    <glyph glyph-name="Emacrongrave.sc" horiz-adv-x="970" 
d="M854 120v-120h-693v1071h693v-121h-545v-343h514v-120h-514v-367h545zM575 1517h-116l-227 273h156zM777 1272h-542v104h542v-104z" />
    <glyph glyph-name="Emacronacute.sc" horiz-adv-x="970" 
d="M553 1517h-116l187 273h155zM777 1272h-542v104h542v-104zM854 120v-120h-693v1071h693v-121h-545v-343h514v-120h-514v-367h545z" />
    <glyph glyph-name="Etilde.sc" horiz-adv-x="970" 
d="M612 1212c-131 0 -166 135 -242 135c-57 0 -70 -73 -70 -117h-106c0 114 60 218 176 218c132 0 168 -135 242 -135c53 0 74 69 77 118h106c0 -99 -59 -219 -183 -219zM854 120v-120h-693v1071h693v-121h-545v-343h514v-120h-514v-367h545z" />
    <glyph glyph-name="Ecircumflexbelow.sc" horiz-adv-x="970" 
d="M854 120v-120h-693v1071h693v-121h-545v-343h514v-120h-514v-367h545zM254 -407l206 292h92l206 -292h-124l-127 198h-2l-127 -198h-124z" />
    <glyph glyph-name="Ebreve.sc" horiz-adv-x="970" 
d="M225 1476h107c0 -86 54 -166 174 -166c121 0 175 80 175 166h107c-1 -116 -81 -263 -282 -263c-200 0 -282 147 -281 263zM854 120v-120h-693v1071h693v-121h-545v-343h514v-120h-514v-367h545z" />
    <glyph glyph-name="Etildebelow.sc" horiz-adv-x="970" 
d="M613 -372c-125 0 -160 128 -230 128c-50 0 -63 -67 -64 -111h-99c0 108 53 205 163 205c126 0 161 -128 229 -128c48 0 68 63 71 111h100c0 -92 -53 -205 -170 -205zM854 120v-120h-693v1071h693v-121h-545v-343h514v-120h-514v-367h545z" />
    <glyph glyph-name="Edotaccent.sc" horiz-adv-x="970" 
d="M407 1320c0 57 44 99 97 99c57 0 100 -42 100 -99c0 -55 -43 -97 -100 -97c-53 0 -97 42 -97 97zM854 120v-120h-693v1071h693v-121h-545v-343h514v-120h-514v-367h545z" />
    <glyph glyph-name="Ecedilla.sc" horiz-adv-x="970" 
d="M497 -484c-59 -3 -119 7 -147 15v97c27 -8 83 -14 117 -14c58 0 123 19 123 84c0 70 -76 73 -151 73h-52v71l60 158h-286v1071h693v-122h-545v-344h514v-118h-514v-366h545v-121h-299l-52 -140c125 0 214 -50 214 -159c0 -125 -102 -180 -220 -185z" />
    <glyph glyph-name="Ecedillabreve.sc" horiz-adv-x="970" 
d="M497 -484c-59 -3 -119 7 -147 15v97c27 -8 83 -14 117 -14c58 0 123 19 123 84c0 70 -76 73 -151 73h-52v71l60 158h-286v1071h693v-122h-545v-344h514v-118h-514v-366h545v-121h-299l-52 -140c125 0 214 -50 214 -159c0 -125 -102 -180 -220 -185zM223 1476h107
c0 -86 54 -166 174 -166c121 0 175 80 175 166h107c-1 -116 -81 -263 -282 -263c-200 0 -282 147 -281 263z" />
    <glyph glyph-name="Eogonek.sc" horiz-adv-x="970" 
d="M745 -383c-115 0 -215 57 -215 189c0 87 53 153 126 194h-495v1071h693v-122h-545v-344h514v-118h-514v-366h545v-106c-85 -21 -195 -79 -195 -183c0 -67 44 -102 117 -102c26 0 59 4 78 9v-104c-23 -8 -65 -18 -109 -18z" />
    <glyph glyph-name="F.sc" horiz-adv-x="914" 
d="M310 0h-149v1071h683v-122h-534v-366h489v-120h-489v-463z" />
    <glyph glyph-name="Fdotaccent.sc" horiz-adv-x="914" 
d="M310 0h-149v1071h683v-122h-534v-366h489v-120h-489v-463zM384 1320c0 57 44 99 97 99c57 0 100 -42 100 -99c0 -55 -43 -97 -100 -97c-53 0 -97 42 -97 97z" />
    <glyph glyph-name="G.sc" horiz-adv-x="1120" 
d="M1001 748h-146c-18 146 -136 223 -281 223c-172 0 -310 -109 -310 -358v-149c0 -223 102 -364 307 -364c170 0 290 96 290 235v102h-295v120h438v-219c0 -150 -111 -360 -431 -360c-307 0 -458 192 -458 486v150c0 301 181 479 462 479c270 0 413 -164 424 -345z" />
    <glyph glyph-name="Gacute.sc" horiz-adv-x="1120" 
d="M1001 748h-146c-18 146 -136 223 -281 223c-172 0 -310 -109 -310 -358v-149c0 -223 102 -364 307 -364c170 0 290 96 290 235v102h-295v120h438v-219c0 -150 -111 -360 -431 -360c-307 0 -458 192 -458 486v150c0 301 181 479 462 479c270 0 413 -164 424 -345z
M621 1213h-116l187 273h155z" />
    <glyph glyph-name="Gcaron.sc" horiz-adv-x="1120" 
d="M1001 748h-146c-18 146 -136 223 -281 223c-172 0 -310 -109 -310 -358v-149c0 -223 102 -364 307 -364c170 0 290 96 290 235v102h-295v120h438v-219c0 -150 -111 -360 -431 -360c-307 0 -458 192 -458 486v150c0 301 181 479 462 479c270 0 413 -164 424 -345z
M320 1516h125l128 -196h3l127 196h126l-212 -303h-86z" />
    <glyph glyph-name="Gcircumflex.sc" horiz-adv-x="1120" 
d="M1001 748h-146c-18 146 -136 223 -281 223c-172 0 -310 -109 -310 -358v-149c0 -223 102 -364 307 -364c170 0 290 96 290 235v102h-295v120h438v-219c0 -150 -111 -360 -431 -360c-307 0 -458 192 -458 486v150c0 301 181 479 462 479c270 0 413 -164 424 -345z
M320 1213l211 303h86l211 -303h-125l-128 196h-2l-128 -196h-125z" />
    <glyph glyph-name="Gbreve.sc" horiz-adv-x="1120" 
d="M1001 748h-146c-18 146 -136 223 -281 223c-172 0 -310 -109 -310 -358v-149c0 -223 102 -364 307 -364c170 0 290 96 290 235v102h-295v120h438v-219c0 -150 -111 -360 -431 -360c-307 0 -458 192 -458 486v150c0 301 181 479 462 479c270 0 413 -164 424 -345z
M293 1476h107c0 -86 54 -166 174 -166c121 0 175 80 175 166h107c-1 -116 -81 -263 -282 -263c-200 0 -282 147 -281 263z" />
    <glyph glyph-name="Gmacron.sc" horiz-adv-x="1120" 
d="M1001 748h-146c-18 146 -136 223 -281 223c-172 0 -310 -109 -310 -358v-149c0 -223 102 -364 307 -364c170 0 290 96 290 235v102h-295v120h438v-219c0 -150 -111 -360 -431 -360c-307 0 -458 192 -458 486v150c0 301 181 479 462 479c270 0 413 -164 424 -345z
M845 1272h-542v104h542v-104z" />
    <glyph glyph-name="Gdotaccent.sc" horiz-adv-x="1120" 
d="M1001 748h-146c-18 146 -136 223 -281 223c-172 0 -310 -109 -310 -358v-149c0 -223 102 -364 307 -364c170 0 290 96 290 235v102h-295v120h438v-219c0 -150 -111 -360 -431 -360c-307 0 -458 192 -458 486v150c0 301 181 479 462 479c270 0 413 -164 424 -345z
M475 1320c0 57 44 99 97 99c57 0 100 -42 100 -99c0 -55 -43 -97 -100 -97c-53 0 -97 42 -97 97z" />
    <glyph glyph-name="Gcommaaccent.sc" horiz-adv-x="1120" 
d="M1001 748h-146c-18 146 -136 223 -281 223c-172 0 -310 -109 -310 -358v-149c0 -223 102 -364 307 -364c170 0 290 96 290 235v102h-295v120h438v-219c0 -150 -111 -360 -431 -360c-307 0 -458 192 -458 486v150c0 301 181 479 462 479c270 0 413 -164 424 -345z
M541 -488h-119l85 335h148z" />
    <glyph glyph-name="H.sc" horiz-adv-x="1196" 
d="M1035 0h-149v493h-576v-493h-149v1071h149v-457h576v457h149v-1071z" />
    <glyph glyph-name="Hdieresis.sc" horiz-adv-x="1196" 
d="M1035 0h-149v493h-576v-493h-149v1071h149v-457h576v457h149v-1071zM443 1230c-48 0 -85 38 -85 87c0 52 37 89 85 89c49 0 85 -37 85 -89c0 -49 -36 -87 -85 -87zM775 1230c-47 0 -84 38 -84 87c0 52 37 89 84 89c50 0 87 -37 87 -89c0 -49 -37 -87 -87 -87z" />
    <glyph glyph-name="Hcaron.sc" horiz-adv-x="1196" 
d="M345 1516h125l128 -196h3l127 196h126l-212 -303h-86zM1035 0h-149v493h-576v-493h-149v1071h149v-457h576v457h149v-1071z" />
    <glyph glyph-name="Hcircumflex.sc" horiz-adv-x="1196" 
d="M343 1213l211 303h86l211 -303h-125l-128 196h-2l-128 -196h-125zM1035 0h-149v493h-576v-493h-149v1071h149v-457h576v457h149v-1071z" />
    <glyph glyph-name="Hdotbelow.sc" horiz-adv-x="1196" 
d="M512 -275c0 52 38 90 86 90c49 0 86 -38 86 -90c0 -49 -37 -88 -86 -88c-48 0 -86 39 -86 88zM1035 0h-149v493h-576v-493h-149v1071h149v-457h576v457h149v-1071z" />
    <glyph glyph-name="Hdotaccent.sc" horiz-adv-x="1196" 
d="M498 1320c0 57 44 99 97 99c57 0 100 -42 100 -99c0 -55 -43 -97 -100 -97c-53 0 -97 42 -97 97zM1035 0h-149v493h-576v-493h-149v1071h149v-457h576v457h149v-1071z" />
    <glyph glyph-name="Hbrevebelow.sc" horiz-adv-x="1196" 
d="M1035 0h-149v493h-576v-493h-149v1071h149v-457h576v457h149v-1071zM778 -145h109c0 -118 -77 -264 -290 -264s-299 142 -299 264h117c0 -87 58 -166 182 -166s181 79 181 166z" />
    <glyph glyph-name="Hcedilla.sc" horiz-adv-x="1196" 
d="M252 -484c-59 -3 -120 7 -148 15v97c27 -8 84 -14 118 -14c57 0 123 19 123 84c0 70 -77 73 -151 73h-52v71l60 158h-41v1071h149v-457h576v457h149v-1071h-149v493h-576v-493l-52 -140c125 0 214 -50 214 -159c0 -125 -102 -180 -220 -185z" />
    <glyph glyph-name="Hbar.sc" horiz-adv-x="1196" 
d="M310 594h576v192h-576v-192zM310 474v-474h-149v786h-94v102h94v183h149v-183h576v183h149v-183h94v-102h-94v-786h-149v474h-576z" />
    <glyph glyph-name="I.sc" horiz-adv-x="473" 
d="M311 0h-149v1071h149v-1071z" />
    <glyph glyph-name="Idotaccent.sc" horiz-adv-x="473" 
d="M137 1320c0 57 44 99 97 99c57 0 100 -42 100 -99c0 -55 -43 -97 -100 -97c-53 0 -97 42 -97 97zM311 0h-149v1071h149v-1071z" />
    <glyph glyph-name="Igrave.sc" horiz-adv-x="473" 
d="M305 1213h-116l-227 273h156zM311 0h-149v1071h149v-1071z" />
    <glyph glyph-name="Idblgrave.sc" horiz-adv-x="473" 
d="M311 0h-149v1071h149v-1071zM63 1213l-223 274h137l189 -274h-103zM321 1213l-224 274h137l189 -274h-102z" />
    <glyph glyph-name="Iacute.sc" horiz-adv-x="473" 
d="M283 1213h-116l187 273h155zM311 0h-149v1071h149v-1071z" />
    <glyph glyph-name="Icircumflex.sc" horiz-adv-x="473" 
d="M-18 1213l211 303h86l211 -303h-125l-128 196h-2l-128 -196h-125zM311 0h-149v1071h149v-1071z" />
    <glyph glyph-name="Icaron.sc" horiz-adv-x="473" 
d="M-18 1516h125l128 -196h3l127 196h126l-212 -303h-86zM311 0h-149v1071h149v-1071z" />
    <glyph glyph-name="Idieresis.sc" horiz-adv-x="473" 
d="M310 0h-149v1071h149v-1071zM81 1230c-48 0 -85 38 -85 87c0 52 37 89 85 89c49 0 85 -37 85 -89c0 -49 -36 -87 -85 -87zM413 1230c-47 0 -84 38 -84 87c0 52 37 89 84 89c50 0 87 -37 87 -89c0 -49 -37 -87 -87 -87z" />
    <glyph glyph-name="Idieresisacute.sc" horiz-adv-x="473" 
d="M283 1517h-116l187 273h155zM81 1230c-48 0 -85 38 -85 87c0 52 37 89 85 89c49 0 85 -37 85 -89c0 -49 -36 -87 -85 -87zM413 1230c-47 0 -84 38 -84 87c0 52 37 89 84 89c50 0 87 -37 87 -89c0 -49 -37 -87 -87 -87zM311 0h-149v1071h149v-1071z" />
    <glyph glyph-name="Ibreve.sc" horiz-adv-x="473" 
d="M311 0h-149v1071h149v-1071zM-45 1476h107c0 -86 54 -166 174 -166c121 0 175 80 175 166h107c-1 -116 -81 -263 -282 -263c-200 0 -282 147 -281 263z" />
    <glyph glyph-name="Idotbelow.sc" horiz-adv-x="473" 
d="M152 -275c0 52 38 90 86 90c49 0 86 -38 86 -90c0 -49 -37 -88 -86 -88c-48 0 -86 39 -86 88zM313 0h-149v1071h149v-1071z" />
    <glyph glyph-name="Iinvertedbreve.sc" horiz-adv-x="473" 
d="M311 0h-149v1071h149v-1071zM-46 1231c-1 117 81 264 282 264s280 -148 281 -264h-108c0 87 -53 166 -173 166s-174 -79 -174 -166h-108z" />
    <glyph glyph-name="Imacron.sc" horiz-adv-x="473" 
d="M310 0h-149v1071h149v-1071zM507 1272h-542v104h542v-104z" />
    <glyph glyph-name="Itildebelow.sc" horiz-adv-x="473" 
d="M343 -372c-125 0 -160 128 -230 128c-50 0 -63 -67 -64 -111h-99c0 108 53 205 163 205c126 0 161 -128 229 -128c48 0 68 63 71 111h100c0 -92 -53 -205 -170 -205zM311 0h-149v1071h149v-1071z" />
    <glyph glyph-name="Ihookabove.sc" horiz-adv-x="473" 
d="M311 0h-149v1071h149v-1071zM100 1451v91c19 11 58 19 104 19c118 0 197 -73 197 -178c0 -86 -60 -144 -143 -180l-55 76c68 28 94 58 94 103c0 49 -46 91 -109 91c-37 0 -71 -13 -88 -22z" />
    <glyph glyph-name="Itilde.sc" horiz-adv-x="473" 
d="M311 0h-149v1071h149v-1071zM342 1212c-131 0 -166 135 -242 135c-57 0 -70 -73 -70 -117h-106c0 114 60 218 176 218c132 0 168 -135 242 -135c53 0 74 69 77 118h106c0 -99 -59 -219 -183 -219z" />
    <glyph glyph-name="Iogonek.sc" horiz-adv-x="473" 
d="M347 -364c-15 -8 -55 -19 -102 -19c-120 0 -216 66 -216 190c0 119 69 176 133 226v1038h149v-1071c-78 -26 -150 -79 -150 -168c0 -63 50 -102 115 -102c20 0 47 3 71 9v-103z" />
    <glyph glyph-name="J.sc" horiz-adv-x="862" 
d="M43 252h146c3 -89 79 -148 177 -148c113 0 193 57 193 196v771h149v-760c0 -226 -140 -332 -341 -332c-203 0 -324 118 -324 273z" />
    <glyph glyph-name="Jcircumflex.sc" horiz-adv-x="862" 
d="M378 1213l211 303h86l211 -303h-125l-128 196h-2l-128 -196h-125zM43 252h146c3 -89 79 -148 177 -148c113 0 193 57 193 196v771h149v-760c0 -226 -140 -332 -341 -332c-203 0 -324 118 -324 273z" />
    <glyph glyph-name="K.sc" horiz-adv-x="1043" 
d="M990 1071l-431 -459l454 -612h-188l-377 517l-138 -141v-376h-149v1071h149v-519h6l500 519h174z" />
    <glyph glyph-name="Kacute.sc" horiz-adv-x="1043" 
d="M566 1213h-116l187 273h155zM990 1071l-431 -459l454 -612h-188l-377 517l-138 -141v-376h-149v1071h149v-519h6l500 519h174z" />
    <glyph glyph-name="Kcaron.sc" horiz-adv-x="1043" 
d="M265 1516h125l128 -196h3l127 196h126l-212 -303h-86zM990 1071l-431 -459l454 -612h-188l-377 517l-138 -141v-376h-149v1071h149v-519h6l500 519h174z" />
    <glyph glyph-name="Kdotbelow.sc" horiz-adv-x="1043" 
d="M437 -275c0 52 38 90 86 90c49 0 86 -38 86 -90c0 -49 -37 -88 -86 -88c-48 0 -86 39 -86 88zM990 1071l-431 -459l454 -612h-188l-377 517l-138 -141v-376h-149v1071h149v-519h6l500 519h174z" />
    <glyph glyph-name="Klinebelow.sc" horiz-adv-x="1043" 
d="M792 -325h-542v104h542v-104zM990 1071l-431 -459l454 -612h-188l-377 517l-138 -141v-376h-149v1071h149v-519h6l500 519h174z" />
    <glyph glyph-name="Kcommaaccent.sc" horiz-adv-x="1043" 
d="M493 -488h-119l85 335h148zM990 1071l-431 -459l454 -612h-188l-377 517l-138 -141v-376h-149v1071h149v-519h6l500 519h174z" />
    <glyph glyph-name="L.sc" horiz-adv-x="883" 
d="M839 120v-120h-678v1071h149v-951h529z" />
    <glyph glyph-name="Lacute.sc" horiz-adv-x="883" 
d="M839 120v-120h-678v1071h149v-951h529zM283 1213h-116l187 273h155z" />
    <glyph glyph-name="Lcircumflexbelow.sc" horiz-adv-x="883" 
d="M839 120v-120h-678v1071h149v-951h529zM188 -407l206 292h92l206 -292h-124l-127 198h-2l-127 -198h-124z" />
    <glyph glyph-name="Ldotbelow.sc" horiz-adv-x="883" 
d="M839 120v-120h-678v1071h149v-951h529zM356 -275c0 52 38 90 86 90c49 0 86 -38 86 -90c0 -49 -37 -88 -86 -88c-48 0 -86 39 -86 88z" />
    <glyph glyph-name="Ldotbelowmacron.sc" horiz-adv-x="883" 
d="M839 120v-120h-678v1071h149v-951h529zM356 -275c0 52 38 90 86 90c49 0 86 -38 86 -90c0 -49 -37 -88 -86 -88c-48 0 -86 39 -86 88zM507 1272h-542v104h542v-104z" />
    <glyph glyph-name="Llinebelow.sc" horiz-adv-x="883" 
d="M839 120v-120h-678v1071h149v-951h529zM711 -325h-542v104h542v-104z" />
    <glyph glyph-name="Lcommaaccent.sc" horiz-adv-x="883" 
d="M839 120v-120h-678v1071h149v-951h529zM412 -488h-119l85 335h148z" />
    <glyph glyph-name="Lcaron.sc" horiz-adv-x="883" 
d="M509 1152h147l-47 -488h-100v488zM839 120v-120h-678v1071h149v-951h529z" />
    <glyph glyph-name="Lslash.sc" horiz-adv-x="893" 
d="M849 0h-678v424l-111 -59v131l111 60v515h148v-436l319 173v-132l-319 -173v-383h530v-120z" />
    <glyph glyph-name="M.sc" horiz-adv-x="1384" 
d="M298 0h-134v1071h147l378 -826h6l379 826h146v-1071h-135v792h-7l-325 -697h-121l-326 697h-8v-792z" />
    <glyph glyph-name="Macute.sc" horiz-adv-x="1384" 
d="M738 1213h-116l187 273h155zM298 0h-134v1071h147l378 -826h6l379 826h146v-1071h-135v792h-7l-325 -697h-121l-326 697h-8v-792z" />
    <glyph glyph-name="Mdotaccent.sc" horiz-adv-x="1384" 
d="M592 1320c0 57 44 99 97 99c57 0 100 -42 100 -99c0 -55 -43 -97 -100 -97c-53 0 -97 42 -97 97zM298 0h-134v1071h147l378 -826h6l379 826h146v-1071h-135v792h-7l-325 -697h-121l-326 697h-8v-792z" />
    <glyph glyph-name="Mdotbelow.sc" horiz-adv-x="1384" 
d="M606 -275c0 52 38 90 86 90c49 0 86 -38 86 -90c0 -49 -37 -88 -86 -88c-48 0 -86 39 -86 88zM298 0h-134v1071h147l378 -826h6l379 826h146v-1071h-135v792h-7l-325 -697h-121l-326 697h-8v-792z" />
    <glyph glyph-name="N.sc" horiz-adv-x="1191" 
d="M306 0h-145v1071h140l577 -834h6v834h147v-1071h-141l-577 835h-7v-835z" />
    <glyph glyph-name="Ngrave.sc" horiz-adv-x="1191" 
d="M306 0h-145v1071h140l577 -834h6v834h147v-1071h-141l-577 835h-7v-835zM664 1213h-116l-227 273h156z" />
    <glyph glyph-name="Nacute.sc" horiz-adv-x="1191" 
d="M306 0h-145v1071h140l577 -834h6v834h147v-1071h-141l-577 835h-7v-835zM642 1213h-116l187 273h155z" />
    <glyph glyph-name="Ntilde.sc" horiz-adv-x="1191" 
d="M306 0h-145v1071h140l577 -834h6v834h147v-1071h-141l-577 835h-7v-835zM701 1212c-131 0 -166 135 -242 135c-57 0 -70 -73 -70 -117h-106c0 114 60 218 176 218c132 0 168 -135 242 -135c53 0 74 69 77 118h106c0 -99 -59 -219 -183 -219z" />
    <glyph glyph-name="Ndotbelow.sc" horiz-adv-x="1191" 
d="M509 -275c0 52 38 90 86 90c49 0 86 -38 86 -90c0 -49 -37 -88 -86 -88c-48 0 -86 39 -86 88zM306 0h-145v1071h140l577 -834h6v834h147v-1071h-141l-577 835h-7v-835z" />
    <glyph glyph-name="Ndotaccent.sc" horiz-adv-x="1191" 
d="M306 0h-145v1071h140l577 -834h6v834h147v-1071h-141l-577 835h-7v-835zM496 1320c0 57 44 99 97 99c57 0 100 -42 100 -99c0 -55 -43 -97 -100 -97c-53 0 -97 42 -97 97z" />
    <glyph glyph-name="Ncaron.sc" horiz-adv-x="1191" 
d="M343 1516h125l128 -196h3l127 196h126l-212 -303h-86zM306 0h-145v1071h140l577 -834h6v834h147v-1071h-141l-577 835h-7v-835z" />
    <glyph glyph-name="Ncircumflexbelow.sc" horiz-adv-x="1191" 
d="M306 0h-145v1071h140l577 -834h6v834h147v-1071h-141l-577 835h-7v-835zM343 -407l206 292h92l206 -292h-124l-127 198h-2l-127 -198h-124z" />
    <glyph glyph-name="Nlinebelow.sc" horiz-adv-x="1191" 
d="M306 0h-145v1071h140l577 -834h6v834h147v-1071h-141l-577 835h-7v-835zM868 -325h-542v104h542v-104z" />
    <glyph glyph-name="Ncommaaccent.sc" horiz-adv-x="1191" 
d="M306 0h-145v1071h140l577 -834h6v834h147v-1071h-141l-577 835h-7v-835zM567 -488h-119l85 335h148z" />
    <glyph glyph-name="O.sc" horiz-adv-x="1154" 
d="M263 611v-161c0 -236 133 -350 313 -350c181 0 313 114 313 350v161c0 236 -133 360 -313 360s-313 -124 -313 -360zM115 451v159c0 302 181 483 463 483c283 0 461 -182 461 -483v-159c0 -300 -181 -473 -464 -473s-460 173 -460 473z" />
    <glyph glyph-name="Odieresis.sc" horiz-adv-x="1154" 
d="M263 611v-161c0 -236 133 -350 313 -350c181 0 313 114 313 350v161c0 236 -133 360 -313 360s-313 -124 -313 -360zM115 451v159c0 302 181 483 463 483c283 0 461 -182 461 -483v-159c0 -300 -181 -473 -464 -473s-460 173 -460 473zM423 1230c-48 0 -85 38 -85 87
c0 52 37 89 85 89c49 0 85 -37 85 -89c0 -49 -36 -87 -85 -87zM755 1230c-47 0 -84 38 -84 87c0 52 37 89 84 89c50 0 87 -37 87 -89c0 -49 -37 -87 -87 -87z" />
    <glyph glyph-name="Oslash.sc" horiz-adv-x="1154" 
d="M575 -22c-134 0 -245 39 -323 114l-86 -99l-80 61l100 115c-46 75 -71 169 -71 282v159c0 302 181 483 463 483c130 0 238 -39 316 -111l83 96l84 -57l-101 -114c51 -79 79 -178 79 -297v-159c0 -300 -181 -473 -464 -473zM263 450c0 -62 9 -116 27 -161l513 589
c-56 61 -135 94 -227 94c-181 0 -313 -124 -313 -361v-161zM576 99c182 0 315 114 315 351v161c0 68 -13 127 -33 176l-516 -591c56 -64 138 -97 234 -97z" />
    <glyph glyph-name="Otilde.sc" horiz-adv-x="1154" 
d="M263 611v-161c0 -236 133 -350 313 -350c181 0 313 114 313 350v161c0 236 -133 360 -313 360s-313 -124 -313 -360zM115 451v159c0 302 181 483 463 483c283 0 461 -182 461 -483v-159c0 -300 -181 -473 -464 -473s-460 173 -460 473zM683 1212
c-131 0 -166 135 -242 135c-57 0 -70 -73 -70 -117h-106c0 114 60 218 176 218c132 0 168 -135 242 -135c53 0 74 69 77 118h106c0 -99 -59 -219 -183 -219z" />
    <glyph glyph-name="Oacute.sc" horiz-adv-x="1154" 
d="M263 611v-161c0 -236 133 -350 313 -350c181 0 313 114 313 350v161c0 236 -133 360 -313 360s-313 -124 -313 -360zM115 451v159c0 302 181 483 463 483c283 0 461 -182 461 -483v-159c0 -300 -181 -473 -464 -473s-460 173 -460 473zM624 1213h-116l187 273h155z" />
    <glyph glyph-name="Ocircumflex.sc" horiz-adv-x="1154" 
d="M263 611v-161c0 -236 133 -350 313 -350c181 0 313 114 313 350v161c0 236 -133 360 -313 360s-313 -124 -313 -360zM115 451v159c0 302 181 483 463 483c283 0 461 -182 461 -483v-159c0 -300 -181 -473 -464 -473s-460 173 -460 473zM323 1213l211 303h86l211 -303
h-125l-128 196h-2l-128 -196h-125z" />
    <glyph glyph-name="Ograve.sc" horiz-adv-x="1154" 
d="M263 611v-161c0 -236 133 -350 313 -350c181 0 313 114 313 350v161c0 236 -133 360 -313 360s-313 -124 -313 -360zM115 451v159c0 302 181 483 463 483c283 0 461 -182 461 -483v-159c0 -300 -181 -473 -464 -473s-460 173 -460 473zM646 1213h-116l-227 273h156z" />
    <glyph glyph-name="Ocircumflexhookabove.sc" horiz-adv-x="1154" 
d="M263 611v-161c0 -236 133 -350 313 -350c181 0 313 114 313 350v161c0 236 -133 360 -313 360s-313 -124 -313 -360zM115 451v159c0 302 181 483 463 483c283 0 461 -182 461 -483v-159c0 -300 -181 -473 -464 -473s-460 173 -460 473zM709 1645v89c16 10 55 19 99 19
c115 0 192 -71 192 -173c0 -84 -58 -143 -139 -175l-52 73c66 28 92 56 92 100c0 50 -46 88 -106 88c-37 0 -71 -12 -86 -21zM323 1213l211 303h86l211 -303h-125l-128 196h-2l-128 -196h-125z" />
    <glyph glyph-name="Ocircumflexgrave.sc" horiz-adv-x="1154" 
d="M263 611v-161c0 -236 133 -350 313 -350c181 0 313 114 313 350v161c0 236 -133 360 -313 360s-313 -124 -313 -360zM115 451v159c0 302 181 483 463 483c283 0 461 -182 461 -483v-159c0 -300 -181 -473 -464 -473s-460 173 -460 473zM1000 1438h-116l-226 273h155z
M323 1213l211 303h86l211 -303h-125l-128 196h-2l-128 -196h-125z" />
    <glyph glyph-name="Odotbelow.sc" horiz-adv-x="1154" 
d="M263 611v-161c0 -236 133 -350 313 -350c181 0 313 114 313 350v161c0 236 -133 360 -313 360s-313 -124 -313 -360zM115 451v159c0 302 181 483 463 483c283 0 461 -182 461 -483v-159c0 -300 -181 -473 -464 -473s-460 173 -460 473zM491 -275c0 52 38 90 86 90
c49 0 86 -38 86 -90c0 -49 -37 -88 -86 -88c-48 0 -86 39 -86 88z" />
    <glyph glyph-name="Odblgrave.sc" horiz-adv-x="1154" 
d="M263 611v-161c0 -236 133 -350 313 -350c181 0 313 114 313 350v161c0 236 -133 360 -313 360s-313 -124 -313 -360zM115 451v159c0 302 181 483 463 483c283 0 461 -182 461 -483v-159c0 -300 -181 -473 -464 -473s-460 173 -460 473zM404 1213l-223 274h137l189 -274
h-103zM662 1213l-224 274h137l189 -274h-102z" />
    <glyph glyph-name="Otildeacute.sc" horiz-adv-x="1154" 
d="M263 611v-161c0 -236 133 -350 313 -350c181 0 313 114 313 350v161c0 236 -133 360 -313 360s-313 -124 -313 -360zM115 451v159c0 302 181 483 463 483c283 0 461 -182 461 -483v-159c0 -300 -181 -473 -464 -473s-460 173 -460 473zM619 1517h-116l187 273h155z
M683 1212c-131 0 -166 135 -242 135c-57 0 -70 -73 -70 -117h-106c0 114 60 218 176 218c132 0 168 -135 242 -135c53 0 74 69 77 118h106c0 -99 -59 -219 -183 -219z" />
    <glyph glyph-name="Omacronacute.sc" horiz-adv-x="1154" 
d="M263 611v-161c0 -236 133 -350 313 -350c181 0 313 114 313 350v161c0 236 -133 360 -313 360s-313 -124 -313 -360zM115 451v159c0 302 181 483 463 483c283 0 461 -182 461 -483v-159c0 -300 -181 -473 -464 -473s-460 173 -460 473zM624 1517h-116l187 273h155z
M848 1272h-542v104h542v-104z" />
    <glyph glyph-name="Ocircumflextilde.sc" horiz-adv-x="1154" 
d="M263 611v-161c0 -236 133 -350 313 -350c181 0 313 114 313 350v161c0 236 -133 360 -313 360s-313 -124 -313 -360zM115 451v159c0 302 181 483 463 483c283 0 461 -182 461 -483v-159c0 -300 -181 -473 -464 -473s-460 173 -460 473zM410 1623h-98
c0 104 52 199 159 199c123 0 132 -124 197 -124c46 0 65 60 69 107h97c0 -89 -50 -200 -165 -200c-123 0 -129 125 -198 125c-48 0 -60 -65 -61 -107zM323 1213l211 303h86l211 -303h-125l-128 196h-2l-128 -196h-125z" />
    <glyph glyph-name="Odotaccentmacron.sc" horiz-adv-x="1154" 
d="M263 611v-161c0 -236 133 -350 313 -350c181 0 313 114 313 350v161c0 236 -133 360 -313 360s-313 -124 -313 -360zM115 451v159c0 302 181 483 463 483c283 0 461 -182 461 -483v-159c0 -300 -181 -473 -464 -473s-460 173 -460 473zM478 1320c0 57 44 99 97 99
c57 0 100 -42 100 -99c0 -55 -43 -97 -100 -97c-53 0 -97 42 -97 97zM848 1568h-542v104h542v-104z" />
    <glyph glyph-name="Omacrongrave.sc" horiz-adv-x="1154" 
d="M263 611v-161c0 -236 133 -350 313 -350c181 0 313 114 313 350v161c0 236 -133 360 -313 360s-313 -124 -313 -360zM115 451v159c0 302 181 483 463 483c283 0 461 -182 461 -483v-159c0 -300 -181 -473 -464 -473s-460 173 -460 473zM646 1517h-116l-227 273h156z
M848 1272h-542v104h542v-104z" />
    <glyph glyph-name="Ocaron.sc" horiz-adv-x="1154" 
d="M263 611v-161c0 -236 133 -350 313 -350c181 0 313 114 313 350v161c0 236 -133 360 -313 360s-313 -124 -313 -360zM115 451v159c0 302 181 483 463 483c283 0 461 -182 461 -483v-159c0 -300 -181 -473 -464 -473s-460 173 -460 473zM325 1516h125l128 -196h3l127 196
h126l-212 -303h-86z" />
    <glyph glyph-name="Oslashacute.sc" horiz-adv-x="1154" 
d="M623 1213h-116l187 273h155zM575 -22c-134 0 -245 39 -323 114l-86 -99l-80 61l100 115c-46 75 -71 169 -71 282v159c0 302 181 483 463 483c130 0 238 -39 316 -111l83 96l84 -57l-101 -114c51 -79 79 -178 79 -297v-159c0 -300 -181 -473 -464 -473zM263 450
c0 -62 9 -116 27 -161l513 589c-56 61 -135 94 -227 94c-181 0 -313 -124 -313 -361v-161zM576 99c182 0 315 114 315 351v161c0 68 -13 127 -33 176l-516 -591c56 -64 138 -97 234 -97z" />
    <glyph glyph-name="Ohungarumlaut.sc" horiz-adv-x="1154" 
d="M263 611v-161c0 -236 133 -350 313 -350c181 0 313 114 313 350v161c0 236 -133 360 -313 360s-313 -124 -313 -360zM115 451v159c0 302 181 483 463 483c283 0 461 -182 461 -483v-159c0 -300 -181 -473 -464 -473s-460 173 -460 473zM475 1213h-102l190 273h137z
M733 1213h-104l191 273h137z" />
    <glyph glyph-name="Obreve.sc" horiz-adv-x="1154" 
d="M263 611v-161c0 -236 133 -350 313 -350c181 0 313 114 313 350v161c0 236 -133 360 -313 360s-313 -124 -313 -360zM115 451v159c0 302 181 483 463 483c283 0 461 -182 461 -483v-159c0 -300 -181 -473 -464 -473s-460 173 -460 473zM296 1476h107
c0 -86 54 -166 174 -166c121 0 175 80 175 166h107c-1 -116 -81 -263 -282 -263c-200 0 -282 147 -281 263z" />
    <glyph glyph-name="Oinvertedbreve.sc" horiz-adv-x="1154" 
d="M263 611v-161c0 -236 133 -350 313 -350c181 0 313 114 313 350v161c0 236 -133 360 -313 360s-313 -124 -313 -360zM115 451v159c0 302 181 483 463 483c283 0 461 -182 461 -483v-159c0 -300 -181 -473 -464 -473s-460 173 -460 473zM295 1231c-1 117 81 264 282 264
s280 -148 281 -264h-108c0 87 -53 166 -173 166s-174 -79 -174 -166h-108z" />
    <glyph glyph-name="Ohookabove.sc" horiz-adv-x="1154" 
d="M263 611v-161c0 -236 133 -350 313 -350c181 0 313 114 313 350v161c0 236 -133 360 -313 360s-313 -124 -313 -360zM115 451v159c0 302 181 483 463 483c283 0 461 -182 461 -483v-159c0 -300 -181 -473 -464 -473s-460 173 -460 473zM441 1451v91c19 11 58 19 104 19
c118 0 197 -73 197 -178c0 -86 -60 -144 -143 -180l-55 76c68 28 94 58 94 103c0 49 -46 91 -109 91c-37 0 -71 -13 -88 -22z" />
    <glyph glyph-name="Odieresismacron.sc" horiz-adv-x="1154" 
d="M263 611v-161c0 -236 133 -350 313 -350c181 0 313 114 313 350v161c0 236 -133 360 -313 360s-313 -124 -313 -360zM115 451v159c0 302 181 483 463 483c283 0 461 -182 461 -483v-159c0 -300 -181 -473 -464 -473s-460 173 -460 473zM422 1230c-48 0 -85 38 -85 87
c0 52 37 89 85 89c49 0 85 -37 85 -89c0 -49 -36 -87 -85 -87zM754 1230c-47 0 -84 38 -84 87c0 52 37 89 84 89c50 0 87 -37 87 -89c0 -49 -37 -87 -87 -87zM848 1568h-542v104h542v-104z" />
    <glyph glyph-name="Otildemacron.sc" horiz-adv-x="1154" 
d="M263 611v-161c0 -236 133 -350 313 -350c181 0 313 114 313 350v161c0 236 -133 360 -313 360s-313 -124 -313 -360zM115 451v159c0 302 181 483 463 483c283 0 461 -182 461 -483v-159c0 -300 -181 -473 -464 -473s-460 173 -460 473zM683 1212
c-131 0 -166 135 -242 135c-57 0 -70 -73 -70 -117h-106c0 114 60 218 176 218c132 0 168 -135 242 -135c53 0 74 69 77 118h106c0 -99 -59 -219 -183 -219zM848 1568h-542v104h542v-104z" />
    <glyph glyph-name="Odotaccent.sc" horiz-adv-x="1154" 
d="M263 611v-161c0 -236 133 -350 313 -350c181 0 313 114 313 350v161c0 236 -133 360 -313 360s-313 -124 -313 -360zM115 451v159c0 302 181 483 463 483c283 0 461 -182 461 -483v-159c0 -300 -181 -473 -464 -473s-460 173 -460 473zM478 1320c0 57 44 99 97 99
c57 0 100 -42 100 -99c0 -55 -43 -97 -100 -97c-53 0 -97 42 -97 97z" />
    <glyph glyph-name="Ocircumflexdotbelow.sc" horiz-adv-x="1154" 
d="M323 1213l211 303h86l211 -303h-125l-128 196h-2l-128 -196h-125zM263 611v-161c0 -236 133 -350 313 -350c181 0 313 114 313 350v161c0 236 -133 360 -313 360s-313 -124 -313 -360zM115 451v159c0 302 181 483 463 483c283 0 461 -182 461 -483v-159
c0 -300 -181 -473 -464 -473s-460 173 -460 473zM492 -275c0 52 38 90 86 90c49 0 86 -38 86 -90c0 -49 -37 -88 -86 -88c-48 0 -86 39 -86 88z" />
    <glyph glyph-name="Ocircumflexacute.sc" horiz-adv-x="1154" 
d="M263 611v-161c0 -236 133 -350 313 -350c181 0 313 114 313 350v161c0 236 -133 360 -313 360s-313 -124 -313 -360zM115 451v159c0 302 181 483 463 483c283 0 461 -182 461 -483v-159c0 -300 -181 -473 -464 -473s-460 173 -460 473zM893 1438h-116l187 273h155z
M323 1213l211 303h86l211 -303h-125l-128 196h-2l-128 -196h-125z" />
    <glyph glyph-name="Otildedieresis.sc" horiz-adv-x="1154" 
d="M683 1212c-131 0 -166 135 -242 135c-57 0 -70 -73 -70 -117h-106c0 114 60 218 176 218c132 0 168 -135 242 -135c53 0 74 69 77 118h106c0 -99 -59 -219 -183 -219zM422 1531c-48 0 -85 38 -85 87c0 52 37 89 85 89c49 0 85 -37 85 -89c0 -49 -36 -87 -85 -87z
M754 1531c-47 0 -84 38 -84 87c0 52 37 89 84 89c50 0 87 -37 87 -89c0 -49 -37 -87 -87 -87zM263 611v-161c0 -236 133 -350 313 -350c181 0 313 114 313 350v161c0 236 -133 360 -313 360s-313 -124 -313 -360zM115 451v159c0 302 181 483 463 483
c283 0 461 -182 461 -483v-159c0 -300 -181 -473 -464 -473s-460 173 -460 473z" />
    <glyph glyph-name="Omacron.sc" horiz-adv-x="1154" 
d="M263 611v-161c0 -236 133 -350 313 -350c181 0 313 114 313 350v161c0 236 -133 360 -313 360s-313 -124 -313 -360zM115 451v159c0 302 181 483 463 483c283 0 461 -182 461 -483v-159c0 -300 -181 -473 -464 -473s-460 173 -460 473zM849 1272h-542v104h542v-104z" />
    <glyph glyph-name="Oogonek.sc" horiz-adv-x="1154" 
d="M708 -6c-40 -14 -89 -16 -127 -16c-291 0 -466 173 -466 473v159c0 302 181 483 463 483c283 0 461 -182 461 -483v-159c0 -167 -68 -282 -143 -366c-39 -43 -147 -129 -147 -244c0 -78 47 -104 106 -104c21 0 58 3 85 9v-108c-12 -7 -58 -20 -114 -20
c-119 0 -206 60 -206 176c0 78 39 152 89 197zM263 611v-161c0 -236 133 -350 313 -350c181 0 313 114 313 350v161c0 236 -133 360 -313 360s-313 -124 -313 -360z" />
    <glyph glyph-name="Oogonekmacron.sc" horiz-adv-x="1154" 
d="M708 -6c-40 -14 -89 -16 -127 -16c-291 0 -466 173 -466 473v159c0 302 181 483 463 483c283 0 461 -182 461 -483v-159c0 -167 -68 -282 -143 -366c-39 -43 -147 -129 -147 -244c0 -78 47 -104 106 -104c21 0 58 3 85 9v-108c-12 -7 -58 -20 -114 -20
c-119 0 -206 60 -206 176c0 78 39 152 89 197zM263 611v-161c0 -236 133 -350 313 -350c181 0 313 114 313 350v161c0 236 -133 360 -313 360s-313 -124 -313 -360zM848 1272h-542v104h542v-104z" />
    <glyph glyph-name="Ohorn.sc" horiz-adv-x="1158" 
d="M1039 451c0 -300 -181 -473 -464 -473s-460 173 -460 473v159c0 302 181 483 463 483c162 0 236 -69 340 -69c92 0 116 51 116 121v75h128v-78c0 -142 -80 -215 -217 -213l-3 -5c49 -61 97 -184 97 -314v-159zM263 611v-161c0 -236 133 -350 313 -350
c181 0 314 114 314 350v161c0 236 -134 360 -314 360s-313 -124 -313 -360z" />
    <glyph glyph-name="Ohorndotbelow.sc" horiz-adv-x="1158" 
d="M1039 451c0 -300 -181 -473 -464 -473s-460 173 -460 473v159c0 302 181 483 463 483c162 0 236 -69 340 -69c92 0 116 51 116 121v75h128v-78c0 -142 -80 -215 -217 -213l-3 -5c49 -61 97 -184 97 -314v-159zM263 611v-161c0 -236 133 -350 313 -350
c181 0 314 114 314 350v161c0 236 -134 360 -314 360s-313 -124 -313 -360zM491 -275c0 52 38 90 86 90c49 0 86 -38 86 -90c0 -49 -37 -88 -86 -88c-48 0 -86 39 -86 88z" />
    <glyph glyph-name="Ohornhookabove.sc" horiz-adv-x="1158" 
d="M1039 451c0 -300 -181 -473 -464 -473s-460 173 -460 473v159c0 302 181 483 463 483c162 0 236 -69 340 -69c92 0 116 51 116 121v75h128v-78c0 -142 -80 -215 -217 -213l-3 -5c49 -61 97 -184 97 -314v-159zM263 611v-161c0 -236 133 -350 313 -350
c181 0 314 114 314 350v161c0 236 -134 360 -314 360s-313 -124 -313 -360zM440 1451v91c19 11 58 19 104 19c118 0 197 -73 197 -178c0 -86 -60 -144 -143 -180l-55 76c68 28 94 58 94 103c0 49 -46 91 -109 91c-37 0 -71 -13 -88 -22z" />
    <glyph glyph-name="Ohorntilde.sc" horiz-adv-x="1158" 
d="M1039 451c0 -300 -181 -473 -464 -473s-460 173 -460 473v159c0 302 181 483 463 483c162 0 236 -69 340 -69c92 0 116 51 116 121v75h128v-78c0 -142 -80 -215 -217 -213l-3 -5c49 -61 97 -184 97 -314v-159zM263 611v-161c0 -236 133 -350 313 -350
c181 0 314 114 314 350v161c0 236 -134 360 -314 360s-313 -124 -313 -360zM682 1212c-131 0 -166 135 -242 135c-57 0 -70 -73 -70 -117h-106c0 114 60 218 176 218c132 0 168 -135 242 -135c53 0 74 69 77 118h106c0 -99 -59 -219 -183 -219z" />
    <glyph glyph-name="Ohorngrave.sc" horiz-adv-x="1158" 
d="M1039 451c0 -300 -181 -473 -464 -473s-460 173 -460 473v159c0 302 181 483 463 483c162 0 236 -69 340 -69c92 0 116 51 116 121v75h128v-78c0 -142 -80 -215 -217 -213l-3 -5c49 -61 97 -184 97 -314v-159zM263 611v-161c0 -236 133 -350 313 -350
c181 0 314 114 314 350v161c0 236 -134 360 -314 360s-313 -124 -313 -360zM645 1213h-116l-227 273h156z" />
    <glyph glyph-name="Ohornacute.sc" horiz-adv-x="1158" 
d="M1039 451c0 -300 -181 -473 -464 -473s-460 173 -460 473v159c0 302 181 483 463 483c162 0 236 -69 340 -69c92 0 116 51 116 121v75h128v-78c0 -142 -80 -215 -217 -213l-3 -5c49 -61 97 -184 97 -314v-159zM263 611v-161c0 -236 133 -350 313 -350
c181 0 314 114 314 350v161c0 236 -134 360 -314 360s-313 -124 -313 -360zM623 1213h-116l187 273h155z" />
    <glyph glyph-name="P.sc" horiz-adv-x="1016" 
d="M161 1071h419c223 0 368 -136 368 -335s-145 -334 -369 -334h-269v-402h-149v1071zM309 951v-428h181c192 0 305 42 305 213c0 136 -84 215 -230 215h-256z" />
    <glyph glyph-name="Pdotaccent.sc" horiz-adv-x="1016" 
d="M408 1320c0 57 44 99 97 99c57 0 100 -42 100 -99c0 -55 -43 -97 -100 -97c-53 0 -97 42 -97 97zM161 1071h419c223 0 368 -136 368 -335s-145 -334 -369 -334h-269v-402h-149v1071zM309 951v-428h181c192 0 305 42 305 213c0 136 -84 215 -230 215h-256z" />
    <glyph glyph-name="Pacute.sc" horiz-adv-x="1016" 
d="M554 1213h-116l187 273h155zM161 1071h419c223 0 368 -136 368 -335s-145 -334 -369 -334h-269v-402h-149v1071zM309 951v-428h181c192 0 305 42 305 213c0 136 -84 215 -230 215h-256z" />
    <glyph glyph-name="Q.sc" horiz-adv-x="1155" 
d="M116 457v157c0 301 180 479 461 479s463 -178 463 -479v-157c0 -165 -56 -293 -152 -374l156 -203h-163l-105 136c-58 -24 -125 -38 -199 -38c-281 0 -461 178 -461 479zM263 614v-157c0 -238 133 -355 312 -356c45 0 84 5 121 19l-143 182h162l88 -110
c55 59 89 148 89 265v157c0 236 -135 357 -315 357c-181 0 -314 -121 -314 -357z" />
    <glyph glyph-name="R.sc" horiz-adv-x="1069" 
d="M578 1071c254 0 371 -149 371 -320c0 -175 -113 -265 -217 -298l238 -453h-170l-215 427h-276v-427h-148v1071h417zM309 547h244c158 0 243 70 243 197c0 136 -94 207 -238 207h-249v-404z" />
    <glyph glyph-name="Rcaron.sc" horiz-adv-x="1069" 
d="M244 1516h125l128 -196h3l127 196h126l-212 -303h-86zM578 1071c254 0 371 -149 371 -320c0 -175 -113 -265 -217 -298l238 -453h-170l-215 427h-276v-427h-148v1071h417zM309 547h244c158 0 243 70 243 197c0 136 -94 207 -238 207h-249v-404z" />
    <glyph glyph-name="Rlinebelow.sc" horiz-adv-x="1069" 
d="M769 -325h-542v104h542v-104zM578 1071c254 0 371 -149 371 -320c0 -175 -113 -265 -217 -298l238 -453h-170l-215 427h-276v-427h-148v1071h417zM309 547h244c158 0 243 70 243 197c0 136 -94 207 -238 207h-249v-404z" />
    <glyph glyph-name="Rdotbelowmacron.sc" horiz-adv-x="1069" 
d="M414 -275c0 52 38 90 86 90c49 0 86 -38 86 -90c0 -49 -37 -88 -86 -88c-48 0 -86 39 -86 88zM769 1272h-542v104h542v-104zM578 1071c254 0 371 -149 371 -320c0 -175 -113 -265 -217 -298l238 -453h-170l-215 427h-276v-427h-148v1071h417zM309 547h244
c158 0 243 70 243 197c0 136 -94 207 -238 207h-249v-404z" />
    <glyph glyph-name="Rdblgrave.sc" horiz-adv-x="1069" 
d="M578 1071c254 0 371 -149 371 -320c0 -175 -113 -265 -217 -298l238 -453h-170l-215 427h-276v-427h-148v1071h417zM309 547h244c158 0 243 70 243 197c0 136 -94 207 -238 207h-249v-404zM325 1213l-223 274h137l189 -274h-103zM583 1213l-224 274h137l189 -274h-102z
" />
    <glyph glyph-name="Rinvertedbreve.sc" horiz-adv-x="1069" 
d="M578 1071c254 0 371 -149 371 -320c0 -175 -113 -265 -217 -298l238 -453h-170l-215 427h-276v-427h-148v1071h417zM309 547h244c158 0 243 70 243 197c0 136 -94 207 -238 207h-249v-404zM216 1231c-1 117 81 264 282 264s280 -148 281 -264h-108c0 87 -53 166 -173 166
s-174 -79 -174 -166h-108z" />
    <glyph glyph-name="Racute.sc" horiz-adv-x="1069" 
d="M545 1213h-116l187 273h155zM578 1071c254 0 371 -149 371 -320c0 -175 -113 -265 -217 -298l238 -453h-170l-215 427h-276v-427h-148v1071h417zM309 547h244c158 0 243 70 243 197c0 136 -94 207 -238 207h-249v-404z" />
    <glyph glyph-name="Rdotbelow.sc" horiz-adv-x="1069" 
d="M414 -275c0 52 38 90 86 90c49 0 86 -38 86 -90c0 -49 -37 -88 -86 -88c-48 0 -86 39 -86 88zM578 1071c254 0 371 -149 371 -320c0 -175 -113 -265 -217 -298l238 -453h-170l-215 427h-276v-427h-148v1071h417zM309 547h244c158 0 243 70 243 197
c0 136 -94 207 -238 207h-249v-404z" />
    <glyph glyph-name="Rdotaccent.sc" horiz-adv-x="1069" 
d="M399 1320c0 57 44 99 97 99c57 0 100 -42 100 -99c0 -55 -43 -97 -100 -97c-53 0 -97 42 -97 97zM578 1071c254 0 371 -149 371 -320c0 -175 -113 -265 -217 -298l238 -453h-170l-215 427h-276v-427h-148v1071h417zM309 547h244c158 0 243 70 243 197
c0 136 -94 207 -238 207h-249v-404z" />
    <glyph glyph-name="Rcommaaccent.sc" horiz-adv-x="1069" 
d="M470 -488h-119l85 335h148zM578 1071c254 0 371 -149 371 -320c0 -175 -113 -265 -217 -298l238 -453h-170l-215 427h-276v-427h-148v1071h417zM309 547h244c158 0 243 70 243 197c0 136 -94 207 -238 207h-249v-404z" />
    <glyph glyph-name="S.sc" horiz-adv-x="1022" 
d="M77 289h148c9 -101 102 -189 283 -189c160 0 263 71 263 187c0 92 -63 141 -195 172l-194 47c-141 33 -272 114 -272 282c0 198 189 308 400 308c206 0 394 -103 397 -303h-145c-9 99 -91 181 -255 181c-145 0 -246 -64 -246 -177c0 -80 55 -135 169 -162l189 -46
c180 -43 303 -118 303 -292c0 -207 -186 -319 -429 -319c-307 0 -413 173 -416 311z" />
    <glyph glyph-name="Scaron.sc" horiz-adv-x="1022" 
d="M254 1516h125l128 -196h3l127 196h126l-212 -303h-86zM77 289h148c9 -101 102 -189 283 -189c160 0 263 71 263 187c0 92 -63 141 -195 172l-194 47c-141 33 -272 114 -272 282c0 198 189 308 400 308c206 0 394 -103 397 -303h-145c-9 99 -91 181 -255 181
c-145 0 -246 -64 -246 -177c0 -80 55 -135 169 -162l189 -46c180 -43 303 -118 303 -292c0 -207 -186 -319 -429 -319c-307 0 -413 173 -416 311z" />
    <glyph glyph-name="Scedilla.sc" horiz-adv-x="1022" 
d="M529 -465c-59 -3 -120 7 -148 15v97c27 -8 84 -14 118 -14c57 0 123 19 123 84c0 70 -77 73 -151 73h-52v71l40 118c-282 11 -379 177 -382 310h148c9 -101 102 -189 283 -189c160 0 263 71 263 187c0 92 -63 141 -195 172l-194 47c-141 33 -272 114 -272 282
c0 198 189 308 400 308c206 0 394 -103 397 -303h-145c-9 99 -91 181 -255 181c-145 0 -246 -64 -246 -177c0 -80 55 -135 169 -162l189 -46c180 -43 303 -118 303 -292c0 -185 -148 -295 -354 -316l-33 -102c125 0 213 -50 213 -159c0 -125 -101 -180 -219 -185z" />
    <glyph glyph-name="Sdotaccent.sc" horiz-adv-x="1022" 
d="M409 1320c0 57 44 99 97 99c57 0 100 -42 100 -99c0 -55 -43 -97 -100 -97c-53 0 -97 42 -97 97zM77 289h148c9 -101 102 -189 283 -189c160 0 263 71 263 187c0 92 -63 141 -195 172l-194 47c-141 33 -272 114 -272 282c0 198 189 308 400 308c206 0 394 -103 397 -303
h-145c-9 99 -91 181 -255 181c-145 0 -246 -64 -246 -177c0 -80 55 -135 169 -162l189 -46c180 -43 303 -118 303 -292c0 -207 -186 -319 -429 -319c-307 0 -413 173 -416 311z" />
    <glyph glyph-name="Sdotbelow.sc" horiz-adv-x="1022" 
d="M409 -275c0 52 38 90 86 90c49 0 86 -38 86 -90c0 -49 -37 -88 -86 -88c-48 0 -86 39 -86 88zM77 289h148c9 -101 102 -189 283 -189c160 0 263 71 263 187c0 92 -63 141 -195 172l-194 47c-141 33 -272 114 -272 282c0 198 189 308 400 308c206 0 394 -103 397 -303
h-145c-9 99 -91 181 -255 181c-145 0 -246 -64 -246 -177c0 -80 55 -135 169 -162l189 -46c180 -43 303 -118 303 -292c0 -207 -186 -319 -429 -319c-307 0 -413 173 -416 311z" />
    <glyph glyph-name="Scommaaccent.sc" horiz-adv-x="1022" 
d="M465 -488h-119l85 335h148zM77 289h148c9 -101 102 -189 283 -189c160 0 263 71 263 187c0 92 -63 141 -195 172l-194 47c-141 33 -272 114 -272 282c0 198 189 308 400 308c206 0 394 -103 397 -303h-145c-9 99 -91 181 -255 181c-145 0 -246 -64 -246 -177
c0 -80 55 -135 169 -162l189 -46c180 -43 303 -118 303 -292c0 -207 -186 -319 -429 -319c-307 0 -413 173 -416 311z" />
    <glyph glyph-name="Sdotbelowdotaccent.sc" horiz-adv-x="1022" 
d="M409 -275c0 52 38 90 86 90c49 0 86 -38 86 -90c0 -49 -37 -88 -86 -88c-48 0 -86 39 -86 88zM409 1320c0 57 44 99 97 99c57 0 100 -42 100 -99c0 -55 -43 -97 -100 -97c-53 0 -97 42 -97 97zM77 289h148c9 -101 102 -189 283 -189c160 0 263 71 263 187
c0 92 -63 141 -195 172l-194 47c-141 33 -272 114 -272 282c0 198 189 308 400 308c206 0 394 -103 397 -303h-145c-9 99 -91 181 -255 181c-145 0 -246 -64 -246 -177c0 -80 55 -135 169 -162l189 -46c180 -43 303 -118 303 -292c0 -207 -186 -319 -429 -319
c-307 0 -413 173 -416 311z" />
    <glyph glyph-name="Scarondotaccent.sc" horiz-adv-x="1022" 
d="M254 1516h125l128 -196h3l127 196h126l-212 -303h-86zM409 1682c0 57 44 99 97 99c57 0 100 -42 100 -99c0 -55 -43 -97 -100 -97c-53 0 -97 42 -97 97zM77 289h148c9 -101 102 -189 283 -189c160 0 263 71 263 187c0 92 -63 141 -195 172l-194 47
c-141 33 -272 114 -272 282c0 198 189 308 400 308c206 0 394 -103 397 -303h-145c-9 99 -91 181 -255 181c-145 0 -246 -64 -246 -177c0 -80 55 -135 169 -162l189 -46c180 -43 303 -118 303 -292c0 -207 -186 -319 -429 -319c-307 0 -413 173 -416 311z" />
    <glyph glyph-name="Scircumflex.sc" horiz-adv-x="1022" 
d="M254 1213l211 303h86l211 -303h-125l-128 196h-2l-128 -196h-125zM77 289h148c9 -101 102 -189 283 -189c160 0 263 71 263 187c0 92 -63 141 -195 172l-194 47c-141 33 -272 114 -272 282c0 198 189 308 400 308c206 0 394 -103 397 -303h-145c-9 99 -91 181 -255 181
c-145 0 -246 -64 -246 -177c0 -80 55 -135 169 -162l189 -46c180 -43 303 -118 303 -292c0 -207 -186 -319 -429 -319c-307 0 -413 173 -416 311z" />
    <glyph glyph-name="Sacutedotaccent.sc" horiz-adv-x="1022" 
d="M622 1213h-116l187 273h155zM240 1384c0 57 44 99 97 99c57 0 100 -42 100 -99c0 -55 -43 -97 -100 -97c-53 0 -97 42 -97 97zM77 289h148c9 -101 102 -189 283 -189c160 0 263 71 263 187c0 92 -63 141 -195 172l-194 47c-141 33 -272 114 -272 282
c0 198 189 308 400 308c206 0 394 -103 397 -303h-145c-9 99 -91 181 -255 181c-145 0 -246 -64 -246 -177c0 -80 55 -135 169 -162l189 -46c180 -43 303 -118 303 -292c0 -207 -186 -319 -429 -319c-307 0 -413 173 -416 311z" />
    <glyph glyph-name="Sacute.sc" horiz-adv-x="1022" 
d="M555 1213h-116l187 273h155zM77 289h148c9 -101 102 -189 283 -189c160 0 263 71 263 187c0 92 -63 141 -195 172l-194 47c-141 33 -272 114 -272 282c0 198 189 308 400 308c206 0 394 -103 397 -303h-145c-9 99 -91 181 -255 181c-145 0 -246 -64 -246 -177
c0 -80 55 -135 169 -162l189 -46c180 -43 303 -118 303 -292c0 -207 -186 -319 -429 -319c-307 0 -413 173 -416 311z" />
    <glyph glyph-name="T.sc" horiz-adv-x="926" 
d="M537 0h-149v951h-350v120h850v-120h-351v-951z" />
    <glyph glyph-name="Tcircumflexbelow.sc" horiz-adv-x="926" 
d="M537 0h-149v951h-350v120h850v-120h-351v-951zM210 -407l206 292h92l206 -292h-124l-127 198h-2l-127 -198h-124z" />
    <glyph glyph-name="Tdotbelow.sc" horiz-adv-x="926" 
d="M537 0h-149v951h-350v120h850v-120h-351v-951zM377 -275c0 52 38 90 86 90c49 0 86 -38 86 -90c0 -49 -37 -88 -86 -88c-48 0 -86 39 -86 88z" />
    <glyph glyph-name="Tcommaaccent.sc" horiz-adv-x="926" 
d="M537 0h-149v951h-350v120h850v-120h-351v-951zM434 -488h-119l85 335h148z" />
    <glyph glyph-name="Tdotaccent.sc" horiz-adv-x="926" 
d="M537 0h-149v951h-350v120h850v-120h-351v-951zM363 1320c0 57 44 99 97 99c57 0 100 -42 100 -99c0 -55 -43 -97 -100 -97c-53 0 -97 42 -97 97z" />
    <glyph glyph-name="Tcedilla.sc" horiz-adv-x="926" 
d="M479 -484c-59 -3 -120 7 -148 15v97c27 -8 84 -14 118 -14c57 0 123 19 123 84c0 70 -77 73 -151 73h-52v71l60 158h-41v951h-350v120h850v-120h-352v-951l-51 -140c125 0 213 -50 213 -159c0 -125 -101 -180 -219 -185z" />
    <glyph glyph-name="Tlinebelow.sc" horiz-adv-x="926" 
d="M537 0h-149v951h-350v120h850v-120h-351v-951zM736 -325h-542v104h542v-104z" />
    <glyph glyph-name="Tcaron.sc" horiz-adv-x="926" 
d="M537 0h-149v951h-350v120h850v-120h-351v-951zM211 1516h125l128 -196h3l127 196h126l-212 -303h-86z" />
    <glyph glyph-name="Tbar.sc" horiz-adv-x="926" 
d="M770 503h-233v-503h-149v503h-231v102h232v346h-350v120h850v-120h-352v-346h233v-102z" />
    <glyph glyph-name="U.sc" horiz-adv-x="1167" 
d="M294 1071v-695c0 -169 112 -275 290 -275c177 0 289 107 289 275v695h148v-700c0 -236 -175 -393 -437 -393c-263 0 -438 159 -438 396v697h148z" />
    <glyph glyph-name="Ugrave.sc" horiz-adv-x="1167" 
d="M652 1213h-116l-227 273h156zM294 1071v-695c0 -169 112 -275 290 -275c177 0 289 107 289 275v695h148v-700c0 -236 -175 -393 -437 -393c-263 0 -438 159 -438 396v697h148z" />
    <glyph glyph-name="Udblgrave.sc" horiz-adv-x="1167" 
d="M410 1213l-223 274h137l189 -274h-103zM668 1213l-224 274h137l189 -274h-102zM294 1071v-695c0 -169 112 -275 290 -275c177 0 289 107 289 275v695h148v-700c0 -236 -175 -393 -437 -393c-263 0 -438 159 -438 396v697h148z" />
    <glyph glyph-name="Uacute.sc" horiz-adv-x="1167" 
d="M630 1213h-116l187 273h155zM294 1071v-695c0 -169 112 -275 290 -275c177 0 289 107 289 275v695h148v-700c0 -236 -175 -393 -437 -393c-263 0 -438 159 -438 396v697h148z" />
    <glyph glyph-name="Uhungarumlaut.sc" horiz-adv-x="1167" 
d="M481 1213h-102l190 273h137zM739 1213h-104l191 273h137zM294 1071v-695c0 -169 112 -275 290 -275c177 0 289 107 289 275v695h148v-700c0 -236 -175 -393 -437 -393c-263 0 -438 159 -438 396v697h148z" />
    <glyph glyph-name="Ucircumflex.sc" horiz-adv-x="1167" 
d="M329 1213l211 303h86l211 -303h-125l-128 196h-2l-128 -196h-125zM294 1071v-695c0 -169 112 -275 290 -275c177 0 289 107 289 275v695h148v-700c0 -236 -175 -393 -437 -393c-263 0 -438 159 -438 396v697h148z" />
    <glyph glyph-name="Ucaron.sc" horiz-adv-x="1167" 
d="M331 1516h125l128 -196h3l127 196h126l-212 -303h-86zM294 1071v-695c0 -169 112 -275 290 -275c177 0 289 107 289 275v695h148v-700c0 -236 -175 -393 -437 -393c-263 0 -438 159 -438 396v697h148z" />
    <glyph glyph-name="Ucircumflexbelow.sc" horiz-adv-x="1167" 
d="M294 1071v-695c0 -169 112 -275 290 -275c177 0 289 107 289 275v695h148v-700c0 -236 -175 -393 -437 -393c-263 0 -438 159 -438 396v697h148zM331 -407l206 292h92l206 -292h-124l-127 198h-2l-127 -198h-124z" />
    <glyph glyph-name="Udieresis.sc" horiz-adv-x="1167" 
d="M429 1230c-48 0 -85 38 -85 87c0 52 37 89 85 89c49 0 85 -37 85 -89c0 -49 -36 -87 -85 -87zM761 1230c-47 0 -84 38 -84 87c0 52 37 89 84 89c50 0 87 -37 87 -89c0 -49 -37 -87 -87 -87zM294 1071v-695c0 -169 112 -275 290 -275c177 0 289 107 289 275v695h148v-700
c0 -236 -175 -393 -437 -393c-263 0 -438 159 -438 396v697h148z" />
    <glyph glyph-name="Udieresisgrave.sc" horiz-adv-x="1167" 
d="M652 1517h-116l-227 273h156zM428 1230c-48 0 -85 38 -85 87c0 52 37 89 85 89c49 0 85 -37 85 -89c0 -49 -36 -87 -85 -87zM760 1230c-47 0 -84 38 -84 87c0 52 37 89 84 89c50 0 87 -37 87 -89c0 -49 -37 -87 -87 -87zM294 1071v-695c0 -169 112 -275 290 -275
c177 0 289 107 289 275v695h148v-700c0 -236 -175 -393 -437 -393c-263 0 -438 159 -438 396v697h148z" />
    <glyph glyph-name="Udieresisacute.sc" horiz-adv-x="1167" 
d="M630 1517h-116l187 273h155zM428 1230c-48 0 -85 38 -85 87c0 52 37 89 85 89c49 0 85 -37 85 -89c0 -49 -36 -87 -85 -87zM760 1230c-47 0 -84 38 -84 87c0 52 37 89 84 89c50 0 87 -37 87 -89c0 -49 -37 -87 -87 -87zM294 1071v-695c0 -169 112 -275 290 -275
c177 0 289 107 289 275v695h148v-700c0 -236 -175 -393 -437 -393c-263 0 -438 159 -438 396v697h148z" />
    <glyph glyph-name="Udieresismacron.sc" horiz-adv-x="1167" 
d="M428 1230c-48 0 -85 38 -85 87c0 52 37 89 85 89c49 0 85 -37 85 -89c0 -49 -36 -87 -85 -87zM760 1230c-47 0 -84 38 -84 87c0 52 37 89 84 89c50 0 87 -37 87 -89c0 -49 -37 -87 -87 -87zM854 1568h-542v104h542v-104zM294 1071v-695c0 -169 112 -275 290 -275
c177 0 289 107 289 275v695h148v-700c0 -236 -175 -393 -437 -393c-263 0 -438 159 -438 396v697h148z" />
    <glyph glyph-name="Udieresiscaron.sc" horiz-adv-x="1167" 
d="M329 1800h125l128 -196h3l127 196h126l-212 -303h-86zM428 1230c-48 0 -85 38 -85 87c0 52 37 89 85 89c49 0 85 -37 85 -89c0 -49 -36 -87 -85 -87zM760 1230c-47 0 -84 38 -84 87c0 52 37 89 84 89c50 0 87 -37 87 -89c0 -49 -37 -87 -87 -87zM294 1071v-695
c0 -169 112 -275 290 -275c177 0 289 107 289 275v695h148v-700c0 -236 -175 -393 -437 -393c-263 0 -438 159 -438 396v697h148z" />
    <glyph glyph-name="Udieresisbelow.sc" horiz-adv-x="1167" 
d="M294 1071v-695c0 -169 112 -275 290 -275c177 0 289 107 289 275v695h148v-700c0 -236 -175 -393 -437 -393c-263 0 -438 159 -438 396v697h148zM419 -376c-48 0 -85 38 -85 87c0 52 37 89 85 89c49 0 85 -37 85 -89c0 -49 -36 -87 -85 -87zM751 -376
c-47 0 -84 38 -84 87c0 52 37 89 84 89c50 0 87 -37 87 -89c0 -49 -37 -87 -87 -87z" />
    <glyph glyph-name="Utildebelow.sc" horiz-adv-x="1167" 
d="M690 -372c-125 0 -160 128 -230 128c-50 0 -63 -67 -64 -111h-99c0 108 53 205 163 205c126 0 161 -128 229 -128c48 0 68 63 71 111h100c0 -92 -53 -205 -170 -205zM294 1071v-695c0 -169 112 -275 290 -275c177 0 289 107 289 275v695h148v-700
c0 -236 -175 -393 -437 -393c-263 0 -438 159 -438 396v697h148z" />
    <glyph glyph-name="Uhookabove.sc" horiz-adv-x="1167" 
d="M447 1451v91c19 11 58 19 104 19c118 0 197 -73 197 -178c0 -86 -60 -144 -143 -180l-55 76c68 28 94 58 94 103c0 49 -46 91 -109 91c-37 0 -71 -13 -88 -22zM294 1071v-695c0 -169 112 -275 290 -275c177 0 289 107 289 275v695h148v-700c0 -236 -175 -393 -437 -393
c-263 0 -438 159 -438 396v697h148z" />
    <glyph glyph-name="Ubreve.sc" horiz-adv-x="1167" 
d="M302 1476h107c0 -86 54 -166 174 -166c121 0 175 80 175 166h107c-1 -116 -81 -263 -282 -263c-200 0 -282 147 -281 263zM294 1071v-695c0 -169 112 -275 290 -275c177 0 289 107 289 275v695h148v-700c0 -236 -175 -393 -437 -393c-263 0 -438 159 -438 396v697h148z
" />
    <glyph glyph-name="Uinvertedbreve.sc" horiz-adv-x="1167" 
d="M294 1071v-695c0 -169 112 -275 290 -275c177 0 289 107 289 275v695h148v-700c0 -236 -175 -393 -437 -393c-263 0 -438 159 -438 396v697h148zM301 1231c-1 117 81 264 282 264s280 -148 281 -264h-108c0 87 -53 166 -173 166s-174 -79 -174 -166h-108z" />
    <glyph glyph-name="Utildeacute.sc" horiz-adv-x="1167" 
d="M625 1517h-116l187 273h155zM689 1212c-131 0 -166 135 -242 135c-57 0 -70 -73 -70 -117h-106c0 114 60 218 176 218c132 0 168 -135 242 -135c53 0 74 69 77 118h106c0 -99 -59 -219 -183 -219zM294 1071v-695c0 -169 112 -275 290 -275c177 0 289 107 289 275v695h148
v-700c0 -236 -175 -393 -437 -393c-263 0 -438 159 -438 396v697h148z" />
    <glyph glyph-name="Udotbelow.sc" horiz-adv-x="1167" 
d="M497 -275c0 52 38 90 86 90c49 0 86 -38 86 -90c0 -49 -37 -88 -86 -88c-48 0 -86 39 -86 88zM294 1071v-695c0 -169 112 -275 290 -275c177 0 289 107 289 275v695h148v-700c0 -236 -175 -393 -437 -393c-263 0 -438 159 -438 396v697h148z" />
    <glyph glyph-name="Utilde.sc" horiz-adv-x="1167" 
d="M689 1212c-131 0 -166 135 -242 135c-57 0 -70 -73 -70 -117h-106c0 114 60 218 176 218c132 0 168 -135 242 -135c53 0 74 69 77 118h106c0 -99 -59 -219 -183 -219zM294 1071v-695c0 -169 112 -275 290 -275c177 0 289 107 289 275v695h148v-700
c0 -236 -175 -393 -437 -393c-263 0 -438 159 -438 396v697h148z" />
    <glyph glyph-name="Umacron.sc" horiz-adv-x="1167" 
d="M855 1272h-542v104h542v-104zM294 1071v-695c0 -169 112 -275 290 -275c177 0 289 107 289 275v695h148v-700c0 -236 -175 -393 -437 -393c-263 0 -438 159 -438 396v697h148z" />
    <glyph glyph-name="Umacrondieresis.sc" horiz-adv-x="1167" 
d="M854 1272h-542v104h542v-104zM428 1527c-48 0 -85 38 -85 87c0 52 37 89 85 89c49 0 85 -37 85 -89c0 -49 -36 -87 -85 -87zM760 1527c-47 0 -84 38 -84 87c0 52 37 89 84 89c50 0 87 -37 87 -89c0 -49 -37 -87 -87 -87zM294 1071v-695c0 -169 112 -275 290 -275
c177 0 289 107 289 275v695h148v-700c0 -236 -175 -393 -437 -393c-263 0 -438 159 -438 396v697h148z" />
    <glyph glyph-name="Uring.sc" horiz-adv-x="1167" 
d="M294 1071v-695c0 -169 112 -275 290 -275c177 0 289 107 289 275v695h148v-700c0 -236 -175 -393 -437 -393c-263 0 -438 159 -438 396v697h148zM583 1208c-103 0 -185 79 -185 181s82 180 185 180c101 0 184 -78 184 -180s-83 -181 -184 -181zM478 1389
c0 -59 46 -107 105 -107s104 48 104 107s-45 106 -104 106s-105 -47 -105 -106z" />
    <glyph glyph-name="Uogonek.sc" horiz-adv-x="1167" 
d="M828 -382c-117 0 -207 58 -207 176c0 80 42 142 89 197c-39 -8 -81 -13 -128 -13c-260 0 -436 159 -436 396v697h149v-695c0 -169 111 -275 288 -275c178 0 290 107 290 275v695h148v-700c0 -133 -53 -219 -121 -288c-60 -62 -150 -140 -150 -244c0 -76 47 -102 107 -102
c20 0 58 3 84 9v-108c-12 -7 -58 -20 -113 -20z" />
    <glyph glyph-name="Uhorn.sc" horiz-adv-x="1218" 
d="M584 -22c-263 0 -438 159 -438 396v697h148v-695c0 -168 112 -275 290 -275c177 0 289 107 289 275v695h149c87 0 113 48 113 119v81h126v-85c0 -123 -66 -215 -207 -215h-33v-600c0 -236 -175 -393 -437 -393z" />
    <glyph glyph-name="Uhorngrave.sc" horiz-adv-x="1218" 
d="M584 -22c-263 0 -438 159 -438 396v697h148v-695c0 -168 112 -275 290 -275c177 0 289 107 289 275v695h149c87 0 113 48 113 119v81h126v-85c0 -123 -66 -215 -207 -215h-33v-600c0 -236 -175 -393 -437 -393zM652 1213h-116l-227 273h156z" />
    <glyph glyph-name="Uhornacute.sc" horiz-adv-x="1218" 
d="M584 -22c-263 0 -438 159 -438 396v697h148v-695c0 -168 112 -275 290 -275c177 0 289 107 289 275v695h149c87 0 113 48 113 119v81h126v-85c0 -123 -66 -215 -207 -215h-33v-600c0 -236 -175 -393 -437 -393zM630 1213h-116l187 273h155z" />
    <glyph glyph-name="Uhorndotbelow.sc" horiz-adv-x="1218" 
d="M498 -275c0 52 38 90 86 90c49 0 86 -38 86 -90c0 -49 -37 -88 -86 -88c-48 0 -86 39 -86 88zM584 -22c-263 0 -438 159 -438 396v697h148v-695c0 -168 112 -275 290 -275c177 0 289 107 289 275v695h149c87 0 113 48 113 119v81h126v-85c0 -123 -66 -215 -207 -215h-33
v-600c0 -236 -175 -393 -437 -393z" />
    <glyph glyph-name="Uhornhookabove.sc" horiz-adv-x="1218" 
d="M584 -22c-263 0 -438 159 -438 396v697h148v-695c0 -168 112 -275 290 -275c177 0 289 107 289 275v695h149c87 0 113 48 113 119v81h126v-85c0 -123 -66 -215 -207 -215h-33v-600c0 -236 -175 -393 -437 -393zM447 1451v91c19 11 58 19 104 19c118 0 197 -73 197 -178
c0 -86 -60 -144 -143 -180l-55 76c68 28 94 58 94 103c0 49 -46 91 -109 91c-37 0 -71 -13 -88 -22z" />
    <glyph glyph-name="Uhorntilde.sc" horiz-adv-x="1218" 
d="M584 -22c-263 0 -438 159 -438 396v697h148v-695c0 -168 112 -275 290 -275c177 0 289 107 289 275v695h149c87 0 113 48 113 119v81h126v-85c0 -123 -66 -215 -207 -215h-33v-600c0 -236 -175 -393 -437 -393zM689 1212c-131 0 -166 135 -242 135
c-57 0 -70 -73 -70 -117h-106c0 114 60 218 176 218c132 0 168 -135 242 -135c53 0 74 69 77 118h106c0 -99 -59 -219 -183 -219z" />
    <glyph glyph-name="V.sc" horiz-adv-x="1056" 
d="M606 0h-158l-411 1071h170l317 -909h9l316 909h169z" />
    <glyph glyph-name="Vtilde.sc" horiz-adv-x="1056" 
d="M606 0h-158l-411 1071h170l317 -909h9l316 909h169zM633 1212c-131 0 -166 135 -242 135c-57 0 -70 -73 -70 -117h-106c0 114 60 218 176 218c132 0 168 -135 242 -135c53 0 74 69 77 118h106c0 -99 -59 -219 -183 -219z" />
    <glyph glyph-name="Vdotbelow.sc" horiz-adv-x="1056" 
d="M442 -275c0 52 38 90 86 90c49 0 86 -38 86 -90c0 -49 -37 -88 -86 -88c-48 0 -86 39 -86 88zM606 0h-158l-411 1071h170l317 -909h9l316 909h169z" />
    <glyph glyph-name="W.sc" horiz-adv-x="1463" 
d="M484 0h-136l-314 1070h170l214 -861h8l231 861h149l230 -861h9l213 861h170l-315 -1070h-135l-244 849h-7z" />
    <glyph glyph-name="Wgrave.sc" horiz-adv-x="1463" 
d="M484 0h-136l-314 1070h170l214 -861h8l231 861h149l230 -861h9l213 861h170l-315 -1070h-135l-244 849h-7zM800 1213h-116l-227 273h156z" />
    <glyph glyph-name="Wacute.sc" horiz-adv-x="1463" 
d="M484 0h-136l-314 1070h170l214 -861h8l231 861h149l230 -861h9l213 861h170l-315 -1070h-135l-244 849h-7zM778 1213h-116l187 273h155z" />
    <glyph glyph-name="Wdotaccent.sc" horiz-adv-x="1463" 
d="M484 0h-136l-314 1070h170l214 -861h8l231 861h149l230 -861h9l213 861h170l-315 -1070h-135l-244 849h-7zM632 1320c0 57 44 99 97 99c57 0 100 -42 100 -99c0 -55 -43 -97 -100 -97c-53 0 -97 42 -97 97z" />
    <glyph glyph-name="Wdotbelow.sc" horiz-adv-x="1463" 
d="M484 0h-136l-314 1070h170l214 -861h8l231 861h149l230 -861h9l213 861h170l-315 -1070h-135l-244 849h-7zM644 -275c0 52 38 90 86 90c49 0 86 -38 86 -90c0 -49 -37 -88 -86 -88c-48 0 -86 39 -86 88z" />
    <glyph glyph-name="Wdieresis.sc" horiz-adv-x="1463" 
d="M484 0h-136l-314 1070h170l214 -861h8l231 861h149l230 -861h9l213 861h170l-315 -1070h-135l-244 849h-7zM576 1230c-48 0 -85 38 -85 87c0 52 37 89 85 89c49 0 85 -37 85 -89c0 -49 -36 -87 -85 -87zM908 1230c-47 0 -84 38 -84 87c0 52 37 89 84 89
c50 0 87 -37 87 -89c0 -49 -37 -87 -87 -87z" />
    <glyph glyph-name="Wcircumflex.sc" horiz-adv-x="1463" 
d="M484 0h-136l-314 1070h170l214 -861h8l231 861h149l230 -861h9l213 861h170l-315 -1070h-135l-244 849h-7zM477 1213l211 303h86l211 -303h-125l-128 196h-2l-128 -196h-125z" />
    <glyph glyph-name="X.sc" horiz-adv-x="998" 
d="M970 1071l-382 -540l374 -531h-177l-289 425h-8l-291 -425h-167l375 539l-371 532h178l291 -427h8l288 427h171z" />
    <glyph glyph-name="Xdotaccent.sc" horiz-adv-x="998" 
d="M399 1320c0 57 44 99 97 99c57 0 100 -42 100 -99c0 -55 -43 -97 -100 -97c-53 0 -97 42 -97 97zM970 1071l-382 -540l374 -531h-177l-289 425h-8l-291 -425h-167l375 539l-371 532h178l291 -427h8l288 427h171z" />
    <glyph glyph-name="Xdieresis.sc" horiz-adv-x="998" 
d="M970 1071l-382 -540l374 -531h-177l-289 425h-8l-291 -425h-167l375 539l-371 532h178l291 -427h8l288 427h171zM345 1230c-48 0 -85 38 -85 87c0 52 37 89 85 89c49 0 85 -37 85 -89c0 -49 -36 -87 -85 -87zM677 1230c-47 0 -84 38 -84 87c0 52 37 89 84 89
c50 0 87 -37 87 -89c0 -49 -37 -87 -87 -87z" />
    <glyph glyph-name="Y.sc" horiz-adv-x="965" 
d="M556 0h-148v456l-386 615h169l288 -478h8l288 478h168l-387 -614v-457z" />
    <glyph glyph-name="Ygrave.sc" horiz-adv-x="965" 
d="M551 1213h-116l-227 273h156zM556 0h-148v456l-386 615h169l288 -478h8l288 478h168l-387 -614v-457z" />
    <glyph glyph-name="Yacute.sc" horiz-adv-x="965" 
d="M529 1213h-116l187 273h155zM556 0h-148v456l-386 615h169l288 -478h8l288 478h168l-387 -614v-457z" />
    <glyph glyph-name="Ydotaccent.sc" horiz-adv-x="965" 
d="M383 1320c0 57 44 99 97 99c57 0 100 -42 100 -99c0 -55 -43 -97 -100 -97c-53 0 -97 42 -97 97zM556 0h-148v456l-386 615h169l288 -478h8l288 478h168l-387 -614v-457z" />
    <glyph glyph-name="Ydotbelow.sc" horiz-adv-x="965" 
d="M398 -275c0 52 38 90 86 90c49 0 86 -38 86 -90c0 -49 -37 -88 -86 -88c-48 0 -86 39 -86 88zM556 0h-148v456l-386 615h169l288 -478h8l288 478h168l-387 -614v-457z" />
    <glyph glyph-name="Ydieresis.sc" horiz-adv-x="965" 
d="M556 0h-148v456l-386 615h169l288 -478h8l288 478h168l-387 -614v-457zM327 1230c-48 0 -85 38 -85 87c0 52 37 89 85 89c49 0 85 -37 85 -89c0 -49 -36 -87 -85 -87zM659 1230c-47 0 -84 38 -84 87c0 52 37 89 84 89c50 0 87 -37 87 -89c0 -49 -37 -87 -87 -87z" />
    <glyph glyph-name="Ytilde.sc" horiz-adv-x="965" 
d="M556 0h-148v456l-386 615h169l288 -478h8l288 478h168l-387 -614v-457zM588 1212c-131 0 -166 135 -242 135c-57 0 -70 -73 -70 -117h-106c0 114 60 218 176 218c132 0 168 -135 242 -135c53 0 74 69 77 118h106c0 -99 -59 -219 -183 -219z" />
    <glyph glyph-name="Ycircumflex.sc" horiz-adv-x="965" 
d="M228 1213l211 303h86l211 -303h-125l-128 196h-2l-128 -196h-125zM556 0h-148v456l-386 615h169l288 -478h8l288 478h168l-387 -614v-457z" />
    <glyph glyph-name="Ymacron.sc" horiz-adv-x="965" 
d="M556 0h-148v456l-386 615h169l288 -478h8l288 478h168l-387 -614v-457zM753 1272h-542v104h542v-104z" />
    <glyph glyph-name="Yhookabove.sc" horiz-adv-x="965" 
d="M556 0h-148v456l-386 615h169l288 -478h8l288 478h168l-387 -614v-457zM346 1451v91c19 11 58 19 104 19c118 0 197 -73 197 -178c0 -86 -60 -144 -143 -180l-55 76c68 28 94 58 94 103c0 49 -46 91 -109 91c-37 0 -71 -13 -88 -22z" />
    <glyph glyph-name="Z.sc" horiz-adv-x="1014" 
d="M93 0v96l620 844v10h-599v121h783v-96l-617 -846v-8h629v-121h-816z" />
    <glyph glyph-name="Zacute.sc" horiz-adv-x="1014" 
d="M553 1213h-116l187 273h155zM93 0v96l620 844v10h-599v121h783v-96l-617 -846v-8h629v-121h-816z" />
    <glyph glyph-name="Zcaron.sc" horiz-adv-x="1014" 
d="M252 1516h125l128 -196h3l127 196h126l-212 -303h-86zM93 0v96l620 844v10h-599v121h783v-96l-617 -846v-8h629v-121h-816z" />
    <glyph glyph-name="Zcircumflex.sc" horiz-adv-x="1014" 
d="M252 1213l211 303h86l211 -303h-125l-128 196h-2l-128 -196h-125zM93 0v96l620 844v10h-599v121h783v-96l-617 -846v-8h629v-121h-816z" />
    <glyph glyph-name="Zlinebelow.sc" horiz-adv-x="1014" 
d="M777 -325h-542v104h542v-104zM93 0v96l620 844v10h-599v121h783v-96l-617 -846v-8h629v-121h-816z" />
    <glyph glyph-name="Zdotbelow.sc" horiz-adv-x="1014" 
d="M422 -275c0 52 38 90 86 90c49 0 86 -38 86 -90c0 -49 -37 -88 -86 -88c-48 0 -86 39 -86 88zM93 0v96l620 844v10h-599v121h783v-96l-617 -846v-8h629v-121h-816z" />
    <glyph glyph-name="Zdotaccent.sc" horiz-adv-x="1014" 
d="M407 1320c0 57 44 99 97 99c57 0 100 -42 100 -99c0 -55 -43 -97 -100 -97c-53 0 -97 42 -97 97zM93 0v96l620 844v10h-599v121h783v-96l-617 -846v-8h629v-121h-816z" />
    <glyph glyph-name="AE.sc" horiz-adv-x="1605" 
d="M742 950l-288 -504h348v504h-60zM802 336h-409l-193 -336h-166l624 1071h831v-121h-539v-343h508v-120h-508v-367h539v-120h-687v336z" />
    <glyph glyph-name="AEmacron.sc" horiz-adv-x="1605" 
d="M742 950l-288 -504h348v504h-60zM802 336h-409l-193 -336h-166l624 1071h831v-121h-539v-343h508v-120h-508v-367h539v-120h-687v336zM1420 1272h-542v104h542v-104z" />
    <glyph glyph-name="AEacute.sc" horiz-adv-x="1605" 
d="M1196 1213h-116l187 273h155zM742 950l-288 -504h348v504h-60zM802 336h-409l-193 -336h-166l624 1071h831v-121h-539v-343h508v-120h-508v-367h539v-120h-687v336z" />
    <glyph glyph-name="OE.sc" horiz-adv-x="1695" 
d="M265 611v-161c0 -236 132 -350 312 -350s315 105 315 338v191c0 231 -135 342 -315 342s-312 -124 -312 -360zM567 -22c-277 0 -452 174 -452 474v158c0 305 181 483 455 483c133 0 255 -46 316 -138h11v116h679v-121h-537v-343h507v-120h-507v-367h537v-120h-679v120
h-10c-64 -91 -184 -142 -320 -142z" />
    <glyph glyph-name="Eth.sc" horiz-adv-x="1201" 
d="M594 0h-368v487h-137v121h137v463h368c370 0 508 -222 508 -535c0 -309 -132 -536 -508 -536zM374 120h210c250 0 364 145 364 416c0 252 -100 415 -364 415h-210v-343h258v-121h-258v-367z" />
    <glyph glyph-name="Thorn.sc" horiz-adv-x="1014" 
d="M161 1071h148v-203h256c221 0 367 -108 367 -306c0 -201 -146 -307 -368 -307h-254v-255h-149v1071zM309 747v-371h211c147 0 260 22 260 186c0 130 -85 185 -230 185h-241z" />
    <glyph glyph-name="Alphagreek.sc" horiz-adv-x="1060" 
d="M200 0h-154l406 1071h157l405 -1071h-156l-115 321h-428zM532 913h-5l-174 -482h352z" />
    <glyph glyph-name="Betagreek.sc" horiz-adv-x="1077" 
d="M161 0v1071h431c198 0 323 -101 323 -264c0 -125 -74 -207 -187 -237v-6c150 -18 252 -111 252 -264c0 -188 -153 -300 -399 -300h-420zM309 952v-343h185c184 0 272 55 272 175c0 107 -74 168 -201 168h-256zM309 493v-375h207c220 0 312 57 312 182
c0 124 -92 193 -245 193h-274z" />
    <glyph glyph-name="Gammagreek.sc" horiz-adv-x="900" 
d="M309 0h-148v1071h666v-122h-518v-949z" />
    <glyph glyph-name="Deltagreek.sc" horiz-adv-x="1068" 
d="M65 0v86l393 985h155l391 -985v-86h-939zM532 906l-308 -796h617l-304 796h-5z" />
    <glyph glyph-name="Epsilongreek.sc" horiz-adv-x="972" 
d="M854 120v-121h-693v1071h693v-122h-545v-344h514v-118h-514v-366h545z" />
    <glyph glyph-name="Zetagreek.sc" horiz-adv-x="1014" 
d="M93 0v97l619 848v5h-598v121h782v-95l-616 -850v-5h630v-121h-817z" />
    <glyph glyph-name="Etagreek.sc" horiz-adv-x="1196" 
d="M1035 0h-149v493h-577v-493h-148v1071h148v-456h577v456h149v-1071z" />
    <glyph glyph-name="Thetagreek.sc" horiz-adv-x="1177" 
d="M802 478h-429v120h429v-120zM263 612v-163c0 -228 129 -348 325 -348c195 0 326 118 326 348v163c0 235 -131 358 -326 358c-196 0 -325 -130 -325 -358zM115 452v158c0 297 178 483 474 483s474 -182 474 -483v-158c0 -299 -181 -474 -477 -474
c-297 0 -471 177 -471 474z" />
    <glyph glyph-name="Iotagreek.sc" horiz-adv-x="473" 
d="M311 0h-149v1071h149v-1071z" />
    <glyph glyph-name="Kappagreek.sc" horiz-adv-x="1046" 
d="M990 1071l-431 -459l454 -612h-188l-376 517l-140 -141v-376h-148v1071h148v-520h7l500 520h174z" />
    <glyph glyph-name="Lambdagreek.sc" horiz-adv-x="1029" 
d="M511 902l-310 -902h-155l390 1071h157l390 -1071h-157l-310 902h-5z" />
    <glyph glyph-name="Mugreek.sc" horiz-adv-x="1383" 
d="M299 0h-135v1071h146l380 -820h4l380 820h146v-1071h-135v786h-6l-326 -691h-121l-328 691h-5v-786z" />
    <glyph glyph-name="Nugreek.sc" horiz-adv-x="1191" 
d="M302 0h-141v1071h140l583 -834h4v834h142v-1071h-139l-585 835h-4v-835z" />
    <glyph glyph-name="Xigreek.sc" horiz-adv-x="1012" 
d="M119 946v125h774v-125h-774zM190 484v122h631v-122h-631zM119 0v125h774v-125h-774z" />
    <glyph glyph-name="Omicrongreek.sc" horiz-adv-x="1155" 
d="M264 611v-161c0 -235 134 -350 314 -350s312 115 312 350v161c0 236 -133 360 -312 360c-180 0 -314 -124 -314 -360zM115 452v158c0 302 182 483 464 483c283 0 461 -181 461 -483v-158c0 -301 -181 -474 -464 -474c-282 0 -461 173 -461 474z" />
    <glyph glyph-name="Pigreek.sc" horiz-adv-x="1179" 
d="M1018 0h-149v949h-560v-949h-148v1071h857v-1071z" />
    <glyph glyph-name="Rhogreek.sc" horiz-adv-x="1017" 
d="M161 1071h419c223 0 368 -136 368 -334c0 -200 -145 -334 -369 -334h-270v-403h-148v1071zM309 951v-429h181c192 0 304 43 304 215c0 135 -83 214 -229 214h-256z" />
    <glyph glyph-name="Sigmagreek.sc" horiz-adv-x="984" 
d="M93 93l339 445l-330 437v96h773v-121h-583v-5l299 -392v-19l-311 -408v-5h600v-121h-787v93z" />
    <glyph glyph-name="Taugreek.sc" horiz-adv-x="930" 
d="M538 0h-147v949h-350v122h847v-122h-350v-949z" />
    <glyph glyph-name="Upsilongreek.sc" horiz-adv-x="969" 
d="M558 0h-147v456l-387 615h170l288 -479h5l290 479h168l-387 -614v-457z" />
    <glyph glyph-name="Phigreek.sc" horiz-adv-x="1347" 
d="M744 -41h-141v85c-310 6 -488 189 -488 457v63c0 263 175 449 488 456v87h141v-87c313 -7 488 -192 488 -457v-62c0 -267 -179 -451 -488 -457v-85zM604 160v743c-215 -6 -343 -131 -343 -348v-47c0 -222 133 -341 343 -348zM743 160c209 7 344 126 344 348v47
c0 217 -129 342 -344 348v-743z" />
    <glyph glyph-name="Chigreek.sc" horiz-adv-x="1000" 
d="M970 1071l-382 -540l374 -531h-178l-288 425h-7l-291 -425h-167l375 539l-370 532h177l290 -426h8l288 426h171z" />
    <glyph glyph-name="Psigreek.sc" horiz-adv-x="1269" 
d="M562 0v247c-264 8 -422 119 -422 377v447h146v-443c0 -189 90 -257 276 -260v703h146v-703c185 3 276 70 276 260v443h146v-447c0 -259 -160 -369 -422 -377v-247h-146z" />
    <glyph glyph-name="Omegagreek.sc" horiz-adv-x="1189" 
d="M679 0v139c127 36 231 201 231 390v85c0 242 -137 357 -316 357c-182 0 -316 -118 -316 -357v-85c0 -185 101 -352 231 -390v-139h-393v123h210v8c-110 60 -197 210 -197 399v85c0 312 190 478 465 478c276 0 465 -166 465 -478v-85c0 -189 -88 -341 -197 -399v-8h211
v-123h-394z" />
    <glyph glyph-name="Alphatonosgreek.sc" horiz-adv-x="1082" 
d="M221 0h-154l406 1071h156l406 -1071h-156l-115 321h-428zM553 913h-5l-174 -482h352zM92 835l62 236h146l-98 -236h-110z" />
    <glyph glyph-name="Epsilontonosgreek.sc" horiz-adv-x="1205" 
d="M1087 120v-121h-693v1071h693v-122h-544v-344h513v-118h-513v-366h544zM63 835l61 236h147l-98 -236h-110z" />
    <glyph glyph-name="Etatonosgreek.sc" horiz-adv-x="1429" 
d="M1268 0h-149v493h-576v-493h-149v1071h149v-456h576v456h149v-1071zM63 835l61 236h147l-98 -236h-110z" />
    <glyph glyph-name="Iotatonosgreek.sc" horiz-adv-x="706" 
d="M544 0h-149v1071h149v-1071zM63 835l61 236h147l-98 -236h-110z" />
    <glyph glyph-name="Iotadieresisgreek.sc" horiz-adv-x="473" 
d="M311 0h-149v1071h149v-1071zM104 1173c-40 0 -72 31 -72 69c0 42 32 72 72 72c43 0 75 -30 75 -72c0 -38 -32 -69 -75 -69zM366 1173c-41 0 -73 31 -73 69c0 42 32 72 73 72c42 0 74 -30 74 -72c0 -38 -32 -69 -74 -69z" />
    <glyph glyph-name="Omicrontonosgreek.sc" horiz-adv-x="1305" 
d="M415 611v-161c0 -235 133 -350 312 -350c181 0 314 115 314 350v161c0 236 -133 360 -314 360c-179 0 -312 -124 -312 -360zM265 452v158c0 302 182 483 464 483c283 0 461 -181 461 -483v-158c0 -301 -181 -474 -464 -474s-461 173 -461 474zM63 835l61 236h147
l-98 -236h-110z" />
    <glyph glyph-name="Upsilontonosgreek.sc" horiz-adv-x="1293" 
d="M883 0h-147v456l-387 615h169l289 -479h5l289 479h168l-386 -614v-457zM63 835l61 236h147l-98 -236h-110z" />
    <glyph glyph-name="Upsilondieresisgreek.sc" horiz-adv-x="969" 
d="M558 0h-147v456l-387 615h170l288 -479h5l290 479h168l-387 -614v-457zM352 1173c-42 0 -73 31 -73 69c0 42 31 72 73 72s73 -30 73 -72c0 -38 -31 -69 -73 -69zM613 1173c-41 0 -73 31 -73 69c0 42 32 72 73 72c43 0 74 -30 74 -72c0 -38 -31 -69 -74 -69z" />
    <glyph glyph-name="Omegatonosgreek.sc" horiz-adv-x="1312" 
d="M804 0v139c125 36 230 201 230 390v85c0 242 -137 357 -315 357c-183 0 -317 -118 -317 -357v-85c0 -185 101 -352 230 -390v-139h-393v123h211v8c-110 60 -198 210 -198 399v85c0 312 191 478 467 478c275 0 465 -166 465 -478v-85c0 -189 -89 -341 -198 -399v-8h211
v-123h-393zM63 835l61 236h147l-98 -236h-110z" />
    <glyph glyph-name="Acyrillic.sc" horiz-adv-x="1077" 
d="M208 0h-154l406 1071h158l405 -1071h-157l-115 321h-428zM540 913h-5l-174 -482h352z" />
    <glyph glyph-name="Becyrillic.sc" horiz-adv-x="1047" 
d="M317 949v-305h263c225 0 369 -128 369 -319c0 -194 -144 -325 -368 -325h-412v1071h689v-122h-541zM317 120h251c145 0 228 75 228 203s-83 202 -228 202h-251v-405z" />
    <glyph glyph-name="Vecyrillic.sc" horiz-adv-x="1094" 
d="M169 0v1071h431c198 0 324 -101 324 -264c0 -125 -74 -207 -187 -237v-6c150 -18 252 -111 252 -264c0 -188 -153 -300 -400 -300h-420zM317 952v-343h186c183 0 271 55 271 175c0 107 -73 168 -200 168h-257zM317 493v-375h208c220 0 311 57 311 182
c0 124 -91 193 -244 193h-275z" />
    <glyph glyph-name="Gecyrillic.sc" horiz-adv-x="937" 
d="M317 0h-148v1071h681v-122h-533v-949z" />
    <glyph glyph-name="Decyrillic.sc" horiz-adv-x="1224" 
d="M860 122v827h-441l-9 -247c-10 -304 -18 -486 -95 -576v-4h545zM180 -225h-134v347h94c107 67 117 207 127 594l10 355h731v-949h150v-347h-135v225h-843v-225z" />
    <glyph glyph-name="Iecyrillic.sc" horiz-adv-x="989" 
d="M862 122v-122h-693v1071h693v-122h-545v-343h515v-118h-515v-366h545z" />
    <glyph glyph-name="Iocyrillic.sc" horiz-adv-x="989" 
d="M862 122v-122h-693v1071h693v-122h-545v-343h515v-118h-515v-366h545zM380 1173c-40 0 -72 31 -72 69c0 42 32 72 72 72c42 0 74 -30 74 -72c0 -38 -32 -69 -74 -69zM642 1173c-41 0 -73 31 -73 69c0 42 32 72 73 72c42 0 74 -30 74 -72c0 -38 -32 -69 -74 -69z" />
    <glyph glyph-name="Zhecyrillic.sc" horiz-adv-x="1563" 
d="M988 560l531 -560h-187l-472 494h-5v-494h-147v494h-6l-471 -494h-185l529 556l-517 515h184l460 -459h6v459h147v-459h5l461 459h181z" />
    <glyph glyph-name="Zecyrillic.sc" horiz-adv-x="1036" 
d="M367 493v118h145c138 0 231 71 231 187c0 107 -94 179 -226 179c-147 0 -237 -80 -243 -170h-142c5 144 132 286 386 286c239 0 374 -127 374 -283c0 -138 -96 -226 -223 -245v-9c149 -14 262 -115 262 -259c0 -193 -165 -320 -415 -320c-248 0 -400 127 -408 290h139
c10 -96 114 -173 272 -173c162 0 261 78 261 203c0 130 -101 196 -269 196h-144z" />
    <glyph glyph-name="Iicyrillic.sc" horiz-adv-x="1213" 
d="M897 0v845h-5l-585 -845h-138v1071h148v-845h4l584 845h139v-1071h-147z" />
    <glyph glyph-name="Iishortcyrillic.sc" horiz-adv-x="1213" 
d="M897 0v845h-5l-585 -845h-138v1071h148v-845h4l584 845h139v-1071h-147zM355 1395h103c0 -78 55 -132 166 -132c112 0 167 54 167 132h101c0 -115 -87 -211 -268 -211c-180 0 -269 96 -269 211z" />
    <glyph glyph-name="Kacyrillic.sc" horiz-adv-x="1061" 
d="M828 0l-505 494h-6v-494h-148v1071h148v-459h6l493 459h183l-550 -511l569 -560h-190z" />
    <glyph glyph-name="Elcyrillic.sc" horiz-adv-x="1153" 
d="M269 717l8 354h706v-1071h-149v949h-415l-9 -247c-15 -499 -43 -710 -294 -710c-30 0 -53 7 -56 8v126c1 0 19 -6 43 -6c136 0 157 180 166 597z" />
    <glyph glyph-name="Emcyrillic.sc" horiz-adv-x="1394" 
d="M304 0h-135v1071h147l379 -820h4l379 820h146v-1071h-134v786h-5l-328 -691h-121l-328 691h-4v-786z" />
    <glyph glyph-name="Encyrillic.sc" horiz-adv-x="1213" 
d="M1043 0h-149v493h-577v-493h-148v1071h148v-456h577v456h149v-1071z" />
    <glyph glyph-name="Ocyrillic.sc" horiz-adv-x="1172" 
d="M273 611v-161c0 -235 133 -350 313 -350c181 0 313 115 313 350v161c0 236 -133 360 -313 360s-313 -124 -313 -360zM124 452v158c0 302 182 483 464 483s461 -181 461 -483v-158c0 -301 -181 -474 -464 -474s-461 173 -461 474z" />
    <glyph glyph-name="Pecyrillic.sc" horiz-adv-x="1196" 
d="M1027 0h-149v949h-561v-949h-148v1071h858v-1071z" />
    <glyph glyph-name="Ercyrillic.sc" horiz-adv-x="1041" 
d="M169 1071h419c224 0 368 -136 368 -334c0 -200 -145 -334 -369 -334h-270v-403h-148v1071zM317 951v-429h181c193 0 305 43 305 215c0 135 -84 214 -229 214h-257z" />
    <glyph glyph-name="Escyrillic.sc" horiz-adv-x="1116" 
d="M272 605v-145c0 -225 107 -359 305 -359c165 0 275 93 278 225h147v-5c0 -197 -179 -343 -425 -343c-290 0 -453 184 -453 483v143c0 302 163 489 453 489c248 0 424 -153 424 -358v-6h-147c-3 139 -112 241 -277 241c-197 0 -305 -136 -305 -365z" />
    <glyph glyph-name="Tecyrillic.sc" horiz-adv-x="947" 
d="M546 0h-147v949h-349v122h847v-122h-351v-949z" />
    <glyph glyph-name="Ucyrillic.sc" horiz-adv-x="979" 
d="M792 1071h154l-370 -797c-92 -197 -184 -282 -341 -282c-35 0 -67 5 -78 8v127c13 -4 43 -8 72 -8c82 0 140 43 198 151l-394 801h161l304 -643h5z" />
    <glyph glyph-name="Efcyrillic.sc" horiz-adv-x="1382" 
d="M761 -8h-147v125c-320 7 -499 156 -499 413v16c0 260 181 413 499 421v112h147v-112c323 -4 507 -152 507 -412v-18c0 -261 -184 -414 -507 -421v-124zM262 529c0 -184 124 -286 353 -291v609c-226 -7 -353 -113 -353 -300v-18zM1120 555c0 186 -129 288 -360 291v-610
c230 7 360 113 360 301v18z" />
    <glyph glyph-name="Xacyrillic.sc" horiz-adv-x="1017" 
d="M978 1071l-381 -540l374 -531h-178l-289 425h-7l-291 -425h-167l375 539l-370 532h177l291 -426h8l287 426h171z" />
    <glyph glyph-name="Tsecyrillic.sc" horiz-adv-x="1250" 
d="M1034 122h150v-347h-135v225h-15h-149h-716v1071h148v-949h568v949h149v-949z" />
    <glyph glyph-name="Checyrillic.sc" horiz-adv-x="1137" 
d="M968 0h-149v500h-5c-7 -5 -108 -80 -283 -80c-245 0 -388 124 -388 349v302h149v-301c0 -153 89 -231 250 -231c168 0 272 84 277 89v443h149v-1071z" />
    <glyph glyph-name="Shacyrillic.sc" horiz-adv-x="1627" 
d="M169 0v1071h148v-949h422v949h148v-949h421v949h149v-1071h-1288z" />
    <glyph glyph-name="Shchacyrillic.sc" horiz-adv-x="1673" 
d="M1607 -225h-135v225h-1303v1071h148v-949h422v949h148v-949h421v949h149v-949h150v-347z" />
    <glyph glyph-name="Hardsigncyrillic.sc" horiz-adv-x="1194" 
d="M740 0h-419v949h-271v122h420v-392h269c224 0 369 -137 369 -337c0 -203 -144 -342 -368 -342zM726 120c145 0 230 81 230 219c0 140 -85 219 -230 219h-256v-438h256z" />
    <glyph glyph-name="Yericyrillic.sc" horiz-adv-x="1408" 
d="M956 342c0 -204 -146 -342 -368 -342h-419v1071h148v-392h270c223 0 369 -136 369 -337zM573 558h-256v-438h256c146 0 229 81 229 219c0 140 -84 219 -229 219zM1239 0h-148v1071h148v-1071z" />
    <glyph glyph-name="Softsigncyrillic.sc" horiz-adv-x="1041" 
d="M588 0h-419v1071h148v-392h270c224 0 369 -137 369 -337c0 -203 -144 -342 -368 -342zM574 120c145 0 229 81 229 219c0 140 -84 219 -229 219h-257v-438h257z" />
    <glyph glyph-name="Ereversedcyrillic.sc" horiz-adv-x="1122" 
d="M543 -22c-293 0 -429 185 -429 343v2h146c1 -118 97 -222 278 -222c190 0 309 115 311 347v41h-473v117h473v12c-2 228 -123 352 -307 352c-183 0 -279 -124 -281 -237h-146v2c0 174 145 358 427 358s456 -180 456 -482v-157c0 -306 -171 -476 -455 -476z" />
    <glyph glyph-name="IUcyrillic.sc" horiz-adv-x="1541" 
d="M1268 450v161c0 236 -129 360 -305 360c-174 0 -303 -124 -303 -360v-161c0 -235 128 -350 303 -350c176 0 305 115 305 350zM317 615h194c2 299 179 478 454 478c277 0 452 -181 452 -483v-158c0 -301 -178 -474 -455 -474c-278 0 -451 173 -451 474v41h-194v-493h-148
v1071h148v-456z" />
    <glyph glyph-name="IAcyrillic.sc" horiz-adv-x="1087" 
d="M518 542h252v409h-252c-153 0 -236 -72 -236 -205s83 -204 236 -204zM769 422h-229h-3l-276 -422h-168l289 441c-156 30 -253 145 -253 303c0 198 144 327 379 327h410v-1071h-149v422z" />
    <glyph glyph-name="Djecyrillic.sc" horiz-adv-x="1309" 
d="M554 567c58 47 172 80 269 80c237 0 373 -122 373 -335c0 -192 -143 -321 -353 -321c-37 0 -76 4 -93 9v117c16 -4 51 -7 83 -7c126 0 214 83 214 201c0 142 -83 219 -236 219c-95 0 -206 -38 -262 -90v-440h-149v949h-350v122h849v-122h-350v-382h5z" />
    <glyph glyph-name="Gjecyrillic.sc" horiz-adv-x="937" 
d="M317 0h-148v1071h681v-122h-533v-949zM568 1186h-111l162 218h145z" />
    <glyph glyph-name="Ecyrillic.sc" horiz-adv-x="1123" 
d="M862 323h146v-2c0 -158 -137 -343 -430 -343c-283 0 -454 170 -454 476v157c0 302 174 482 456 482c281 0 427 -184 427 -358v-2h-146c-2 113 -98 237 -281 237c-186 0 -308 -126 -308 -360v-4h474v-117h-474v-35c0 -236 120 -353 312 -353c181 0 277 104 278 222z" />
    <glyph glyph-name="Dzecyrillic.sc" horiz-adv-x="1040" 
d="M86 289h148c10 -101 102 -191 283 -191c161 0 263 73 263 188c0 93 -64 142 -196 174l-193 46c-142 33 -271 114 -271 282c0 198 187 308 399 308c206 0 393 -103 398 -303h-146c-10 100 -92 183 -255 183c-144 0 -245 -65 -245 -178c0 -80 55 -136 168 -162l190 -46
c178 -43 302 -119 302 -292c0 -208 -185 -320 -429 -320c-307 0 -412 173 -416 311z" />
    <glyph glyph-name="Icyrillic.sc" horiz-adv-x="487" 
d="M317 0h-148v1071h148v-1071z" />
    <glyph glyph-name="Yicyrillic.sc" horiz-adv-x="476" 
d="M313 0h-149v1071h149v-1071zM106 1173c-40 0 -72 31 -72 69c0 42 32 72 72 72c42 0 74 -30 74 -72c0 -38 -32 -69 -74 -69zM367 1173c-40 0 -72 31 -72 69c0 42 32 72 72 72c43 0 75 -30 75 -72c0 -38 -32 -69 -75 -69z" />
    <glyph glyph-name="Jecyrillic.sc" horiz-adv-x="882" 
d="M54 252h146c3 -83 61 -149 181 -149c125 0 188 71 188 216v752h149v-752c0 -221 -123 -340 -338 -340c-203 0 -326 120 -326 273z" />
    <glyph glyph-name="Ljecyrillic.sc" horiz-adv-x="1692" 
d="M410 702c-17 -499 -45 -710 -294 -710c-33 0 -56 7 -56 8v126c4 -2 20 -6 43 -6c135 0 159 179 166 597l6 354h693v-392h270c224 0 368 -137 368 -337c0 -203 -144 -342 -368 -342h-418v949h-401zM1224 558h-257v-438h257c146 0 229 81 229 219c0 140 -83 219 -229 219z
" />
    <glyph glyph-name="Njecyrillic.sc" horiz-adv-x="1767" 
d="M894 646v425h149v-425h269c225 0 369 -122 369 -321c0 -200 -144 -325 -369 -325h-418v524h-577v-524h-148v1071h148v-425h577zM1300 526h-258v-406h258c144 0 228 68 228 204s-84 202 -228 202z" />
    <glyph glyph-name="Tshecyrillic.sc" horiz-adv-x="1350" 
d="M554 567c57 46 171 80 268 80c233 0 366 -125 366 -346v-301h-149v298c0 151 -80 232 -228 232c-96 0 -206 -38 -262 -90v-440h-149v949h-350v122h849v-122h-350v-382h5z" />
    <glyph glyph-name="Kjecyrillic.sc" horiz-adv-x="1061" 
d="M828 0l-505 494h-6v-494h-148v1071h148v-459h6l493 459h183l-550 -511l569 -560h-190zM610 1186h-111l161 218h145z" />
    <glyph glyph-name="Ushortcyrillic.sc" horiz-adv-x="979" 
d="M663 1383h102c0 -115 -87 -211 -267 -211c-181 0 -269 96 -269 211h102c0 -78 55 -132 167 -132c111 0 165 54 165 132zM792 1071h154l-370 -797c-92 -197 -184 -282 -341 -282c-35 0 -67 5 -78 8v127c13 -4 43 -8 72 -8c82 0 140 43 198 151l-394 801h161l304 -643h5z
" />
    <glyph glyph-name="Dzhecyrillic.sc" horiz-adv-x="1204" 
d="M886 1071h149v-1071h-365v-225h-135v225h-366v1071h148v-949h569v949z" />
    <glyph glyph-name="Geupturncyrillic.sc" horiz-adv-x="937" 
d="M715 1296h135v-225v-122h-533v-949h-148v1071h546v225z" />
    <glyph glyph-name="zero.sc" horiz-adv-x="1048" 
d="M263 555v-41c0 -262 103 -417 261 -417s262 155 262 417v41c0 262 -104 419 -262 419s-261 -156 -261 -419zM115 513v43c0 324 151 537 410 537s408 -212 408 -537v-43c0 -321 -148 -535 -409 -535c-259 0 -409 211 -409 535z" />
    <glyph glyph-name="one.sc" horiz-adv-x="801" 
d="M553 0h-147v923h-5c-70 -41 -178 -117 -270 -187v151c76 60 190 135 275 184h147v-1071z" />
    <glyph glyph-name="two.sc" horiz-adv-x="965" 
d="M266 775h-145v5c0 161 125 313 364 313c219 0 359 -126 359 -292c0 -135 -89 -227 -194 -338l-314 -335v-9h531v-119h-742v88l436 461c64 67 133 142 133 242c0 110 -88 184 -212 184c-138 0 -216 -92 -216 -195v-5z" />
    <glyph glyph-name="three.sc" horiz-adv-x="983" 
d="M353 493v118h118c126 0 217 79 216 186c-1 106 -87 179 -215 179c-127 0 -207 -73 -214 -152h-141c4 135 125 267 356 269c220 1 360 -119 363 -274c5 -152 -126 -242 -215 -256v-8c101 -10 251 -86 255 -259c3 -188 -169 -319 -407 -319c-229 0 -371 123 -378 273h139
c9 -87 106 -156 243 -156c155 0 254 85 253 203c-2 118 -102 196 -248 196h-125z" />
    <glyph glyph-name="four.sc" horiz-adv-x="1009" 
d="M566 1071h220v-728h151v-120h-151v-223h-142v223h-559v122c131 220 330 509 481 726zM232 343h412v610h-8c-124 -169 -294 -423 -404 -603v-7z" />
    <glyph glyph-name="five.sc" horiz-adv-x="1005" 
d="M126 249h142c21 -105 129 -154 241 -154c126 0 249 90 249 250c0 142 -115 231 -250 231c-123 0 -198 -66 -229 -119h-127l51 615h647v-120h-522l-31 -354h7c24 35 105 95 236 95c202 0 367 -130 367 -344c0 -220 -164 -371 -405 -371c-217 0 -366 117 -376 271z" />
    <glyph glyph-name="six.sc" horiz-adv-x="1030" 
d="M899 850h-148c-13 52 -77 123 -209 123c-171 0 -283 -159 -283 -449v-3h8c32 80 128 167 297 167c181 0 360 -120 360 -342c0 -233 -170 -368 -396 -368c-129 0 -256 46 -333 171c-49 78 -80 189 -80 344c0 400 169 597 431 597c217 0 344 -125 353 -240zM280 339
c0 -152 114 -244 249 -244c138 0 249 81 249 244c0 156 -120 234 -247 234c-146 0 -251 -97 -251 -234z" />
    <glyph glyph-name="seven.sc" horiz-adv-x="920" 
d="M97 1071h734v-125l-474 -946h-157l480 942v9h-583v120z" />
    <glyph glyph-name="eight.sc" horiz-adv-x="1029" 
d="M515 91c150 0 262 84 262 207c0 121 -111 207 -262 207s-264 -86 -264 -207c0 -123 114 -207 264 -207zM515 615c127 0 219 75 219 183s-91 180 -219 180c-127 0 -221 -72 -221 -180s94 -183 221 -183zM512 -22c-239 0 -406 127 -406 313c0 170 139 250 236 271v7
c-83 24 -191 98 -191 239c0 166 152 285 364 285s364 -119 364 -285c0 -144 -113 -216 -191 -239v-7c98 -21 235 -102 235 -270c0 -185 -172 -314 -411 -314z" />
    </font>
</defs>
</svg>
